<?xml version="1.0" encoding="utf-8"?>
<!-- Generator: Adobe Illustrator 23.0.6, SVG Export Plug-In . SVG Version: 6.00 Build 0)  -->
<svg version="1.1" id="Layer_1" xmlns="http://www.w3.org/2000/svg" xmlns:xlink="http://www.w3.org/1999/xlink" x="0px" y="0px"
	 viewBox="0 0 277.12 270" style="enable-background:new 0 0 277.12 270;" xml:space="preserve">
<style type="text/css">
	.st0{display:none;}
	.st1{display:inline;}
	.st2{display:inline;fill:#FFFFFF;}
	.st3{display:none;fill:#FFFFFF;stroke:#000000;stroke-width:4;stroke-linecap:round;stroke-linejoin:round;stroke-miterlimit:10;}
	.st4{display:none;fill:none;stroke:#FFFFFF;stroke-width:4;stroke-linecap:round;stroke-linejoin:round;stroke-miterlimit:10;}
	.st5{display:none;stroke:#000000;stroke-width:4;stroke-linecap:round;stroke-linejoin:round;stroke-miterlimit:10;}
	.st6{fill:#FFFFFF;}
	.st7{font-family:'Gilland-Bold';}
	.st8{font-size:18px;glyph-orientation-vertical:1;writing-mode:tb;}
	.st9{font-family:'Gilland-Regular';}
	.st10{font-size:18px;glyph-orientation-vertical:0;writing-mode:tb;}
	.st11{display:none;fill:#FFFFFF;enable-background:new    ;}
	.st12{font-size:18px;}
	.st13{display:none;fill:none;stroke:#000000;stroke-width:4;stroke-linecap:round;stroke-linejoin:round;stroke-miterlimit:10;}
	.st14{display:none;fill:#FFFFFF;}
	.st15{fill:none;stroke:#FFFFFF;stroke-width:4;stroke-linecap:round;stroke-linejoin:round;stroke-miterlimit:10;}
	.st16{font-family:'AppleSymbols';}
	.st17{font-family:'SVBasicManual';}
	.st18{stroke:#000000;stroke-width:4;stroke-linecap:round;stroke-linejoin:round;stroke-miterlimit:10;}
</style>
<g class="st0">
	<path class="st1" d="M241.96,227.5h-180c-11.05,0-20-8.95-20-20v-70h220v70C261.96,218.55,253.01,227.5,241.96,227.5z"/>
</g>
<g class="st0">
	<path class="st2" d="M241.96,7.5h-180c-11.05,0-20,8.95-20,20v180c0,11.05,8.95,20,20,20h180c11.05,0,20-8.95,20-20v-180
		C261.96,16.45,253.01,7.5,241.96,7.5z M251.96,197.5c0,11.05-8.95,20-20,20h-160c-11.05,0-20-8.95-20-20v-160
		c0-11.05,8.95-20,20-20h160c11.05,0,20,8.95,20,20V197.5z"/>
</g>
<g class="st0">
	<path class="st1" d="M241.96,11.5c8.82,0,16,7.18,16,16v180c0,8.82-7.18,16-16,16h-180c-8.82,0-16-7.18-16-16v-180
		c0-8.82,7.18-16,16-16H241.96 M241.96,7.5h-180c-11.05,0-20,8.95-20,20v180c0,11.05,8.95,20,20,20h180c11.05,0,20-8.95,20-20v-180
		C261.96,16.45,253.01,7.5,241.96,7.5L241.96,7.5z"/>
</g>
<path class="st3" d="M151.96,65h66.4c3.85,0,6.25,4.17,4.33,7.5l-33.2,57.5l-33.2,57.5c-1.92,3.33-6.74,3.33-8.66,0l-33.2-57.5
	l-33.2-57.5c-1.92-3.33,0.48-7.5,4.33-7.5H151.96z"/>
<path class="st0" d="M201.96,157.5c0,4.6-22.39,8.33-50,8.33s-50-3.73-50-8.33v50h100V157.5z"/>
<path class="st4" d="M181.96,176.34c-9.26,0.75-19.39,1.16-30,1.16s-20.74-0.41-30-1.16"/>
<path class="st4" d="M201.96,149.01c18.29,2.93,30,7.44,30,12.49c0,2.81-3.63,5.46-10,7.75"/>
<path class="st4" d="M81.96,169.25c-6.37-2.3-10-4.94-10-7.75c0-5.05,11.71-9.56,30-12.49"/>
<ellipse class="st4" cx="151.96" cy="157.5" rx="50" ry="10"/>
<g class="st0">
	<polygon class="st1" points="131.96,77.5 141.96,127.5 161.96,127.5 171.96,77.5 	"/>
	<circle class="st1" cx="151.96" cy="147.5" r="10"/>
</g>
<path class="st4" d="M151.96,147.5"/>
<rect x="16.96" y="27.5" class="st5" width="25" height="180"/>
<text transform="matrix(1 0 0 1 29.4641 32.5)" class="st6 st7 st8">        </text>
<text transform="matrix(1 0 0 1 29.4642 74.69)" class="st6 st9 st10">NO</text>
<text transform="matrix(1 0 0 1 25.6215 47.5)" class="st11 st7 st12">1</text>
<g class="st0">
	<path class="st2" d="M241.96,7.5h-180c-11.05,0-20,8.95-20,20v180c0,11.05,8.95,20,20,20h180c11.05,0,20-8.95,20-20v-180
		C261.96,16.45,253.01,7.5,241.96,7.5z M251.96,197.5c0,11.05-8.95,20-20,20h-160c-11.05,0-20-8.95-20-20v-160
		c0-11.05,8.95-20,20-20h160c11.05,0,20,8.95,20,20V197.5z"/>
</g>
<g class="st0">
	<path class="st1" d="M241.96,11.5c8.82,0,16,7.18,16,16v180c0,8.82-7.18,16-16,16h-180c-8.82,0-16-7.18-16-16v-180
		c0-8.82,7.18-16,16-16H241.96 M241.96,7.5h-180c-11.05,0-20,8.95-20,20v180c0,11.05,8.95,20,20,20h180c11.05,0,20-8.95,20-20v-180
		C261.96,16.45,253.01,7.5,241.96,7.5L241.96,7.5z"/>
</g>
<rect x="131.96" y="47.5" class="st5" width="40" height="40"/>
<rect x="131.96" y="147.5" class="st13" width="40" height="40"/>
<path class="st13" d="M171.96,187.5c38.66,0,70-31.34,70-70s-31.34-70-70-70v40c16.57,0,30,13.43,30,30s-13.43,30-30,30V187.5z"/>
<rect x="101.96" y="47.5" class="st5" width="20" height="40"/>
<rect x="81.96" y="47.5" class="st5" width="10" height="40"/>
<rect x="101.96" y="147.5" class="st5" width="20" height="40"/>
<rect x="81.96" y="147.5" class="st5" width="10" height="40"/>
<rect x="71.97" y="47.5" class="st5" width="0.01" height="40"/>
<rect x="71.97" y="147.5" class="st5" width="0.01" height="40"/>
<rect x="16.96" y="27.5" class="st5" width="25" height="180"/>
<text transform="matrix(1 0 0 1 29.4641 32.5)" class="st6 st7 st8">        </text>
<text transform="matrix(1 0 0 1 29.4642 74.69)" class="st6 st9 st10">NO</text>
<text transform="matrix(1 0 0 1 24.2446 47.5)" class="st11 st7 st12">2</text>
<g class="st0">
	<g class="st1">
		<path d="M241.96,7.5h-180c-11.05,0-20,8.95-20,20v180c0,11.05,8.95,20,20,20h180c11.05,0,20-8.95,20-20v-180
			C261.96,16.45,253.01,7.5,241.96,7.5z M251.96,197.5c0,11.05-8.95,20-20,20h-160c-11.05,0-20-8.95-20-20v-160
			c0-11.05,8.95-20,20-20h160c11.05,0,20,8.95,20,20V197.5z"/>
	</g>
	<g class="st1">
		<path d="M241.96,11.5c8.82,0,16,7.18,16,16v180c0,8.82-7.18,16-16,16h-180c-8.82,0-16-7.18-16-16v-180c0-8.82,7.18-16,16-16
			H241.96 M241.96,7.5h-180c-11.05,0-20,8.95-20,20v180c0,11.05,8.95,20,20,20h180c11.05,0,20-8.95,20-20v-180
			C261.96,16.45,253.01,7.5,241.96,7.5L241.96,7.5z"/>
	</g>
</g>
<rect x="61.96" y="27.5" class="st3" width="85" height="180"/>
<rect x="156.96" y="27.5" class="st3" width="85" height="180"/>
<rect x="71.96" y="37.5" class="st0" width="75" height="10"/>
<rect x="71.96" y="57.5" class="st0" width="75" height="10"/>
<rect x="71.96" y="77.5" class="st0" width="75" height="10"/>
<rect x="71.96" y="97.5" class="st0" width="75" height="10"/>
<rect x="71.96" y="117.5" class="st0" width="75" height="10"/>
<path class="st0" d="M121.96,172.5h-30c-5.5,0-10-4.5-10-10l0,0c0-5.5,4.5-10,10-10h30c5.5,0,10,4.5,10,10l0,0
	C131.96,168,127.46,172.5,121.96,172.5z"/>
<path class="st0" d="M211.96,47.5h-10c-5.5,0-10,4.5-10,10v20c0,5.5,4.5,10,10,10h10c5.5,0,10-4.5,10-10v-20
	C221.96,52,217.46,47.5,211.96,47.5z"/>
<path class="st0" d="M211.96,137.5h-10c-5.5,0-10,4.5-10,10v20c0,5.5,4.5,10,10,10h10c5.5,0,10-4.5,10-10v-20
	C221.96,142,217.46,137.5,211.96,137.5z"/>
<rect x="201.96" y="77.5" class="st0" width="10" height="70"/>
<line class="st13" x1="211.96" y1="157.5" x2="211.96" y2="207.5"/>
<rect x="16.96" y="27.5" class="st5" width="25" height="180"/>
<text transform="matrix(1 0 0 1 29.4641 32.5)" class="st6 st7 st8">        </text>
<text transform="matrix(1 0 0 1 29.4642 74.69)" class="st6 st9 st10">NO</text>
<text transform="matrix(1 0 0 1 24.4516 47.5)" class="st11 st7 st12">3</text>
<rect x="51.96" y="17.5" class="st0" width="200" height="200"/>
<g class="st0">
	<path class="st2" d="M241.96,7.5h-180c-11.05,0-20,8.95-20,20v180c0,11.05,8.95,20,20,20h180c11.05,0,20-8.95,20-20v-180
		C261.96,16.45,253.01,7.5,241.96,7.5z M251.96,197.5c0,11.05-8.95,20-20,20h-160c-11.05,0-20-8.95-20-20v-160
		c0-11.05,8.95-20,20-20h160c11.05,0,20,8.95,20,20V197.5z"/>
</g>
<g class="st0">
	<path class="st1" d="M241.96,11.5c8.82,0,16,7.18,16,16v180c0,8.82-7.18,16-16,16h-180c-8.82,0-16-7.18-16-16v-180
		c0-8.82,7.18-16,16-16H241.96 M241.96,7.5h-180c-11.05,0-20,8.95-20,20v180c0,11.05,8.95,20,20,20h180c11.05,0,20-8.95,20-20v-180
		C261.96,16.45,253.01,7.5,241.96,7.5L241.96,7.5z"/>
</g>
<polygon class="st14" points="241.96,207.5 241.96,27.5 61.96,27.5 "/>
<path class="st3" d="M81.96,112.5v-45c0-11.03,8.97-20,20-20h100c11.03,0,20,8.97,20,20v45h-10"/>
<path class="st3" d="M81.96,127.5v40c0,11.03,8.97,20,20,20h100c11.03,0,20-8.97,20-20v-40h-10"/>
<path class="st3" d="M101.96,177.5c-5.52,0-10-4.48-10-10v-100c0-5.52,4.48-10,10-10h100c5.52,0,10,4.48,10,10v100
	c0,5.52-4.48,10-10,10H101.96z"/>
<g class="st0">
	<polygon class="st1" points="131.96,77.5 141.96,127.5 161.96,127.5 171.96,77.5 	"/>
</g>
<rect x="141.96" y="142.5" class="st0" width="20" height="15"/>
<path class="st13" d="M146.96,142.5v-5c0-2.76,2.24-5,5-5s5,2.24,5,5v5"/>
<rect x="16.96" y="27.5" class="st5" width="25" height="180"/>
<text transform="matrix(1 0 0 1 29.4641 32.5)" class="st6 st7 st8">        </text>
<text transform="matrix(1 0 0 1 29.4642 74.69)" class="st6 st9 st10">NO</text>
<text transform="matrix(1 0 0 1 24.1274 47.5)" class="st11 st7 st12">4</text>
<g class="st0">
	<path class="st2" d="M241.97,7.5h-180c-11.05,0-20,8.95-20,20v180c0,11.05,8.95,20,20,20h180c11.05,0,20-8.95,20-20v-180
		C261.97,16.45,253.02,7.5,241.97,7.5z M251.97,197.5c0,11.05-8.95,20-20,20h-160c-11.05,0-20-8.95-20-20v-160
		c0-11.05,8.95-20,20-20h160c11.05,0,20,8.95,20,20V197.5z"/>
</g>
<g class="st0">
	<path class="st1" d="M241.97,11.5c8.82,0,16,7.18,16,16v180c0,8.82-7.18,16-16,16h-180c-8.82,0-16-7.18-16-16v-180
		c0-8.82,7.18-16,16-16H241.97 M241.97,7.5h-180c-11.05,0-20,8.95-20,20v180c0,11.05,8.95,20,20,20h180c11.05,0,20-8.95,20-20v-180
		C261.97,16.45,253.02,7.5,241.97,7.5L241.97,7.5z"/>
</g>
<polygon class="st0" points="131.97,77.5 171.97,77.5 161.97,127.5 141.97,127.5 "/>
<circle class="st0" cx="151.97" cy="147.5" r="10"/>
<g class="st0">
	<rect x="63.97" y="29.5" class="st2" width="71" height="176"/>
	<path class="st1" d="M132.97,31.5v172h-67v-172H132.97 M136.97,27.5h-75v180h75V27.5L136.97,27.5z"/>
</g>
<g class="st0">
	<rect x="168.97" y="29.5" class="st2" width="71" height="176"/>
	<path class="st1" d="M237.97,31.5v172h-67v-172H237.97 M241.97,27.5h-75v180h75V27.5L241.97,27.5z"/>
</g>
<rect x="16.96" y="27.5" class="st5" width="25" height="180"/>
<text transform="matrix(1 0 0 1 29.4579 32.5)" class="st6 st7 st8">        </text>
<text transform="matrix(1 0 0 1 29.458 74.69)" class="st6 st9 st10">NO</text>
<text transform="matrix(1 0 0 1 24.3463 47.5)" class="st11 st7 st12">5</text>
<g class="st0">
	<path class="st1" d="M241.97,227.5h-180c-11.05,0-20-8.95-20-20v-50h220v50C261.97,218.55,253.02,227.5,241.97,227.5z"/>
</g>
<g class="st0">
	<path class="st2" d="M241.97,7.5h-180c-11.05,0-20,8.95-20,20v180c0,11.05,8.95,20,20,20h180c11.05,0,20-8.95,20-20v-180
		C261.97,16.45,253.02,7.5,241.97,7.5z M251.97,197.5c0,11.05-8.95,20-20,20h-160c-11.05,0-20-8.95-20-20v-160
		c0-11.05,8.95-20,20-20h160c11.05,0,20,8.95,20,20V197.5z"/>
</g>
<g class="st0">
	<path class="st1" d="M241.97,11.5c8.82,0,16,7.18,16,16v180c0,8.82-7.18,16-16,16h-180c-8.82,0-16-7.18-16-16v-180
		c0-8.82,7.18-16,16-16H241.97 M241.97,7.5h-180c-11.05,0-20,8.95-20,20v180c0,11.05,8.95,20,20,20h180c11.05,0,20-8.95,20-20v-180
		C261.97,16.45,253.02,7.5,241.97,7.5L241.97,7.5z"/>
</g>
<polygon class="st0" points="149.47,146.67 131.97,142.5 131.97,150.41 "/>
<polygon class="st0" points="124.63,85.85 162.21,72.17 169.92,122.57 151.12,129.41 "/>
<circle class="st0" cx="176.97" cy="147.5" r="10"/>
<rect x="16.96" y="27.5" class="st5" width="25" height="180"/>
<text transform="matrix(1 0 0 1 29.4579 32.5)" class="st6 st7 st8">        </text>
<text transform="matrix(1 0 0 1 29.458 74.69)" class="st6 st9 st10">NO</text>
<text transform="matrix(1 0 0 1 24.5172 47.5)" class="st11 st7 st12">6</text>
<g>
	<path d="M241.98,227.73h-180c-11.05,0-20-8.95-20-20v-180c0-11.05,8.95-20,20-20h180c11.05,0,20,8.95,20,20v180
		C261.98,218.77,253.03,227.73,241.98,227.73z"/>
</g>
<g>
	<path class="st15" d="M41.98,34.1c3.4-6.98,7.62-13.62,12.67-19.77c1.86-2.27,3.81-4.45,5.84-6.53"/>
	<path class="st15" d="M202.92,52.37c-7.63-9.31-18.9-14.64-30.93-14.64h-40c-12.03,0-23.31,5.34-30.93,14.64
		c-7.63,9.31-10.65,21.41-8.29,33.2l10,50c0.11,0.53,0.22,1.05,0.35,1.58c-0.75,3.46-1.13,7-1.13,10.57c0,27.57,22.43,50,50,50
		s50-22.43,50-50c0-3.57-0.38-7.12-1.13-10.58c0.13-0.53,0.24-1.05,0.35-1.58l10-50C213.57,73.77,210.55,61.67,202.92,52.37z"/>
	<path class="st15" d="M210.65,46.03c-9.53-11.63-23.63-18.3-38.67-18.3h-40c-15.04,0-29.13,6.67-38.67,18.3
		C83.78,57.66,80,72.79,82.95,87.53l9.94,49.73c-0.61,3.44-0.92,6.95-0.92,10.47c0,33.08,26.92,60,60,60s60-26.92,60-60
		c0-3.51-0.31-7.03-0.92-10.47L221,87.54C223.96,72.79,220.19,57.66,210.65,46.03z"/>
	<path class="st15" d="M243.47,7.8c2.03,2.08,3.99,4.26,5.85,6.53c5.04,6.15,9.27,12.79,12.66,19.77"/>
	<path class="st15" d="M261.98,78.84c0.01-0.82,0.01-1.64,0-2.46"/>
	<path class="st15" d="M171.98,17.73h-40c-18.05,0-34.96,8-46.4,21.96S69.6,71.8,73.15,89.49l9.59,47.96
		c-0.5,3.39-0.76,6.84-0.76,10.28c0,38.6,31.4,70,70,70s70-31.4,70-70c0-3.44-0.25-6.89-0.76-10.28l9.59-47.95
		c3.54-17.7-0.99-35.85-12.43-49.81S190.03,17.73,171.98,17.73z"/>
	<path class="st15" d="M171.98,7.73c21.06,0,40.79,9.34,54.14,25.62s18.63,37.46,14.5,58.11l-9.26,46.3
		c0.41,3.3,0.62,6.64,0.62,9.97c0,44.11-35.89,80-80,80"/>
	<path class="st15" d="M195.18,58.71c-5.72-6.98-14.18-10.98-23.2-10.98h-40c-9.02,0-17.48,4-23.2,10.98s-7.99,16.06-6.22,24.9
		l10,50c0.23,1.14,0.52,2.27,0.88,3.38c-0.97,3.48-1.47,7.07-1.47,10.74c0,22.06,17.94,40,40,40s40-17.94,40-40
		c0-3.67-0.49-7.26-1.46-10.74c0.36-1.11,0.65-2.24,0.88-3.38l10-50C203.17,74.76,200.9,65.69,195.18,58.71z"/>
	<path class="st15" d="M261.98,195.66c-5.16,11.8-12.16,22.61-20.64,32.07"/>
	<path class="st15" d="M41.98,147.73c0-2.8,0.11-5.64,0.33-8.47l-0.33-1.63"/>
	<path class="st15" d="M187.45,65.05c-3.81-4.65-9.45-7.32-15.47-7.32h-40c-6.02,0-11.65,2.67-15.47,7.32
		c-3.81,4.65-5.33,10.7-4.14,16.6l10,50c0.35,1.76,0.94,3.45,1.73,5.03c-1.39,3.49-2.12,7.22-2.12,11.05c0,16.54,13.46,30,30,30
		s30-13.46,30-30c0-3.83-0.72-7.56-2.12-11.05c0.79-1.58,1.38-3.27,1.73-5.03l10-50C192.77,75.75,191.26,69.7,187.45,65.05z"/>
	<path class="st15" d="M151.98,227.73c-44.11,0-80-35.89-80-80c0-3.32,0.21-6.66,0.62-9.96l-9.26-46.31
		c-4.13-20.64,1.15-41.82,14.51-58.11c13.34-16.28,33.08-25.62,54.13-25.62"/>
	<path class="st15" d="M41.98,76.04c-0.02,0.99-0.02,1.98,0,2.98"/>
	<path class="st15" d="M41.98,195.66c5.16,11.8,12.16,22.61,20.64,32.07"/>
	<path class="st15" d="M261.98,137.62l-0.33,1.64c0.22,2.82,0.33,5.67,0.33,8.47"/>
	<line class="st15" x1="41.98" y1="195.66" x2="41.98" y2="147.73"/>
	<line class="st15" x1="210.76" y1="7.73" x2="171.98" y2="7.73"/>
	<line class="st15" x1="193.18" y1="227.73" x2="151.98" y2="227.73"/>
	<line class="st15" x1="261.98" y1="78.84" x2="261.98" y2="76.38"/>
	<line class="st15" x1="261.98" y1="195.66" x2="261.98" y2="147.73"/>
	<path class="st15" d="M41.98,195.66v12.07c0,11.05,8.95,20,20,20h0.64"/>
	<path class="st15" d="M261.98,195.66v12.07c0,11.05-8.95,20-20,20h-0.64"/>
	<line class="st15" x1="41.98" y1="79.02" x2="41.98" y2="76.04"/>
	<line class="st15" x1="41.98" y1="147.73" x2="41.98" y2="137.63"/>
	<line class="st15" x1="211.92" y1="227.73" x2="193.18" y2="227.73"/>
	<line class="st15" x1="227.4" y1="227.73" x2="211.92" y2="227.73"/>
	<line class="st15" x1="210.76" y1="7.73" x2="228.57" y2="7.73"/>
	<line class="st15" x1="75.4" y1="7.73" x2="93.2" y2="7.73"/>
	<line class="st15" x1="261.98" y1="147.73" x2="261.98" y2="137.62"/>
	<line class="st15" x1="227.4" y1="227.73" x2="241.34" y2="227.73"/>
	<path class="st15" d="M228.57,7.73h13.41c0.5,0,1,0.04,1.49,0.08"/>
	<path class="st15" d="M75.4,7.73H61.98c-0.5,0-1,0.04-1.49,0.08"/>
	<line class="st15" x1="92.05" y1="227.73" x2="110.78" y2="227.73"/>
	<path class="st15" d="M41.98,34.1v-6.37c0-10.54,8.16-19.16,18.51-19.92"/>
	<line class="st15" x1="261.98" y1="34.1" x2="261.98" y2="76.38"/>
	<line class="st15" x1="261.98" y1="78.84" x2="261.98" y2="137.62"/>
	<path class="st15" d="M243.47,7.8c10.35,0.76,18.51,9.38,18.51,19.92v6.38"/>
	<line class="st15" x1="62.62" y1="227.73" x2="76.57" y2="227.73"/>
	<line class="st15" x1="41.98" y1="34.1" x2="41.98" y2="76.04"/>
	<line class="st15" x1="151.98" y1="227.73" x2="110.78" y2="227.73"/>
	<line class="st15" x1="41.98" y1="79.02" x2="41.98" y2="137.63"/>
	<line class="st15" x1="131.98" y1="7.73" x2="93.2" y2="7.73"/>
	<line class="st15" x1="92.05" y1="227.73" x2="76.57" y2="227.73"/>
	<line class="st15" x1="171.98" y1="7.73" x2="131.98" y2="7.73"/>
</g>
<g>
	<path class="st6" d="M241.98,7.73h-180c-11.05,0-20,8.95-20,20v180c0,11.05,8.95,20,20,20h180c11.05,0,20-8.95,20-20v-180
		C261.98,16.68,253.03,7.73,241.98,7.73z M251.98,197.73c0,11.05-8.95,20-20,20h-160c-11.05,0-20-8.95-20-20v-160
		c0-11.05,8.95-20,20-20h160c11.05,0,20,8.95,20,20V197.73z"/>
</g>
<g>
	<path d="M241.98,11.73c8.82,0,16,7.18,16,16v180c0,8.82-7.18,16-16,16h-180c-8.82,0-16-7.18-16-16v-180c0-8.82,7.18-16,16-16
		L241.98,11.73 M241.98,7.73h-180c-11.05,0-20,8.95-20,20v180c0,11.05,8.95,20,20,20h180c11.05,0,20-8.95,20-20v-180
		C261.98,16.68,253.03,7.73,241.98,7.73L241.98,7.73z"/>
</g>
<polygon class="st6" points="131.98,77.73 171.98,77.73 161.98,127.73 141.98,127.73 "/>
<path class="st15" d="M171.79,129.69l10-50c0.59-2.94-0.17-5.98-2.07-8.3s-4.74-3.66-7.73-3.66h-40c-3,0-5.83,1.34-7.73,3.66
	s-2.66,5.36-2.07,8.3l10,50c0.5,2.5,1.91,4.61,3.84,6.05c-2.52,3.35-4.03,7.49-4.03,11.99c0,11.03,8.97,20,20,20s20-8.97,20-20
	c0-4.5-1.51-8.64-4.03-11.99C169.88,134.3,171.29,132.18,171.79,129.69z"/>
<circle class="st6" cx="151.98" cy="147.73" r="10"/>
<text transform="matrix(1 0 0 1 41.9828 244.3999)" class="st16 st12">▲ </text>
<text transform="matrix(1 0 0 1 62.8128 244.3999)" class="st17 st12">Radiation</text>
<text transform="matrix(1 0 0 1 41.9828 260.5999)" class="st17 st12">time/sickness</text>
<rect x="16.97" y="27.73" class="st18" width="25" height="180"/>
<text transform="matrix(1 0 0 1 29.4703 32.7251)" class="st6 st7 st8">        </text>
<text transform="matrix(1 0 0 1 29.4704 74.9151)" class="st6 st9 st10">NO</text>
<text transform="matrix(1 0 0 1 21.7849 47.7251)" class="st6 st7 st12">11</text>
</svg>
