<?xml version="1.0" encoding="utf-8"?>
<!-- Generator: Adobe Illustrator 23.0.6, SVG Export Plug-In . SVG Version: 6.00 Build 0)  -->
<svg version="1.1" id="Layer_1" xmlns="http://www.w3.org/2000/svg" xmlns:xlink="http://www.w3.org/1999/xlink" x="0px" y="0px"
	 viewBox="0 0 277.12 270" style="enable-background:new 0 0 277.12 270;" xml:space="preserve">
<style type="text/css">
	.st0{display:none;}
	.st1{display:inline;}
	.st2{display:inline;fill:#FFFFFF;}
	.st3{display:none;fill:#FFFFFF;stroke:#000000;stroke-width:4;stroke-linecap:round;stroke-linejoin:round;stroke-miterlimit:10;}
	.st4{display:none;fill:none;stroke:#FFFFFF;stroke-width:4;stroke-linecap:round;stroke-linejoin:round;stroke-miterlimit:10;}
	.st5{display:none;stroke:#000000;stroke-width:4;stroke-linecap:round;stroke-linejoin:round;stroke-miterlimit:10;}
	.st6{display:none;fill:#FFFFFF;enable-background:new    ;}
	.st7{font-family:'Gilland-Bold';}
	.st8{font-size:18px;}
	.st9{display:none;fill:none;stroke:#000000;stroke-width:4;stroke-linecap:round;stroke-linejoin:round;stroke-miterlimit:10;}
	.st10{display:none;fill:#FFFFFF;}
	.st11{fill:none;}
	.st12{font-family:'AppleSymbols';}
	.st13{font-family:'SVBasicManual';}
	.st14{fill:#FFFFFF;stroke:#000000;stroke-width:4;stroke-linecap:round;stroke-linejoin:round;stroke-miterlimit:10;}
	.st15{fill:none;stroke:#000000;stroke-width:4;stroke-linecap:round;stroke-linejoin:round;stroke-miterlimit:10;}
	.st16{fill:#FFFFFF;}
	.st17{stroke:#000000;stroke-width:4;stroke-linecap:round;stroke-linejoin:round;stroke-miterlimit:10;}
	.st18{writing-mode:tb;}
	.st19{font-size:18px;glyph-orientation-vertical:1;}
	.st20{font-family:'Gilland-Regular';}
	.st21{font-size:18px;glyph-orientation-vertical:0;}
</style>
<g class="st0">
	<path class="st1" d="M241.96,227.5h-180c-11.05,0-20-8.95-20-20v-70h220v70C261.96,218.55,253.01,227.5,241.96,227.5z"/>
</g>
<g class="st0">
	<path class="st2" d="M241.96,7.5h-180c-11.05,0-20,8.95-20,20v180c0,11.05,8.95,20,20,20h180c11.05,0,20-8.95,20-20v-180
		C261.96,16.45,253.01,7.5,241.96,7.5z M251.96,197.5c0,11.05-8.95,20-20,20h-160c-11.05,0-20-8.95-20-20v-160
		c0-11.05,8.95-20,20-20h160c11.05,0,20,8.95,20,20V197.5z"/>
</g>
<g class="st0">
	<path class="st1" d="M241.96,11.5c8.82,0,16,7.18,16,16v180c0,8.82-7.18,16-16,16h-180c-8.82,0-16-7.18-16-16v-180
		c0-8.82,7.18-16,16-16H241.96 M241.96,7.5h-180c-11.05,0-20,8.95-20,20v180c0,11.05,8.95,20,20,20h180c11.05,0,20-8.95,20-20v-180
		C261.96,16.45,253.01,7.5,241.96,7.5L241.96,7.5z"/>
</g>
<path class="st3" d="M151.96,65h66.4c3.85,0,6.25,4.17,4.33,7.5l-33.2,57.5l-33.2,57.5c-1.92,3.33-6.74,3.33-8.66,0l-33.2-57.5
	l-33.2-57.5c-1.92-3.33,0.48-7.5,4.33-7.5H151.96z"/>
<path class="st0" d="M201.96,157.5c0,4.6-22.39,8.33-50,8.33s-50-3.73-50-8.33v50h100V157.5z"/>
<path class="st4" d="M181.96,176.34c-9.26,0.75-19.39,1.16-30,1.16s-20.74-0.41-30-1.16"/>
<path class="st4" d="M201.96,149.01c18.29,2.93,30,7.44,30,12.49c0,2.81-3.63,5.46-10,7.75"/>
<path class="st4" d="M81.96,169.25c-6.37-2.3-10-4.94-10-7.75c0-5.05,11.71-9.56,30-12.49"/>
<ellipse class="st4" cx="151.96" cy="157.5" rx="50" ry="10"/>
<g class="st0">
	<polygon class="st1" points="131.96,77.5 141.96,127.5 161.96,127.5 171.96,77.5 	"/>
	<circle class="st1" cx="151.96" cy="147.5" r="10"/>
</g>
<path class="st4" d="M151.96,147.5"/>
<rect x="16.96" y="27.5" class="st5" width="25" height="180"/>
<text transform="matrix(1 0 0 1 25.6215 47.5)" class="st6 st7 st8">1</text>
<g class="st0">
	<path class="st2" d="M241.96,7.5h-180c-11.05,0-20,8.95-20,20v180c0,11.05,8.95,20,20,20h180c11.05,0,20-8.95,20-20v-180
		C261.96,16.45,253.01,7.5,241.96,7.5z M251.96,197.5c0,11.05-8.95,20-20,20h-160c-11.05,0-20-8.95-20-20v-160
		c0-11.05,8.95-20,20-20h160c11.05,0,20,8.95,20,20V197.5z"/>
</g>
<g class="st0">
	<path class="st1" d="M241.96,11.5c8.82,0,16,7.18,16,16v180c0,8.82-7.18,16-16,16h-180c-8.82,0-16-7.18-16-16v-180
		c0-8.82,7.18-16,16-16H241.96 M241.96,7.5h-180c-11.05,0-20,8.95-20,20v180c0,11.05,8.95,20,20,20h180c11.05,0,20-8.95,20-20v-180
		C261.96,16.45,253.01,7.5,241.96,7.5L241.96,7.5z"/>
</g>
<rect x="131.96" y="47.5" class="st5" width="40" height="40"/>
<rect x="131.96" y="147.5" class="st9" width="40" height="40"/>
<path class="st9" d="M171.96,187.5c38.66,0,70-31.34,70-70s-31.34-70-70-70v40c16.57,0,30,13.43,30,30s-13.43,30-30,30V187.5z"/>
<rect x="101.96" y="47.5" class="st5" width="20" height="40"/>
<rect x="81.96" y="47.5" class="st5" width="10" height="40"/>
<rect x="101.96" y="147.5" class="st5" width="20" height="40"/>
<rect x="81.96" y="147.5" class="st5" width="10" height="40"/>
<rect x="71.97" y="47.5" class="st5" width="0.01" height="40"/>
<rect x="71.97" y="147.5" class="st5" width="0.01" height="40"/>
<rect x="16.96" y="27.5" class="st5" width="25" height="180"/>
<text transform="matrix(1 0 0 1 24.2446 47.5)" class="st6 st7 st8">2</text>
<g class="st0">
	<g class="st1">
		<path d="M241.96,7.5h-180c-11.05,0-20,8.95-20,20v180c0,11.05,8.95,20,20,20h180c11.05,0,20-8.95,20-20v-180
			C261.96,16.45,253.01,7.5,241.96,7.5z M251.96,197.5c0,11.05-8.95,20-20,20h-160c-11.05,0-20-8.95-20-20v-160
			c0-11.05,8.95-20,20-20h160c11.05,0,20,8.95,20,20V197.5z"/>
	</g>
	<g class="st1">
		<path d="M241.96,11.5c8.82,0,16,7.18,16,16v180c0,8.82-7.18,16-16,16h-180c-8.82,0-16-7.18-16-16v-180c0-8.82,7.18-16,16-16
			H241.96 M241.96,7.5h-180c-11.05,0-20,8.95-20,20v180c0,11.05,8.95,20,20,20h180c11.05,0,20-8.95,20-20v-180
			C261.96,16.45,253.01,7.5,241.96,7.5L241.96,7.5z"/>
	</g>
</g>
<rect x="61.96" y="27.5" class="st3" width="85" height="180"/>
<rect x="156.96" y="27.5" class="st3" width="85" height="180"/>
<rect x="71.96" y="37.5" class="st0" width="75" height="10"/>
<rect x="71.96" y="57.5" class="st0" width="75" height="10"/>
<rect x="71.96" y="77.5" class="st0" width="75" height="10"/>
<rect x="71.96" y="97.5" class="st0" width="75" height="10"/>
<rect x="71.96" y="117.5" class="st0" width="75" height="10"/>
<path class="st0" d="M121.96,172.5h-30c-5.5,0-10-4.5-10-10l0,0c0-5.5,4.5-10,10-10h30c5.5,0,10,4.5,10,10l0,0
	C131.96,168,127.46,172.5,121.96,172.5z"/>
<path class="st0" d="M211.96,47.5h-10c-5.5,0-10,4.5-10,10v20c0,5.5,4.5,10,10,10h10c5.5,0,10-4.5,10-10v-20
	C221.96,52,217.46,47.5,211.96,47.5z"/>
<path class="st0" d="M211.96,137.5h-10c-5.5,0-10,4.5-10,10v20c0,5.5,4.5,10,10,10h10c5.5,0,10-4.5,10-10v-20
	C221.96,142,217.46,137.5,211.96,137.5z"/>
<rect x="201.96" y="77.5" class="st0" width="10" height="70"/>
<line class="st9" x1="211.96" y1="157.5" x2="211.96" y2="207.5"/>
<rect x="16.96" y="27.5" class="st5" width="25" height="180"/>
<text transform="matrix(1 0 0 1 24.4516 47.5)" class="st6 st7 st8">3</text>
<rect x="51.96" y="17.5" class="st0" width="200" height="200"/>
<g class="st0">
	<path class="st2" d="M241.96,7.5h-180c-11.05,0-20,8.95-20,20v180c0,11.05,8.95,20,20,20h180c11.05,0,20-8.95,20-20v-180
		C261.96,16.45,253.01,7.5,241.96,7.5z M251.96,197.5c0,11.05-8.95,20-20,20h-160c-11.05,0-20-8.95-20-20v-160
		c0-11.05,8.95-20,20-20h160c11.05,0,20,8.95,20,20V197.5z"/>
</g>
<g class="st0">
	<path class="st1" d="M241.96,11.5c8.82,0,16,7.18,16,16v180c0,8.82-7.18,16-16,16h-180c-8.82,0-16-7.18-16-16v-180
		c0-8.82,7.18-16,16-16H241.96 M241.96,7.5h-180c-11.05,0-20,8.95-20,20v180c0,11.05,8.95,20,20,20h180c11.05,0,20-8.95,20-20v-180
		C261.96,16.45,253.01,7.5,241.96,7.5L241.96,7.5z"/>
</g>
<polygon class="st10" points="241.96,207.5 241.96,27.5 61.96,27.5 "/>
<path class="st3" d="M81.96,112.5v-45c0-11.03,8.97-20,20-20h100c11.03,0,20,8.97,20,20v45h-10"/>
<path class="st3" d="M81.96,127.5v40c0,11.03,8.97,20,20,20h100c11.03,0,20-8.97,20-20v-40h-10"/>
<path class="st3" d="M101.96,177.5c-5.52,0-10-4.48-10-10v-100c0-5.52,4.48-10,10-10h100c5.52,0,10,4.48,10,10v100
	c0,5.52-4.48,10-10,10H101.96z"/>
<g class="st0">
	<polygon class="st1" points="131.96,77.5 141.96,127.5 161.96,127.5 171.96,77.5 	"/>
</g>
<rect x="141.96" y="142.5" class="st0" width="20" height="15"/>
<path class="st9" d="M146.96,142.5v-5c0-2.76,2.24-5,5-5s5,2.24,5,5v5"/>
<rect x="16.96" y="27.5" class="st5" width="25" height="180"/>
<text transform="matrix(1 0 0 1 24.1274 47.5)" class="st6 st7 st8">4</text>
<g class="st0">
	<path class="st2" d="M241.97,7.5h-180c-11.05,0-20,8.95-20,20v180c0,11.05,8.95,20,20,20h180c11.05,0,20-8.95,20-20v-180
		C261.97,16.45,253.02,7.5,241.97,7.5z M251.97,197.5c0,11.05-8.95,20-20,20h-160c-11.05,0-20-8.95-20-20v-160
		c0-11.05,8.95-20,20-20h160c11.05,0,20,8.95,20,20V197.5z"/>
</g>
<g class="st0">
	<path class="st1" d="M241.97,11.5c8.82,0,16,7.18,16,16v180c0,8.82-7.18,16-16,16h-180c-8.82,0-16-7.18-16-16v-180
		c0-8.82,7.18-16,16-16H241.97 M241.97,7.5h-180c-11.05,0-20,8.95-20,20v180c0,11.05,8.95,20,20,20h180c11.05,0,20-8.95,20-20v-180
		C261.97,16.45,253.02,7.5,241.97,7.5L241.97,7.5z"/>
</g>
<polygon class="st0" points="131.97,77.5 171.97,77.5 161.97,127.5 141.97,127.5 "/>
<circle class="st0" cx="151.97" cy="147.5" r="10"/>
<g class="st0">
	<rect x="63.97" y="29.5" class="st2" width="71" height="176"/>
	<path class="st1" d="M132.97,31.5v172h-67v-172H132.97 M136.97,27.5h-75v180h75V27.5L136.97,27.5z"/>
</g>
<g class="st0">
	<rect x="168.97" y="29.5" class="st2" width="71" height="176"/>
	<path class="st1" d="M237.97,31.5v172h-67v-172H237.97 M241.97,27.5h-75v180h75V27.5L241.97,27.5z"/>
</g>
<rect x="16.96" y="27.5" class="st5" width="25" height="180"/>
<text transform="matrix(1 0 0 1 24.3463 47.5)" class="st6 st7 st8">5</text>
<g class="st0">
	<path class="st1" d="M241.97,227.5h-180c-11.05,0-20-8.95-20-20v-50h220v50C261.97,218.55,253.02,227.5,241.97,227.5z"/>
</g>
<g class="st0">
	<path class="st2" d="M241.97,7.5h-180c-11.05,0-20,8.95-20,20v180c0,11.05,8.95,20,20,20h180c11.05,0,20-8.95,20-20v-180
		C261.97,16.45,253.02,7.5,241.97,7.5z M251.97,197.5c0,11.05-8.95,20-20,20h-160c-11.05,0-20-8.95-20-20v-160
		c0-11.05,8.95-20,20-20h160c11.05,0,20,8.95,20,20V197.5z"/>
</g>
<g class="st0">
	<path class="st1" d="M241.97,11.5c8.82,0,16,7.18,16,16v180c0,8.82-7.18,16-16,16h-180c-8.82,0-16-7.18-16-16v-180
		c0-8.82,7.18-16,16-16H241.97 M241.97,7.5h-180c-11.05,0-20,8.95-20,20v180c0,11.05,8.95,20,20,20h180c11.05,0,20-8.95,20-20v-180
		C261.97,16.45,253.02,7.5,241.97,7.5L241.97,7.5z"/>
</g>
<polygon class="st0" points="149.47,146.67 131.97,142.5 131.97,150.41 "/>
<polygon class="st0" points="124.63,85.85 162.21,72.17 169.92,122.57 151.12,129.41 "/>
<circle class="st0" cx="176.97" cy="147.5" r="10"/>
<rect x="16.96" y="27.5" class="st5" width="25" height="180"/>
<text transform="matrix(1 0 0 1 24.5172 47.5)" class="st6 st7 st8">6</text>
<g>
	<path d="M241.58,227.74h-180c-11.05,0-20-8.95-20-20v-50h220v50C261.58,218.79,252.62,227.74,241.58,227.74z"/>
</g>
<rect x="46.58" y="232.74" class="st11" width="235" height="35"/>
<text transform="matrix(1 0 0 1 46.5785 244.4181)"><tspan x="0" y="0" class="st12 st8">▲ </tspan><tspan x="20.83" y="0" class="st13 st8">Adverse weather</tspan><tspan x="0" y="16.2" class="st13 st8">preparation/intervention</tspan></text>
<path class="st14" d="M151.58,65.24h66.4c3.85,0,6.25,4.17,4.33,7.5l-33.2,57.5l-33.2,57.5c-1.92,3.33-6.74,3.33-8.66,0l-33.2-57.5
	l-33.2-57.5c-1.92-3.33,0.48-7.5,4.33-7.5H151.58z"/>
<g>
	<polygon points="131.58,77.74 141.58,127.74 161.58,127.74 171.58,77.74 	"/>
	<circle cx="151.58" cy="147.74" r="10"/>
</g>
<line class="st15" x1="56.58" y1="22.74" x2="56.58" y2="37.74"/>
<line class="st15" x1="56.58" y1="47.74" x2="56.58" y2="62.74"/>
<line class="st15" x1="66.58" y1="37.74" x2="66.58" y2="52.74"/>
<line class="st15" x1="66.58" y1="12.74" x2="66.58" y2="27.74"/>
<line class="st15" x1="76.58" y1="22.74" x2="76.58" y2="37.74"/>
<line class="st15" x1="76.58" y1="47.74" x2="76.58" y2="62.74"/>
<line class="st15" x1="86.58" y1="37.74" x2="86.58" y2="52.74"/>
<line class="st15" x1="86.58" y1="12.74" x2="86.58" y2="27.74"/>
<line class="st15" x1="96.58" y1="22.74" x2="96.58" y2="37.74"/>
<line class="st15" x1="96.58" y1="47.74" x2="96.58" y2="62.74"/>
<line class="st15" x1="106.58" y1="37.74" x2="106.58" y2="52.74"/>
<line class="st15" x1="106.58" y1="12.74" x2="106.58" y2="27.74"/>
<line class="st15" x1="116.58" y1="22.74" x2="116.58" y2="37.74"/>
<line class="st15" x1="116.58" y1="47.74" x2="116.58" y2="62.74"/>
<line class="st15" x1="126.58" y1="37.74" x2="126.58" y2="52.74"/>
<line class="st15" x1="126.58" y1="12.74" x2="126.58" y2="27.74"/>
<line class="st15" x1="136.58" y1="22.74" x2="136.58" y2="37.74"/>
<line class="st15" x1="136.58" y1="47.74" x2="136.58" y2="62.74"/>
<line class="st15" x1="146.58" y1="37.74" x2="146.58" y2="52.74"/>
<line class="st15" x1="146.58" y1="12.74" x2="146.58" y2="27.74"/>
<line class="st15" x1="156.58" y1="22.74" x2="156.58" y2="37.74"/>
<line class="st15" x1="156.58" y1="47.74" x2="156.58" y2="62.74"/>
<line class="st15" x1="166.58" y1="37.74" x2="166.58" y2="52.74"/>
<line class="st15" x1="166.58" y1="12.74" x2="166.58" y2="27.74"/>
<line class="st15" x1="176.58" y1="22.74" x2="176.58" y2="37.74"/>
<line class="st15" x1="176.58" y1="47.74" x2="176.58" y2="62.74"/>
<line class="st15" x1="186.58" y1="37.74" x2="186.58" y2="52.74"/>
<line class="st15" x1="186.58" y1="12.74" x2="186.58" y2="27.74"/>
<line class="st15" x1="196.58" y1="22.74" x2="196.58" y2="37.74"/>
<line class="st15" x1="196.58" y1="47.74" x2="196.58" y2="62.74"/>
<line class="st15" x1="206.58" y1="37.74" x2="206.58" y2="52.74"/>
<line class="st15" x1="206.58" y1="12.74" x2="206.58" y2="27.74"/>
<line class="st15" x1="216.58" y1="22.74" x2="216.58" y2="37.74"/>
<line class="st15" x1="216.58" y1="47.74" x2="216.58" y2="62.74"/>
<line class="st15" x1="226.58" y1="37.74" x2="226.58" y2="52.74"/>
<line class="st15" x1="226.58" y1="12.74" x2="226.58" y2="27.74"/>
<line class="st15" x1="236.58" y1="22.74" x2="236.58" y2="37.74"/>
<line class="st15" x1="236.58" y1="47.74" x2="236.58" y2="62.74"/>
<line class="st15" x1="246.58" y1="37.74" x2="246.58" y2="52.74"/>
<line class="st15" x1="246.58" y1="12.74" x2="246.58" y2="27.74"/>
<line class="st15" x1="226.58" y1="87.74" x2="226.58" y2="102.74"/>
<line class="st15" x1="226.58" y1="62.74" x2="226.58" y2="77.74"/>
<line class="st15" x1="236.58" y1="72.74" x2="236.58" y2="87.74"/>
<line class="st15" x1="236.58" y1="97.74" x2="236.58" y2="112.74"/>
<line class="st15" x1="246.58" y1="87.74" x2="246.58" y2="102.74"/>
<line class="st15" x1="246.58" y1="62.74" x2="246.58" y2="77.74"/>
<line class="st15" x1="226.58" y1="112.74" x2="226.58" y2="127.74"/>
<line class="st15" x1="236.58" y1="122.74" x2="236.58" y2="137.74"/>
<line class="st15" x1="246.58" y1="112.74" x2="246.58" y2="127.74"/>
<line class="st15" x1="226.58" y1="137.74" x2="226.58" y2="152.74"/>
<line class="st15" x1="236.58" y1="147.74" x2="236.58" y2="162.74"/>
<line class="st15" x1="246.58" y1="137.74" x2="246.58" y2="152.74"/>
<line class="st15" x1="56.58" y1="72.74" x2="56.58" y2="87.74"/>
<line class="st15" x1="66.58" y1="62.74" x2="66.58" y2="77.74"/>
<line class="st15" x1="76.58" y1="72.74" x2="76.58" y2="87.74"/>
<line class="st15" x1="56.58" y1="97.74" x2="56.58" y2="112.74"/>
<line class="st15" x1="66.58" y1="87.74" x2="66.58" y2="102.74"/>
<line class="st15" x1="76.58" y1="97.74" x2="76.58" y2="112.74"/>
<line class="st15" x1="56.58" y1="122.74" x2="56.58" y2="137.74"/>
<line class="st15" x1="66.58" y1="112.74" x2="66.58" y2="127.74"/>
<line class="st15" x1="76.58" y1="122.74" x2="76.58" y2="137.74"/>
<line class="st15" x1="56.58" y1="147.74" x2="56.58" y2="162.74"/>
<line class="st15" x1="66.58" y1="137.74" x2="66.58" y2="152.74"/>
<line class="st15" x1="76.58" y1="147.74" x2="76.58" y2="162.74"/>
<g>
	<path class="st16" d="M241.58,7.74h-180c-11.05,0-20,8.95-20,20v180c0,11.05,8.95,20,20,20h180c11.05,0,20-8.95,20-20v-180
		C261.58,16.7,252.62,7.74,241.58,7.74z M251.58,197.74c0,11.05-8.95,20-20,20h-160c-11.05,0-20-8.95-20-20v-160
		c0-11.05,8.95-20,20-20h160c11.05,0,20,8.95,20,20V197.74z"/>
</g>
<g>
	<path class="st16" d="M151.58,35.74c-21.38,0-40.96-5.05-46.56-12c-0.38-0.48-0.96-0.75-1.56-0.75c-0.15,0-0.29,0.02-0.44,0.05
		c-7.89,1.77-17.04,2.7-26.44,2.7c-11.8,0-23.04-1.46-31.91-4.12c2.55-7.08,9.25-11.88,16.91-11.88h180
		c7.66,0,14.37,4.8,16.91,11.88c-8.87,2.66-20.11,4.12-31.91,4.12c-9.41,0-18.55-0.93-26.45-2.7c-0.15-0.03-0.29-0.05-0.44-0.05
		c-0.6,0-1.17,0.27-1.56,0.75C192.54,30.7,172.96,35.74,151.58,35.74z"/>
	<path d="M241.58,11.74c6.06,0,11.46,3.39,14.16,8.58c-8.32,2.22-18.5,3.42-29.16,3.42c-9.26,0-18.26-0.92-26.01-2.65
		c-0.29-0.07-0.58-0.1-0.87-0.1c-1.2,0-2.35,0.54-3.12,1.49c-4.5,5.59-21.4,11.26-45,11.26s-40.5-5.66-45-11.26
		c-0.77-0.96-1.92-1.49-3.12-1.49c-0.29,0-0.58,0.03-0.87,0.1c-7.75,1.73-16.75,2.65-26.01,2.65c-10.67,0-20.84-1.2-29.16-3.42
		c2.7-5.19,8.1-8.58,14.16-8.58H241.58 M241.58,7.74h-180c-9.39,0-17.24,6.47-19.39,15.2c8.96,2.98,21.06,4.8,34.39,4.8
		c9.9,0,19.12-1.01,26.88-2.75c5.92,7.35,25.21,12.75,48.12,12.75s42.2-5.39,48.12-12.75c7.76,1.74,16.98,2.75,26.88,2.75
		c13.33,0,25.43-1.83,34.39-4.8C258.82,14.22,250.96,7.74,241.58,7.74L241.58,7.74z"/>
</g>
<g>
	<path d="M241.58,11.74c8.82,0,16,7.18,16,16v180c0,8.82-7.18,16-16,16h-180c-8.82,0-16-7.18-16-16v-180c0-8.82,7.18-16,16-16
		H241.58 M241.58,7.74h-180c-11.05,0-20,8.95-20,20v180c0,11.05,8.95,20,20,20h180c11.05,0,20-8.95,20-20v-180
		C261.58,16.7,252.62,7.74,241.58,7.74L241.58,7.74z"/>
</g>
<rect x="16.57" y="27.74" class="st17" width="25" height="180"/>
<text transform="matrix(1 0 0 1 29.0661 32.7433)" class="st18"><tspan x="0" y="0" class="st16 st7 st19">        </tspan><tspan x="0" y="42.19" class="st16 st20 st21">YES</tspan></text>
<text transform="matrix(1 0 0 1 18.4915 47.7433)" class="st16 st7 st8">48</text>
</svg>
