<?xml version="1.0" encoding="utf-8"?>
<!-- Generator: Adobe Illustrator 23.0.6, SVG Export Plug-In . SVG Version: 6.00 Build 0)  -->
<svg version="1.1" id="Layer_1" xmlns="http://www.w3.org/2000/svg" xmlns:xlink="http://www.w3.org/1999/xlink" x="0px" y="0px"
	 viewBox="0 0 277.12 270" style="enable-background:new 0 0 277.12 270;" xml:space="preserve">
<style type="text/css">
	.st0{display:none;}
	.st1{display:inline;}
	.st2{display:inline;fill:#FFFFFF;}
	.st3{display:none;fill:#FFFFFF;stroke:#000000;stroke-width:4;stroke-linecap:round;stroke-linejoin:round;stroke-miterlimit:10;}
	.st4{display:none;fill:none;stroke:#FFFFFF;stroke-width:4;stroke-linecap:round;stroke-linejoin:round;stroke-miterlimit:10;}
	.st5{display:none;stroke:#000000;stroke-width:4;stroke-linecap:round;stroke-linejoin:round;stroke-miterlimit:10;}
	.st6{fill:#FFFFFF;}
	.st7{font-family:'Gilland-Bold';}
	.st8{font-size:18px;glyph-orientation-vertical:1;writing-mode:tb;}
	.st9{font-family:'Gilland-Regular';}
	.st10{font-size:18px;glyph-orientation-vertical:0;writing-mode:tb;}
	.st11{display:none;fill:#FFFFFF;enable-background:new    ;}
	.st12{font-size:18px;}
	.st13{display:none;fill:none;stroke:#000000;stroke-width:4;stroke-linecap:round;stroke-linejoin:round;stroke-miterlimit:10;}
	.st14{display:none;fill:#FFFFFF;}
	.st15{fill:none;stroke:#FFFFFF;stroke-width:5;stroke-linecap:round;stroke-linejoin:round;stroke-miterlimit:10;}
	.st16{font-family:'AppleSymbols';}
	.st17{font-family:'SVBasicManual';}
	.st18{stroke:#000000;stroke-width:4;stroke-linecap:round;stroke-linejoin:round;stroke-miterlimit:10;}
</style>
<g class="st0">
	<path class="st1" d="M241.96,227.5h-180c-11.05,0-20-8.95-20-20v-70h220v70C261.96,218.55,253.01,227.5,241.96,227.5z"/>
</g>
<g class="st0">
	<path class="st2" d="M241.96,7.5h-180c-11.05,0-20,8.95-20,20v180c0,11.05,8.95,20,20,20h180c11.05,0,20-8.95,20-20v-180
		C261.96,16.45,253.01,7.5,241.96,7.5z M251.96,197.5c0,11.05-8.95,20-20,20h-160c-11.05,0-20-8.95-20-20v-160
		c0-11.05,8.95-20,20-20h160c11.05,0,20,8.95,20,20V197.5z"/>
</g>
<g class="st0">
	<path class="st1" d="M241.96,11.5c8.82,0,16,7.18,16,16v180c0,8.82-7.18,16-16,16h-180c-8.82,0-16-7.18-16-16v-180
		c0-8.82,7.18-16,16-16H241.96 M241.96,7.5h-180c-11.05,0-20,8.95-20,20v180c0,11.05,8.95,20,20,20h180c11.05,0,20-8.95,20-20v-180
		C261.96,16.45,253.01,7.5,241.96,7.5L241.96,7.5z"/>
</g>
<path class="st3" d="M151.96,65h66.4c3.85,0,6.25,4.17,4.33,7.5l-33.2,57.5l-33.2,57.5c-1.92,3.33-6.74,3.33-8.66,0l-33.2-57.5
	l-33.2-57.5c-1.92-3.33,0.48-7.5,4.33-7.5H151.96z"/>
<path class="st0" d="M201.96,157.5c0,4.6-22.39,8.33-50,8.33s-50-3.73-50-8.33v50h100V157.5z"/>
<path class="st4" d="M181.96,176.34c-9.26,0.75-19.39,1.16-30,1.16s-20.74-0.41-30-1.16"/>
<path class="st4" d="M201.96,149.01c18.29,2.93,30,7.44,30,12.49c0,2.81-3.63,5.46-10,7.75"/>
<path class="st4" d="M81.96,169.25c-6.37-2.3-10-4.94-10-7.75c0-5.05,11.71-9.56,30-12.49"/>
<ellipse class="st4" cx="151.96" cy="157.5" rx="50" ry="10"/>
<g class="st0">
	<polygon class="st1" points="131.96,77.5 141.96,127.5 161.96,127.5 171.96,77.5 	"/>
	<circle class="st1" cx="151.96" cy="147.5" r="10"/>
</g>
<path class="st4" d="M151.96,147.5"/>
<rect x="16.96" y="27.5" class="st5" width="25" height="180"/>
<text transform="matrix(1 0 0 1 29.4641 32.5)" class="st6 st7 st8">        </text>
<text transform="matrix(1 0 0 1 29.4642 74.69)" class="st6 st9 st10">NO</text>
<text transform="matrix(1 0 0 1 25.6215 47.5)" class="st11 st7 st12">1</text>
<g class="st0">
	<path class="st2" d="M241.96,7.5h-180c-11.05,0-20,8.95-20,20v180c0,11.05,8.95,20,20,20h180c11.05,0,20-8.95,20-20v-180
		C261.96,16.45,253.01,7.5,241.96,7.5z M251.96,197.5c0,11.05-8.95,20-20,20h-160c-11.05,0-20-8.95-20-20v-160
		c0-11.05,8.95-20,20-20h160c11.05,0,20,8.95,20,20V197.5z"/>
</g>
<g class="st0">
	<path class="st1" d="M241.96,11.5c8.82,0,16,7.18,16,16v180c0,8.82-7.18,16-16,16h-180c-8.82,0-16-7.18-16-16v-180
		c0-8.82,7.18-16,16-16H241.96 M241.96,7.5h-180c-11.05,0-20,8.95-20,20v180c0,11.05,8.95,20,20,20h180c11.05,0,20-8.95,20-20v-180
		C261.96,16.45,253.01,7.5,241.96,7.5L241.96,7.5z"/>
</g>
<rect x="131.96" y="47.5" class="st5" width="40" height="40"/>
<rect x="131.96" y="147.5" class="st13" width="40" height="40"/>
<path class="st13" d="M171.96,187.5c38.66,0,70-31.34,70-70s-31.34-70-70-70v40c16.57,0,30,13.43,30,30s-13.43,30-30,30V187.5z"/>
<rect x="101.96" y="47.5" class="st5" width="20" height="40"/>
<rect x="81.96" y="47.5" class="st5" width="10" height="40"/>
<rect x="101.96" y="147.5" class="st5" width="20" height="40"/>
<rect x="81.96" y="147.5" class="st5" width="10" height="40"/>
<rect x="71.97" y="47.5" class="st5" width="0.01" height="40"/>
<rect x="71.97" y="147.5" class="st5" width="0.01" height="40"/>
<rect x="16.96" y="27.5" class="st5" width="25" height="180"/>
<text transform="matrix(1 0 0 1 29.4641 32.5)" class="st6 st7 st8">        </text>
<text transform="matrix(1 0 0 1 29.4642 74.69)" class="st6 st9 st10">NO</text>
<text transform="matrix(1 0 0 1 24.2446 47.5)" class="st11 st7 st12">2</text>
<g class="st0">
	<g class="st1">
		<path d="M241.96,7.5h-180c-11.05,0-20,8.95-20,20v180c0,11.05,8.95,20,20,20h180c11.05,0,20-8.95,20-20v-180
			C261.96,16.45,253.01,7.5,241.96,7.5z M251.96,197.5c0,11.05-8.95,20-20,20h-160c-11.05,0-20-8.95-20-20v-160
			c0-11.05,8.95-20,20-20h160c11.05,0,20,8.95,20,20V197.5z"/>
	</g>
	<g class="st1">
		<path d="M241.96,11.5c8.82,0,16,7.18,16,16v180c0,8.82-7.18,16-16,16h-180c-8.82,0-16-7.18-16-16v-180c0-8.82,7.18-16,16-16
			H241.96 M241.96,7.5h-180c-11.05,0-20,8.95-20,20v180c0,11.05,8.95,20,20,20h180c11.05,0,20-8.95,20-20v-180
			C261.96,16.45,253.01,7.5,241.96,7.5L241.96,7.5z"/>
	</g>
</g>
<rect x="61.96" y="27.5" class="st3" width="85" height="180"/>
<rect x="156.96" y="27.5" class="st3" width="85" height="180"/>
<rect x="71.96" y="37.5" class="st0" width="75" height="10"/>
<rect x="71.96" y="57.5" class="st0" width="75" height="10"/>
<rect x="71.96" y="77.5" class="st0" width="75" height="10"/>
<rect x="71.96" y="97.5" class="st0" width="75" height="10"/>
<rect x="71.96" y="117.5" class="st0" width="75" height="10"/>
<path class="st0" d="M121.96,172.5h-30c-5.5,0-10-4.5-10-10l0,0c0-5.5,4.5-10,10-10h30c5.5,0,10,4.5,10,10l0,0
	C131.96,168,127.46,172.5,121.96,172.5z"/>
<path class="st0" d="M211.96,47.5h-10c-5.5,0-10,4.5-10,10v20c0,5.5,4.5,10,10,10h10c5.5,0,10-4.5,10-10v-20
	C221.96,52,217.46,47.5,211.96,47.5z"/>
<path class="st0" d="M211.96,137.5h-10c-5.5,0-10,4.5-10,10v20c0,5.5,4.5,10,10,10h10c5.5,0,10-4.5,10-10v-20
	C221.96,142,217.46,137.5,211.96,137.5z"/>
<rect x="201.96" y="77.5" class="st0" width="10" height="70"/>
<line class="st13" x1="211.96" y1="157.5" x2="211.96" y2="207.5"/>
<rect x="16.96" y="27.5" class="st5" width="25" height="180"/>
<text transform="matrix(1 0 0 1 29.4641 32.5)" class="st6 st7 st8">        </text>
<text transform="matrix(1 0 0 1 29.4642 74.69)" class="st6 st9 st10">NO</text>
<text transform="matrix(1 0 0 1 24.4516 47.5)" class="st11 st7 st12">3</text>
<rect x="51.96" y="17.5" class="st0" width="200" height="200"/>
<g class="st0">
	<path class="st2" d="M241.96,7.5h-180c-11.05,0-20,8.95-20,20v180c0,11.05,8.95,20,20,20h180c11.05,0,20-8.95,20-20v-180
		C261.96,16.45,253.01,7.5,241.96,7.5z M251.96,197.5c0,11.05-8.95,20-20,20h-160c-11.05,0-20-8.95-20-20v-160
		c0-11.05,8.95-20,20-20h160c11.05,0,20,8.95,20,20V197.5z"/>
</g>
<g class="st0">
	<path class="st1" d="M241.96,11.5c8.82,0,16,7.18,16,16v180c0,8.82-7.18,16-16,16h-180c-8.82,0-16-7.18-16-16v-180
		c0-8.82,7.18-16,16-16H241.96 M241.96,7.5h-180c-11.05,0-20,8.95-20,20v180c0,11.05,8.95,20,20,20h180c11.05,0,20-8.95,20-20v-180
		C261.96,16.45,253.01,7.5,241.96,7.5L241.96,7.5z"/>
</g>
<polygon class="st14" points="241.96,207.5 241.96,27.5 61.96,27.5 "/>
<path class="st3" d="M81.96,112.5v-45c0-11.03,8.97-20,20-20h100c11.03,0,20,8.97,20,20v45h-10"/>
<path class="st3" d="M81.96,127.5v40c0,11.03,8.97,20,20,20h100c11.03,0,20-8.97,20-20v-40h-10"/>
<path class="st3" d="M101.96,177.5c-5.52,0-10-4.48-10-10v-100c0-5.52,4.48-10,10-10h100c5.52,0,10,4.48,10,10v100
	c0,5.52-4.48,10-10,10H101.96z"/>
<g class="st0">
	<polygon class="st1" points="131.96,77.5 141.96,127.5 161.96,127.5 171.96,77.5 	"/>
</g>
<rect x="141.96" y="142.5" class="st0" width="20" height="15"/>
<path class="st13" d="M146.96,142.5v-5c0-2.76,2.24-5,5-5s5,2.24,5,5v5"/>
<rect x="16.96" y="27.5" class="st5" width="25" height="180"/>
<text transform="matrix(1 0 0 1 29.4641 32.5)" class="st6 st7 st8">        </text>
<text transform="matrix(1 0 0 1 29.4642 74.69)" class="st6 st9 st10">NO</text>
<text transform="matrix(1 0 0 1 24.1274 47.5)" class="st11 st7 st12">4</text>
<g class="st0">
	<path class="st2" d="M241.97,7.5h-180c-11.05,0-20,8.95-20,20v180c0,11.05,8.95,20,20,20h180c11.05,0,20-8.95,20-20v-180
		C261.97,16.45,253.02,7.5,241.97,7.5z M251.97,197.5c0,11.05-8.95,20-20,20h-160c-11.05,0-20-8.95-20-20v-160
		c0-11.05,8.95-20,20-20h160c11.05,0,20,8.95,20,20V197.5z"/>
</g>
<g class="st0">
	<path class="st1" d="M241.97,11.5c8.82,0,16,7.18,16,16v180c0,8.82-7.18,16-16,16h-180c-8.82,0-16-7.18-16-16v-180
		c0-8.82,7.18-16,16-16H241.97 M241.97,7.5h-180c-11.05,0-20,8.95-20,20v180c0,11.05,8.95,20,20,20h180c11.05,0,20-8.95,20-20v-180
		C261.97,16.45,253.02,7.5,241.97,7.5L241.97,7.5z"/>
</g>
<polygon class="st0" points="131.97,77.5 171.97,77.5 161.97,127.5 141.97,127.5 "/>
<circle class="st0" cx="151.97" cy="147.5" r="10"/>
<g class="st0">
	<rect x="63.97" y="29.5" class="st2" width="71" height="176"/>
	<path class="st1" d="M132.97,31.5v172h-67v-172H132.97 M136.97,27.5h-75v180h75V27.5L136.97,27.5z"/>
</g>
<g class="st0">
	<rect x="168.97" y="29.5" class="st2" width="71" height="176"/>
	<path class="st1" d="M237.97,31.5v172h-67v-172H237.97 M241.97,27.5h-75v180h75V27.5L241.97,27.5z"/>
</g>
<rect x="16.96" y="27.5" class="st5" width="25" height="180"/>
<text transform="matrix(1 0 0 1 29.4579 32.5)" class="st6 st7 st8">        </text>
<text transform="matrix(1 0 0 1 29.458 74.69)" class="st6 st9 st10">NO</text>
<text transform="matrix(1 0 0 1 24.3463 47.5)" class="st11 st7 st12">5</text>
<g class="st0">
	<path class="st1" d="M241.97,227.5h-180c-11.05,0-20-8.95-20-20v-50h220v50C261.97,218.55,253.02,227.5,241.97,227.5z"/>
</g>
<g class="st0">
	<path class="st2" d="M241.97,7.5h-180c-11.05,0-20,8.95-20,20v180c0,11.05,8.95,20,20,20h180c11.05,0,20-8.95,20-20v-180
		C261.97,16.45,253.02,7.5,241.97,7.5z M251.97,197.5c0,11.05-8.95,20-20,20h-160c-11.05,0-20-8.95-20-20v-160
		c0-11.05,8.95-20,20-20h160c11.05,0,20,8.95,20,20V197.5z"/>
</g>
<g class="st0">
	<path class="st1" d="M241.97,11.5c8.82,0,16,7.18,16,16v180c0,8.82-7.18,16-16,16h-180c-8.82,0-16-7.18-16-16v-180
		c0-8.82,7.18-16,16-16H241.97 M241.97,7.5h-180c-11.05,0-20,8.95-20,20v180c0,11.05,8.95,20,20,20h180c11.05,0,20-8.95,20-20v-180
		C261.97,16.45,253.02,7.5,241.97,7.5L241.97,7.5z"/>
</g>
<polygon class="st0" points="149.47,146.67 131.97,142.5 131.97,150.41 "/>
<polygon class="st0" points="124.63,85.85 162.21,72.17 169.92,122.57 151.12,129.41 "/>
<circle class="st0" cx="176.97" cy="147.5" r="10"/>
<rect x="16.96" y="27.5" class="st5" width="25" height="180"/>
<text transform="matrix(1 0 0 1 29.4579 32.5)" class="st6 st7 st8">        </text>
<text transform="matrix(1 0 0 1 29.458 74.69)" class="st6 st9 st10">NO</text>
<text transform="matrix(1 0 0 1 24.5172 47.5)" class="st11 st7 st12">6</text>
<g>
	<path d="M240.97,19.2l12,6v52.53v10v45v55v9.23l-8.71,21.77H60.09l-9.12-36.49v-69.51v-35v-48l12-9v57c0,2.21,1.79,4,4,4h170
		c2.21,0,4-1.79,4-4V19.2 M66.97,181.73h170c2.21,0,4-1.79,4-4v-60c0-2.21-1.79-4-4-4h-170c-2.21,0-4,1.79-4,4v60
		C62.97,179.93,64.76,181.73,66.97,181.73 M236.97,12.73v65h-170v-65l-20,15v50v35v70l10,40h190l10-25v-10v-55v-45v-10v-55
		L236.97,12.73L236.97,12.73z M66.97,177.73v-60h170v60H66.97L66.97,177.73z"/>
</g>
<g>
	<g>
		<path d="M61.97,229.72c-12.13,0-22-9.87-22-22v-180c0-12.13,9.87-22,22-22h180c12.13,0,22,9.87,22,22v180c0,12.13-9.87,22-22,22
			H61.97z M71.97,19.73c-9.93,0-18,8.07-18,18v160c0,9.92,8.07,18,18,18h160c9.92,0,18-8.08,18-18v-160c0-9.93-8.08-18-18-18
			C231.97,19.73,71.97,19.73,71.97,19.73z"/>
		<path class="st6" d="M241.97,7.73c11.05,0,20,8.95,20,20v180c0,11.05-8.95,20-20,20h-180c-11.05,0-20-8.95-20-20v-180
			c0-11.05,8.95-20,20-20L241.97,7.73 M71.97,217.73h160c11.05,0,20-8.95,20-20v-160c0-11.05-8.95-20-20-20h-160
			c-11.05,0-20,8.95-20,20v160C51.97,208.77,60.92,217.73,71.97,217.73 M241.97,3.73h-180c-13.23,0-24,10.77-24,24v180
			c0,13.23,10.77,24,24,24h180c13.23,0,24-10.77,24-24v-180C265.97,14.49,255.2,3.73,241.97,3.73L241.97,3.73z M71.97,213.73
			c-8.82,0-16-7.18-16-16v-160c0-8.82,7.18-16,16-16h160c8.82,0,16,7.18,16,16v160c0,8.82-7.18,16-16,16H71.97L71.97,213.73z"/>
	</g>
	<g>
		<path d="M241.97,11.73c8.82,0,16,7.18,16,16v180c0,8.82-7.18,16-16,16h-180c-8.82,0-16-7.18-16-16v-180c0-8.82,7.18-16,16-16
			L241.97,11.73 M241.97,7.73h-180c-11.05,0-20,8.95-20,20v180c0,11.05,8.95,20,20,20h180c11.05,0,20-8.95,20-20v-180
			C261.97,16.68,253.02,7.73,241.97,7.73L241.97,7.73z"/>
	</g>
</g>
<g>
	<path d="M241.97,11.73c8.82,0,16,7.18,16,16v180c0,8.82-7.18,16-16,16h-180c-8.82,0-16-7.18-16-16v-180c0-8.82,7.18-16,16-16
		L241.97,11.73 M241.97,7.73h-180c-11.05,0-20,8.95-20,20v180c0,11.05,8.95,20,20,20h180c11.05,0,20-8.95,20-20v-180
		C261.97,16.68,253.02,7.73,241.97,7.73L241.97,7.73z"/>
</g>
<rect x="87.65" y="162.73" width="35" height="10"/>
<circle cx="87.65" cy="167.73" r="5"/>
<path d="M97.65,137.73v35h129.32v-15.66c0-5.26-4.07-9.62-9.32-9.99L97.65,137.73z"/>
<g>
	<path d="M95.15,160.22c-11.03,0-20-8.97-20-20s8.97-20,20-20s20,8.97,20,20S106.18,160.22,95.15,160.22z"/>
	<path class="st6" d="M95.15,122.73c9.66,0,17.5,7.84,17.5,17.5s-7.84,17.5-17.5,17.5s-17.5-7.84-17.5-17.5
		C77.65,130.56,85.49,122.73,95.15,122.73 M95.15,117.73c-12.41,0-22.5,10.09-22.5,22.5s10.09,22.5,22.5,22.5s22.5-10.09,22.5-22.5
		S107.56,117.73,95.15,117.73L95.15,117.73z"/>
</g>
<rect x="87.65" y="62.73" width="35" height="10"/>
<circle cx="87.65" cy="67.73" r="5"/>
<path d="M97.65,37.73v35h129.32V57.07c0-5.26-4.07-9.62-9.32-9.99L97.65,37.73z"/>
<g>
	<circle cx="95.15" cy="40.23" r="20"/>
	<path class="st6" d="M95.15,22.73c9.66,0,17.5,7.84,17.5,17.5s-7.84,17.5-17.5,17.5s-17.5-7.84-17.5-17.5S85.49,22.73,95.15,22.73
		 M95.15,17.73c-12.41,0-22.5,10.09-22.5,22.5s10.09,22.5,22.5,22.5s22.5-10.09,22.5-22.5S107.56,17.73,95.15,17.73L95.15,17.73z"/>
</g>
<path class="st15" d="M131.97,157.73c-5,10-17.84,17.5-27.5,17.5"/>
<path class="st15" d="M131.97,57.73c-5,10-17.84,17.5-27.5,17.5"/>
<text transform="matrix(1 0 0 1 41.9704 244.3999)" class="st16 st12">▲ </text>
<text transform="matrix(1 0 0 1 62.8004 244.3999)" class="st17 st12">Living quarters</text>
<text transform="matrix(1 0 0 1 41.9704 260.5999)" class="st17 st12">sleep/interaction</text>
<rect x="16.97" y="27.73" class="st18" width="25" height="180"/>
<text transform="matrix(1 0 0 1 29.4703 32.7251)" class="st6 st7 st8">        </text>
<text transform="matrix(1 0 0 1 29.4704 74.9151)" class="st6 st9 st10">NO</text>
<text transform="matrix(1 0 0 1 29.4703 110.9151)" class="st6 st9 st8">     </text>
<text transform="matrix(1 0 0 1 29.4704 139.9851)" class="st6 st9 st10">but</text>
<text transform="matrix(1 0 0 1 20.6145 47.7251)" class="st6 st7 st12">13</text>
</svg>
