<?xml version="1.0" encoding="utf-8"?>
<!-- Generator: Adobe Illustrator 23.0.6, SVG Export Plug-In . SVG Version: 6.00 Build 0)  -->
<svg version="1.1" id="Layer_1" xmlns="http://www.w3.org/2000/svg" xmlns:xlink="http://www.w3.org/1999/xlink" x="0px" y="0px"
	 viewBox="0 0 277.12 270" style="enable-background:new 0 0 277.12 270;" xml:space="preserve">
<style type="text/css">
	.st0{display:none;}
	.st1{display:inline;}
	.st2{display:inline;fill:#FFFFFF;}
	.st3{fill:none;}
	.st4{display:none;fill:#FFFFFF;stroke:#000000;stroke-width:4;stroke-linecap:round;stroke-linejoin:round;stroke-miterlimit:10;}
	.st5{display:none;fill:none;stroke:#FFFFFF;stroke-width:4;stroke-linecap:round;stroke-linejoin:round;stroke-miterlimit:10;}
	.st6{display:none;stroke:#000000;stroke-width:4;stroke-linecap:round;stroke-linejoin:round;stroke-miterlimit:10;}
	.st7{fill:#FFFFFF;}
	.st8{font-family:'Gilland-Bold';}
	.st9{font-size:18px;glyph-orientation-vertical:1;writing-mode:tb;}
	.st10{font-family:'Gilland-Regular';}
	.st11{font-size:18px;glyph-orientation-vertical:0;writing-mode:tb;}
	.st12{display:none;fill:#FFFFFF;enable-background:new    ;}
	.st13{font-size:18px;}
	.st14{display:none;fill:none;stroke:#000000;stroke-width:4;stroke-linecap:round;stroke-linejoin:round;stroke-miterlimit:10;}
	.st15{display:none;fill:#FFFFFF;}
	.st16{font-family:'AppleSymbols';}
	.st17{font-family:'SVBasicManual';}
	.st18{stroke:#FFFFFF;stroke-width:4;stroke-linecap:round;stroke-linejoin:round;stroke-miterlimit:10;}
	.st19{stroke:#000000;stroke-width:4;stroke-linecap:round;stroke-linejoin:round;stroke-miterlimit:10;}
</style>
<g class="st0">
	<path class="st1" d="M241.96,227.5h-180c-11.05,0-20-8.95-20-20v-70h220v70C261.96,218.55,253.01,227.5,241.96,227.5z"/>
</g>
<g class="st0">
	<path class="st2" d="M241.96,7.5h-180c-11.05,0-20,8.95-20,20v180c0,11.05,8.95,20,20,20h180c11.05,0,20-8.95,20-20v-180
		C261.96,16.45,253.01,7.5,241.96,7.5z M251.96,197.5c0,11.05-8.95,20-20,20h-160c-11.05,0-20-8.95-20-20v-160
		c0-11.05,8.95-20,20-20h160c11.05,0,20,8.95,20,20V197.5z"/>
</g>
<rect x="46.96" y="232.5" class="st3" width="212.5" height="45"/>
<g class="st0">
	<path class="st1" d="M241.96,11.5c8.82,0,16,7.18,16,16v180c0,8.82-7.18,16-16,16h-180c-8.82,0-16-7.18-16-16v-180
		c0-8.82,7.18-16,16-16H241.96 M241.96,7.5h-180c-11.05,0-20,8.95-20,20v180c0,11.05,8.95,20,20,20h180c11.05,0,20-8.95,20-20v-180
		C261.96,16.45,253.01,7.5,241.96,7.5L241.96,7.5z"/>
</g>
<path class="st4" d="M151.96,65h66.4c3.85,0,6.25,4.17,4.33,7.5l-33.2,57.5l-33.2,57.5c-1.92,3.33-6.74,3.33-8.66,0l-33.2-57.5
	l-33.2-57.5c-1.92-3.33,0.48-7.5,4.33-7.5H151.96z"/>
<path class="st0" d="M201.96,157.5c0,4.6-22.39,8.33-50,8.33s-50-3.73-50-8.33v50h100V157.5z"/>
<path class="st5" d="M181.96,176.34c-9.26,0.75-19.39,1.16-30,1.16s-20.74-0.41-30-1.16"/>
<path class="st5" d="M201.96,149.01c18.29,2.93,30,7.44,30,12.49c0,2.81-3.63,5.46-10,7.75"/>
<path class="st5" d="M81.96,169.25c-6.37-2.3-10-4.94-10-7.75c0-5.05,11.71-9.56,30-12.49"/>
<ellipse class="st5" cx="151.96" cy="157.5" rx="50" ry="10"/>
<g class="st0">
	<polygon class="st1" points="131.96,77.5 141.96,127.5 161.96,127.5 171.96,77.5 	"/>
	<circle class="st1" cx="151.96" cy="147.5" r="10"/>
</g>
<path class="st5" d="M151.96,147.5"/>
<rect x="16.96" y="27.5" class="st6" width="25" height="180"/>
<text transform="matrix(1 0 0 1 29.4641 32.5)" class="st7 st8 st9">        </text>
<text transform="matrix(1 0 0 1 29.4642 74.69)" class="st7 st10 st11">NO</text>
<text transform="matrix(1 0 0 1 25.6215 47.5)" class="st12 st8 st13">1</text>
<g class="st0">
	<path class="st2" d="M241.96,7.5h-180c-11.05,0-20,8.95-20,20v180c0,11.05,8.95,20,20,20h180c11.05,0,20-8.95,20-20v-180
		C261.96,16.45,253.01,7.5,241.96,7.5z M251.96,197.5c0,11.05-8.95,20-20,20h-160c-11.05,0-20-8.95-20-20v-160
		c0-11.05,8.95-20,20-20h160c11.05,0,20,8.95,20,20V197.5z"/>
</g>
<g class="st0">
	<path class="st1" d="M241.96,11.5c8.82,0,16,7.18,16,16v180c0,8.82-7.18,16-16,16h-180c-8.82,0-16-7.18-16-16v-180
		c0-8.82,7.18-16,16-16H241.96 M241.96,7.5h-180c-11.05,0-20,8.95-20,20v180c0,11.05,8.95,20,20,20h180c11.05,0,20-8.95,20-20v-180
		C261.96,16.45,253.01,7.5,241.96,7.5L241.96,7.5z"/>
</g>
<rect x="131.96" y="47.5" class="st6" width="40" height="40"/>
<rect x="131.96" y="147.5" class="st14" width="40" height="40"/>
<path class="st14" d="M171.96,187.5c38.66,0,70-31.34,70-70s-31.34-70-70-70v40c16.57,0,30,13.43,30,30s-13.43,30-30,30V187.5z"/>
<rect x="101.96" y="47.5" class="st6" width="20" height="40"/>
<rect x="81.96" y="47.5" class="st6" width="10" height="40"/>
<rect x="101.96" y="147.5" class="st6" width="20" height="40"/>
<rect x="81.96" y="147.5" class="st6" width="10" height="40"/>
<rect x="71.97" y="47.5" class="st6" width="0.01" height="40"/>
<rect x="71.97" y="147.5" class="st6" width="0.01" height="40"/>
<rect x="41.96" y="232.5" class="st3" width="210" height="35"/>
<rect x="16.96" y="27.5" class="st6" width="25" height="180"/>
<text transform="matrix(1 0 0 1 29.4641 32.5)" class="st7 st8 st9">        </text>
<text transform="matrix(1 0 0 1 29.4642 74.69)" class="st7 st10 st11">NO</text>
<text transform="matrix(1 0 0 1 24.2446 47.5)" class="st12 st8 st13">2</text>
<g class="st0">
	<g class="st1">
		<path d="M241.96,7.5h-180c-11.05,0-20,8.95-20,20v180c0,11.05,8.95,20,20,20h180c11.05,0,20-8.95,20-20v-180
			C261.96,16.45,253.01,7.5,241.96,7.5z M251.96,197.5c0,11.05-8.95,20-20,20h-160c-11.05,0-20-8.95-20-20v-160
			c0-11.05,8.95-20,20-20h160c11.05,0,20,8.95,20,20V197.5z"/>
	</g>
	<g class="st1">
		<path d="M241.96,11.5c8.82,0,16,7.18,16,16v180c0,8.82-7.18,16-16,16h-180c-8.82,0-16-7.18-16-16v-180c0-8.82,7.18-16,16-16
			H241.96 M241.96,7.5h-180c-11.05,0-20,8.95-20,20v180c0,11.05,8.95,20,20,20h180c11.05,0,20-8.95,20-20v-180
			C261.96,16.45,253.01,7.5,241.96,7.5L241.96,7.5z"/>
	</g>
</g>
<rect x="61.96" y="27.5" class="st4" width="85" height="180"/>
<rect x="156.96" y="27.5" class="st4" width="85" height="180"/>
<rect x="71.96" y="37.5" class="st0" width="75" height="10"/>
<rect x="71.96" y="57.5" class="st0" width="75" height="10"/>
<rect x="71.96" y="77.5" class="st0" width="75" height="10"/>
<rect x="71.96" y="97.5" class="st0" width="75" height="10"/>
<rect x="71.96" y="117.5" class="st0" width="75" height="10"/>
<path class="st0" d="M121.96,172.5h-30c-5.5,0-10-4.5-10-10l0,0c0-5.5,4.5-10,10-10h30c5.5,0,10,4.5,10,10l0,0
	C131.96,168,127.46,172.5,121.96,172.5z"/>
<path class="st0" d="M211.96,47.5h-10c-5.5,0-10,4.5-10,10v20c0,5.5,4.5,10,10,10h10c5.5,0,10-4.5,10-10v-20
	C221.96,52,217.46,47.5,211.96,47.5z"/>
<path class="st0" d="M211.96,137.5h-10c-5.5,0-10,4.5-10,10v20c0,5.5,4.5,10,10,10h10c5.5,0,10-4.5,10-10v-20
	C221.96,142,217.46,137.5,211.96,137.5z"/>
<rect x="201.96" y="77.5" class="st0" width="10" height="70"/>
<line class="st14" x1="211.96" y1="157.5" x2="211.96" y2="207.5"/>
<rect x="41.96" y="232.5" class="st3" width="180" height="35"/>
<rect x="16.96" y="27.5" class="st6" width="25" height="180"/>
<text transform="matrix(1 0 0 1 29.4641 32.5)" class="st7 st8 st9">        </text>
<text transform="matrix(1 0 0 1 29.4642 74.69)" class="st7 st10 st11">NO</text>
<text transform="matrix(1 0 0 1 24.4516 47.5)" class="st12 st8 st13">3</text>
<rect x="51.96" y="17.5" class="st0" width="200" height="200"/>
<rect x="41.96" y="232.5" class="st3" width="180" height="35"/>
<g class="st0">
	<path class="st2" d="M241.96,7.5h-180c-11.05,0-20,8.95-20,20v180c0,11.05,8.95,20,20,20h180c11.05,0,20-8.95,20-20v-180
		C261.96,16.45,253.01,7.5,241.96,7.5z M251.96,197.5c0,11.05-8.95,20-20,20h-160c-11.05,0-20-8.95-20-20v-160
		c0-11.05,8.95-20,20-20h160c11.05,0,20,8.95,20,20V197.5z"/>
</g>
<g class="st0">
	<path class="st1" d="M241.96,11.5c8.82,0,16,7.18,16,16v180c0,8.82-7.18,16-16,16h-180c-8.82,0-16-7.18-16-16v-180
		c0-8.82,7.18-16,16-16H241.96 M241.96,7.5h-180c-11.05,0-20,8.95-20,20v180c0,11.05,8.95,20,20,20h180c11.05,0,20-8.95,20-20v-180
		C261.96,16.45,253.01,7.5,241.96,7.5L241.96,7.5z"/>
</g>
<polygon class="st15" points="241.96,207.5 241.96,27.5 61.96,27.5 "/>
<path class="st4" d="M81.96,112.5v-45c0-11.03,8.97-20,20-20h100c11.03,0,20,8.97,20,20v45h-10"/>
<path class="st4" d="M81.96,127.5v40c0,11.03,8.97,20,20,20h100c11.03,0,20-8.97,20-20v-40h-10"/>
<path class="st4" d="M101.96,177.5c-5.52,0-10-4.48-10-10v-100c0-5.52,4.48-10,10-10h100c5.52,0,10,4.48,10,10v100
	c0,5.52-4.48,10-10,10H101.96z"/>
<g class="st0">
	<polygon class="st1" points="131.96,77.5 141.96,127.5 161.96,127.5 171.96,77.5 	"/>
</g>
<rect x="141.96" y="142.5" class="st0" width="20" height="15"/>
<path class="st14" d="M146.96,142.5v-5c0-2.76,2.24-5,5-5s5,2.24,5,5v5"/>
<rect x="16.96" y="27.5" class="st6" width="25" height="180"/>
<text transform="matrix(1 0 0 1 29.4641 32.5)" class="st7 st8 st9">        </text>
<text transform="matrix(1 0 0 1 29.4642 74.69)" class="st7 st10 st11">NO</text>
<text transform="matrix(1 0 0 1 24.1274 47.5)" class="st12 st8 st13">4</text>
<g class="st0">
	<path class="st2" d="M241.97,7.5h-180c-11.05,0-20,8.95-20,20v180c0,11.05,8.95,20,20,20h180c11.05,0,20-8.95,20-20v-180
		C261.97,16.45,253.02,7.5,241.97,7.5z M251.97,197.5c0,11.05-8.95,20-20,20h-160c-11.05,0-20-8.95-20-20v-160
		c0-11.05,8.95-20,20-20h160c11.05,0,20,8.95,20,20V197.5z"/>
</g>
<g class="st0">
	<path class="st1" d="M241.97,11.5c8.82,0,16,7.18,16,16v180c0,8.82-7.18,16-16,16h-180c-8.82,0-16-7.18-16-16v-180
		c0-8.82,7.18-16,16-16H241.97 M241.97,7.5h-180c-11.05,0-20,8.95-20,20v180c0,11.05,8.95,20,20,20h180c11.05,0,20-8.95,20-20v-180
		C261.97,16.45,253.02,7.5,241.97,7.5L241.97,7.5z"/>
</g>
<polygon class="st0" points="131.97,77.5 171.97,77.5 161.97,127.5 141.97,127.5 "/>
<circle class="st0" cx="151.97" cy="147.5" r="10"/>
<rect x="41.97" y="232.5" class="st3" width="215" height="35"/>
<g class="st0">
	<rect x="63.97" y="29.5" class="st2" width="71" height="176"/>
	<path class="st1" d="M132.97,31.5v172h-67v-172H132.97 M136.97,27.5h-75v180h75V27.5L136.97,27.5z"/>
</g>
<g class="st0">
	<rect x="168.97" y="29.5" class="st2" width="71" height="176"/>
	<path class="st1" d="M237.97,31.5v172h-67v-172H237.97 M241.97,27.5h-75v180h75V27.5L241.97,27.5z"/>
</g>
<rect x="16.96" y="27.5" class="st6" width="25" height="180"/>
<text transform="matrix(1 0 0 1 29.4579 32.5)" class="st7 st8 st9">        </text>
<text transform="matrix(1 0 0 1 29.458 74.69)" class="st7 st10 st11">NO</text>
<text transform="matrix(1 0 0 1 24.3463 47.5)" class="st12 st8 st13">5</text>
<g class="st0">
	<path class="st1" d="M241.97,227.5h-180c-11.05,0-20-8.95-20-20v-50h220v50C261.97,218.55,253.02,227.5,241.97,227.5z"/>
</g>
<g class="st0">
	<path class="st2" d="M241.97,7.5h-180c-11.05,0-20,8.95-20,20v180c0,11.05,8.95,20,20,20h180c11.05,0,20-8.95,20-20v-180
		C261.97,16.45,253.02,7.5,241.97,7.5z M251.97,197.5c0,11.05-8.95,20-20,20h-160c-11.05,0-20-8.95-20-20v-160
		c0-11.05,8.95-20,20-20h160c11.05,0,20,8.95,20,20V197.5z"/>
</g>
<g class="st0">
	<path class="st1" d="M241.97,11.5c8.82,0,16,7.18,16,16v180c0,8.82-7.18,16-16,16h-180c-8.82,0-16-7.18-16-16v-180
		c0-8.82,7.18-16,16-16H241.97 M241.97,7.5h-180c-11.05,0-20,8.95-20,20v180c0,11.05,8.95,20,20,20h180c11.05,0,20-8.95,20-20v-180
		C261.97,16.45,253.02,7.5,241.97,7.5L241.97,7.5z"/>
</g>
<rect x="41.97" y="232.5" class="st3" width="205" height="35"/>
<polygon class="st0" points="149.47,146.67 131.97,142.5 131.97,150.41 "/>
<polygon class="st0" points="124.63,85.85 162.21,72.17 169.92,122.57 151.12,129.41 "/>
<circle class="st0" cx="176.97" cy="147.5" r="10"/>
<rect x="16.96" y="27.5" class="st6" width="25" height="180"/>
<text transform="matrix(1 0 0 1 29.4579 32.5)" class="st7 st8 st9">        </text>
<text transform="matrix(1 0 0 1 29.458 74.69)" class="st7 st10 st11">NO</text>
<text transform="matrix(1 0 0 1 24.5172 47.5)" class="st12 st8 st13">6</text>
<rect x="41.71" y="232.59" class="st3" width="230" height="35"/>
<text transform="matrix(1 0 0 1 41.7138 244.2647)" class="st16 st13">▲ </text>
<text transform="matrix(1 0 0 1 62.5438 244.2647)" class="st17 st13">Biological hazard</text>
<text transform="matrix(1 0 0 1 41.7138 260.4647)" class="st17 st13">spoilage/transference</text>
<rect x="51.71" y="17.59" width="200" height="200"/>
<g>
	<g>
		<path class="st7" d="M241.71,7.59h-180c-11.05,0-20,8.95-20,20v180c0,11.05,8.95,20,20,20h180c11.05,0,20-8.95,20-20v-180
			C261.71,16.54,252.76,7.59,241.71,7.59z M251.71,197.59c0,11.05-8.95,20-20,20h-160c-11.05,0-20-8.95-20-20v-160
			c0-11.05,8.95-20,20-20h160c11.05,0,20,8.95,20,20V197.59z"/>
	</g>
	<g>
		<path d="M241.71,11.59c8.82,0,16,7.18,16,16v180c0,8.82-7.18,16-16,16h-180c-8.82,0-16-7.18-16-16v-180c0-8.82,7.18-16,16-16
			L241.71,11.59 M241.71,7.59h-180c-11.05,0-20,8.95-20,20v180c0,11.05,8.95,20,20,20h180c11.05,0,20-8.95,20-20v-180
			C261.71,16.54,252.76,7.59,241.71,7.59L241.71,7.59z"/>
	</g>
</g>
<path class="st18" d="M151.71,65.09h66.4c3.85,0,6.25,4.17,4.33,7.5l-33.2,57.5l-33.2,57.5c-1.92,3.33-6.74,3.33-8.66,0l-33.2-57.5
	l-33.2-57.5c-1.92-3.33,0.48-7.5,4.33-7.5H151.71z"/>
<polygon class="st7" points="131.71,77.59 171.71,77.59 161.71,127.59 141.71,127.59 "/>
<g>
	<path class="st7" d="M151.71,139.59c-0.82,0-1.55-0.5-1.86-1.26c-1.25-3.13-7.3-19.08-3.14-25.22c1.12-1.65,2.85-2.53,5-2.53
		s3.88,0.87,5,2.53c4.16,6.14-1.89,22.08-3.14,25.22C153.26,139.09,152.52,139.59,151.71,139.59z"/>
	<path d="M151.71,112.59c10,0,0,25,0,25S141.71,112.59,151.71,112.59 M151.71,108.59c-2.8,0-5.17,1.21-6.65,3.4
		c-4.6,6.8,1.09,22.45,2.94,27.08c0.61,1.52,2.08,2.51,3.71,2.51c1.64,0,3.11-1,3.71-2.51c1.85-4.63,7.54-20.28,2.94-27.08
		C156.88,109.8,154.51,108.59,151.71,108.59L151.71,108.59z"/>
</g>
<g>
	<path class="st7" d="M180.23,154.59c-7.7,0-18.79-4.4-19.26-4.59c-0.76-0.3-1.26-1.04-1.26-1.86s0.5-1.55,1.26-1.86
		c0.47-0.19,11.56-4.59,19.26-4.59c7.66,0,8.48,4.51,8.48,6.44S187.89,154.59,180.23,154.59z"/>
	<path d="M180.23,143.7c3.7,0,6.48,1.11,6.48,4.44s-2.78,4.44-6.48,4.44c-7.41,0-18.52-4.44-18.52-4.44S172.82,143.7,180.23,143.7
		 M180.23,139.7L180.23,139.7c-8.09,0-19.52,4.54-20.01,4.73c-1.52,0.61-2.51,2.08-2.51,3.71c0,1.64,1,3.11,2.51,3.71
		c0.48,0.19,11.92,4.73,20,4.73c9.73,0,10.48-6.46,10.48-8.44S189.96,139.7,180.23,139.7L180.23,139.7z"/>
</g>
<g>
	<path class="st7" d="M123.2,154.59c-7.65,0-8.48-4.51-8.48-6.44s0.83-6.44,8.48-6.44c7.7,0,18.79,4.4,19.26,4.59
		c0.76,0.3,1.26,1.04,1.26,1.86s-0.5,1.55-1.26,1.86C141.99,150.19,130.9,154.59,123.2,154.59z"/>
	<path d="M123.2,143.7c7.41,0,18.52,4.44,18.52,4.44s-11.11,4.44-18.52,4.44c-3.7,0-6.48-1.11-6.48-4.44
		C116.71,144.81,119.49,143.7,123.2,143.7 M123.2,139.7L123.2,139.7c-9.73,0-10.48,6.46-10.48,8.44s0.76,8.44,10.48,8.44
		c8.08,0,19.52-4.54,20-4.73c1.52-0.61,2.51-2.08,2.51-3.71c0-1.64-1-3.11-2.51-3.71C142.72,144.24,131.28,139.7,123.2,139.7
		L123.2,139.7z"/>
</g>
<path class="st7" d="M176.46,122.84c7.07,7.07-17.68,17.68-17.68,17.68S169.39,115.77,176.46,122.84z"/>
<g>
	<path class="st7" d="M173.28,176c-7.7,0-15.28-16.79-16.73-20.16c-0.32-0.75-0.15-1.62,0.42-2.2c0.38-0.38,0.89-0.59,1.41-0.59
		c0.27,0,0.53,0.05,0.79,0.16c3.1,1.33,18.65,8.33,20.05,15.61c0.38,1.96-0.23,3.8-1.75,5.32C176.27,175.36,174.82,176,173.28,176z"
		/>
	<path d="M158.39,155.05c0,0,24.75,10.61,17.68,17.68c-0.88,0.88-1.82,1.27-2.79,1.27C166.51,174,158.39,155.05,158.39,155.05
		 M158.39,151.05c-1.04,0-2.06,0.41-2.83,1.17c-1.16,1.16-1.49,2.9-0.85,4.4c0.09,0.2,2.18,5.05,5.16,9.97
		c4.72,7.78,8.98,11.4,13.4,11.4c2.08,0,4.02-0.84,5.62-2.44c1.98-1.98,2.8-4.51,2.3-7.11c-1.55-8.06-16.64-15.1-21.23-17.07
		C159.46,151.16,158.92,151.05,158.39,151.05L158.39,151.05z"/>
</g>
<path class="st7" d="M126.57,123.23c7.07-7.07,17.68,17.68,17.68,17.68S119.5,130.31,126.57,123.23z"/>
<g>
	<path class="st7" d="M129.75,175.6c-1.56,0-2.97-0.62-4.2-1.86c-1.52-1.52-2.13-3.36-1.75-5.32c1.4-7.28,16.95-14.28,20.05-15.61
		c0.25-0.11,0.52-0.16,0.79-0.16c0.52,0,1.03,0.2,1.41,0.59c0.58,0.58,0.75,1.45,0.42,2.2C145.03,158.81,137.45,175.6,129.75,175.6z
		"/>
	<path d="M144.64,154.66c0,0-8.12,18.95-14.89,18.95c-0.97,0-1.91-0.39-2.79-1.27C119.89,165.26,144.64,154.66,144.64,154.66
		 M144.64,150.66c-0.53,0-1.07,0.11-1.57,0.32c-4.59,1.97-19.68,9.01-21.23,17.07c-0.5,2.6,0.31,5.13,2.3,7.11
		c2.02,2.02,4.17,2.44,5.62,2.44c4.42,0,8.68-3.62,13.4-11.4c2.99-4.92,5.08-9.77,5.16-9.97c0.64-1.5,0.31-3.25-0.85-4.4
		C146.7,151.06,145.68,150.66,144.64,150.66L144.64,150.66z M144.64,158.66L144.64,158.66L144.64,158.66L144.64,158.66z"/>
</g>
<g>
	<path class="st7" d="M151.71,211.59c-1.13,0-2.2-0.48-2.96-1.32c-0.07-0.06-0.13-0.11-0.19-0.17l-17.68-17.68
		c-0.76-0.76-1.17-1.76-1.17-2.83s0.42-2.07,1.17-2.83c0.75-0.75,1.76-1.17,2.83-1.17s2.07,0.42,2.83,1.17l11.17,11.17v-15.34
		c0-2.21,1.79-4,4-4s4,1.79,4,4v15.34l11.17-11.17c0.76-0.76,1.76-1.17,2.83-1.17s2.07,0.42,2.83,1.17c1.56,1.56,1.56,4.1,0,5.66
		l-17.68,17.68c-0.06,0.06-0.13,0.12-0.2,0.18C153.91,211.11,152.85,211.59,151.71,211.59z"/>
	<path d="M151.71,180.59c1.1,0,2,0.9,2,2v20.17l14.59-14.59c0.39-0.39,0.9-0.59,1.41-0.59s1.02,0.2,1.41,0.59
		c0.78,0.78,0.78,2.05,0,2.83l-17.68,17.68c-0.05,0.05-0.11,0.09-0.17,0.14c-0.37,0.46-0.93,0.77-1.56,0.77
		c-0.64,0-1.2-0.3-1.56-0.77c-0.06-0.05-0.12-0.09-0.17-0.14L132.3,191c-0.78-0.78-0.78-2.05,0-2.83c0.39-0.39,0.9-0.59,1.41-0.59
		s1.02,0.2,1.41,0.59l14.59,14.59v-20.17C149.71,181.49,150.61,180.59,151.71,180.59 M151.71,176.59c-3.31,0-6,2.69-6,6v10.51
		l-7.76-7.76c-1.13-1.13-2.64-1.76-4.24-1.76s-3.11,0.62-4.24,1.76c-1.13,1.13-1.76,2.64-1.76,4.24s0.62,3.11,1.76,4.24l17.68,17.68
		c0.08,0.08,0.15,0.15,0.22,0.21c1.13,1.19,2.69,1.87,4.34,1.87c1.66,0,3.21-0.68,4.34-1.87c0.07-0.06,0.15-0.13,0.22-0.21
		l17.68-17.68c1.13-1.13,1.76-2.64,1.76-4.24s-0.62-3.11-1.76-4.24c-1.13-1.13-2.64-1.76-4.24-1.76s-3.11,0.62-4.24,1.76l-7.76,7.76
		v-10.51C157.71,179.28,155.02,176.59,151.71,176.59L151.71,176.59z"/>
</g>
<g>
	<path class="st7" d="M151.71,184.59c-2.15,0-3.88-0.87-5-2.53c-4.16-6.14,1.89-22.08,3.14-25.22c0.3-0.76,1.04-1.26,1.86-1.26
		s1.55,0.5,1.86,1.26c1.25,3.13,7.3,19.08,3.14,25.22C155.59,183.72,153.86,184.59,151.71,184.59z"/>
	<path d="M151.71,157.59c0,0,10,25,0,25S151.71,157.59,151.71,157.59 M151.71,153.59c-1.64,0-3.11,1-3.71,2.51
		c-1.85,4.63-7.54,20.28-2.94,27.08c1.49,2.2,3.85,3.4,6.65,3.4c2.8,0,5.17-1.21,6.65-3.4c4.6-6.8-1.09-22.45-2.94-27.08
		C154.81,154.59,153.34,153.59,151.71,153.59L151.71,153.59z"/>
</g>
<g>
	<circle class="st7" cx="151.71" cy="147.59" r="8"/>
	<path class="st7" d="M151.71,141.59c3.31,0,6,2.69,6,6s-2.69,6-6,6s-6-2.69-6-6S148.41,141.59,151.71,141.59 M151.71,137.59
		c-5.52,0-10,4.48-10,10s4.48,10,10,10s10-4.48,10-10C161.71,142.07,157.24,137.59,151.71,137.59L151.71,137.59z"/>
</g>
<rect x="16.71" y="27.59" class="st19" width="25" height="180"/>
<text transform="matrix(1 0 0 1 29.2135 32.5899)" class="st7 st8 st9">        </text>
<text transform="matrix(1 0 0 1 29.2136 74.7799)" class="st7 st10 st11">YES</text>
<text transform="matrix(1 0 0 1 29.2135 128.7799)" class="st7 st10 st9">  </text>
<text transform="matrix(1 0 0 1 29.2136 140.4099)" class="st7 st10 st11">but</text>
<text transform="matrix(1 0 0 1 20.3578 47.5899)" class="st7 st8 st13">31</text>
</svg>
