<?xml version="1.0" encoding="utf-8"?>
<!-- Generator: Adobe Illustrator 23.0.6, SVG Export Plug-In . SVG Version: 6.00 Build 0)  -->
<svg version="1.1" id="Layer_1" xmlns="http://www.w3.org/2000/svg" xmlns:xlink="http://www.w3.org/1999/xlink" x="0px" y="0px"
	 viewBox="0 0 277.12 270" style="enable-background:new 0 0 277.12 270;" xml:space="preserve">
<style type="text/css">
	.st0{display:none;}
	.st1{display:inline;}
	.st2{display:inline;fill:#FFFFFF;}
	.st3{fill:none;}
	.st4{display:none;fill:#FFFFFF;stroke:#000000;stroke-width:4;stroke-linecap:round;stroke-linejoin:round;stroke-miterlimit:10;}
	.st5{display:none;fill:none;stroke:#FFFFFF;stroke-width:4;stroke-linecap:round;stroke-linejoin:round;stroke-miterlimit:10;}
	.st6{display:none;stroke:#000000;stroke-width:4;stroke-linecap:round;stroke-linejoin:round;stroke-miterlimit:10;}
	.st7{fill:#FFFFFF;}
	.st8{font-family:'Gilland-Bold';}
	.st9{font-size:18px;glyph-orientation-vertical:1;writing-mode:tb;}
	.st10{font-family:'Gilland-Regular';}
	.st11{font-size:18px;glyph-orientation-vertical:0;writing-mode:tb;}
	.st12{display:none;fill:#FFFFFF;enable-background:new    ;}
	.st13{font-size:18px;}
	.st14{display:none;fill:none;stroke:#000000;stroke-width:4;stroke-linecap:round;stroke-linejoin:round;stroke-miterlimit:10;}
	.st15{display:none;fill:#FFFFFF;}
	.st16{fill:#FFFFFF;stroke:#000000;stroke-width:4;stroke-linecap:round;stroke-linejoin:round;stroke-miterlimit:10;}
	.st17{font-family:'AppleSymbols';}
	.st18{font-family:'SVBasicManual';}
	.st19{stroke:#000000;stroke-width:4;stroke-linecap:round;stroke-linejoin:round;stroke-miterlimit:10;}
</style>
<g class="st0">
	<path class="st1" d="M241.96,227.5h-180c-11.05,0-20-8.95-20-20v-70h220v70C261.96,218.55,253.01,227.5,241.96,227.5z"/>
</g>
<g class="st0">
	<path class="st2" d="M241.96,7.5h-180c-11.05,0-20,8.95-20,20v180c0,11.05,8.95,20,20,20h180c11.05,0,20-8.95,20-20v-180
		C261.96,16.45,253.01,7.5,241.96,7.5z M251.96,197.5c0,11.05-8.95,20-20,20h-160c-11.05,0-20-8.95-20-20v-160
		c0-11.05,8.95-20,20-20h160c11.05,0,20,8.95,20,20V197.5z"/>
</g>
<rect x="46.96" y="232.5" class="st3" width="212.5" height="45"/>
<g class="st0">
	<path class="st1" d="M241.96,11.5c8.82,0,16,7.18,16,16v180c0,8.82-7.18,16-16,16h-180c-8.82,0-16-7.18-16-16v-180
		c0-8.82,7.18-16,16-16H241.96 M241.96,7.5h-180c-11.05,0-20,8.95-20,20v180c0,11.05,8.95,20,20,20h180c11.05,0,20-8.95,20-20v-180
		C261.96,16.45,253.01,7.5,241.96,7.5L241.96,7.5z"/>
</g>
<path class="st4" d="M151.96,65h66.4c3.85,0,6.25,4.17,4.33,7.5l-33.2,57.5l-33.2,57.5c-1.92,3.33-6.74,3.33-8.66,0l-33.2-57.5
	l-33.2-57.5c-1.92-3.33,0.48-7.5,4.33-7.5H151.96z"/>
<path class="st0" d="M201.96,157.5c0,4.6-22.39,8.33-50,8.33s-50-3.73-50-8.33v50h100V157.5z"/>
<path class="st5" d="M181.96,176.34c-9.26,0.75-19.39,1.16-30,1.16s-20.74-0.41-30-1.16"/>
<path class="st5" d="M201.96,149.01c18.29,2.93,30,7.44,30,12.49c0,2.81-3.63,5.46-10,7.75"/>
<path class="st5" d="M81.96,169.25c-6.37-2.3-10-4.94-10-7.75c0-5.05,11.71-9.56,30-12.49"/>
<ellipse class="st5" cx="151.96" cy="157.5" rx="50" ry="10"/>
<g class="st0">
	<polygon class="st1" points="131.96,77.5 141.96,127.5 161.96,127.5 171.96,77.5 	"/>
	<circle class="st1" cx="151.96" cy="147.5" r="10"/>
</g>
<path class="st5" d="M151.96,147.5"/>
<rect x="16.96" y="27.5" class="st6" width="25" height="180"/>
<text transform="matrix(1 0 0 1 29.4641 32.5)" class="st7 st8 st9">        </text>
<text transform="matrix(1 0 0 1 29.4642 74.69)" class="st7 st10 st11">NO</text>
<text transform="matrix(1 0 0 1 25.6215 47.5)" class="st12 st8 st13">1</text>
<g class="st0">
	<path class="st2" d="M241.96,7.5h-180c-11.05,0-20,8.95-20,20v180c0,11.05,8.95,20,20,20h180c11.05,0,20-8.95,20-20v-180
		C261.96,16.45,253.01,7.5,241.96,7.5z M251.96,197.5c0,11.05-8.95,20-20,20h-160c-11.05,0-20-8.95-20-20v-160
		c0-11.05,8.95-20,20-20h160c11.05,0,20,8.95,20,20V197.5z"/>
</g>
<g class="st0">
	<path class="st1" d="M241.96,11.5c8.82,0,16,7.18,16,16v180c0,8.82-7.18,16-16,16h-180c-8.82,0-16-7.18-16-16v-180
		c0-8.82,7.18-16,16-16H241.96 M241.96,7.5h-180c-11.05,0-20,8.95-20,20v180c0,11.05,8.95,20,20,20h180c11.05,0,20-8.95,20-20v-180
		C261.96,16.45,253.01,7.5,241.96,7.5L241.96,7.5z"/>
</g>
<rect x="131.96" y="47.5" class="st6" width="40" height="40"/>
<rect x="131.96" y="147.5" class="st14" width="40" height="40"/>
<path class="st14" d="M171.96,187.5c38.66,0,70-31.34,70-70s-31.34-70-70-70v40c16.57,0,30,13.43,30,30s-13.43,30-30,30V187.5z"/>
<rect x="101.96" y="47.5" class="st6" width="20" height="40"/>
<rect x="81.96" y="47.5" class="st6" width="10" height="40"/>
<rect x="101.96" y="147.5" class="st6" width="20" height="40"/>
<rect x="81.96" y="147.5" class="st6" width="10" height="40"/>
<rect x="71.97" y="47.5" class="st6" width="0.01" height="40"/>
<rect x="71.97" y="147.5" class="st6" width="0.01" height="40"/>
<rect x="41.96" y="232.5" class="st3" width="210" height="35"/>
<rect x="16.96" y="27.5" class="st6" width="25" height="180"/>
<text transform="matrix(1 0 0 1 29.4641 32.5)" class="st7 st8 st9">        </text>
<text transform="matrix(1 0 0 1 29.4642 74.69)" class="st7 st10 st11">NO</text>
<text transform="matrix(1 0 0 1 24.2446 47.5)" class="st12 st8 st13">2</text>
<g class="st0">
	<g class="st1">
		<path d="M241.96,7.5h-180c-11.05,0-20,8.95-20,20v180c0,11.05,8.95,20,20,20h180c11.05,0,20-8.95,20-20v-180
			C261.96,16.45,253.01,7.5,241.96,7.5z M251.96,197.5c0,11.05-8.95,20-20,20h-160c-11.05,0-20-8.95-20-20v-160
			c0-11.05,8.95-20,20-20h160c11.05,0,20,8.95,20,20V197.5z"/>
	</g>
	<g class="st1">
		<path d="M241.96,11.5c8.82,0,16,7.18,16,16v180c0,8.82-7.18,16-16,16h-180c-8.82,0-16-7.18-16-16v-180c0-8.82,7.18-16,16-16
			H241.96 M241.96,7.5h-180c-11.05,0-20,8.95-20,20v180c0,11.05,8.95,20,20,20h180c11.05,0,20-8.95,20-20v-180
			C261.96,16.45,253.01,7.5,241.96,7.5L241.96,7.5z"/>
	</g>
</g>
<rect x="61.96" y="27.5" class="st4" width="85" height="180"/>
<rect x="156.96" y="27.5" class="st4" width="85" height="180"/>
<rect x="71.96" y="37.5" class="st0" width="75" height="10"/>
<rect x="71.96" y="57.5" class="st0" width="75" height="10"/>
<rect x="71.96" y="77.5" class="st0" width="75" height="10"/>
<rect x="71.96" y="97.5" class="st0" width="75" height="10"/>
<rect x="71.96" y="117.5" class="st0" width="75" height="10"/>
<path class="st0" d="M121.96,172.5h-30c-5.5,0-10-4.5-10-10l0,0c0-5.5,4.5-10,10-10h30c5.5,0,10,4.5,10,10l0,0
	C131.96,168,127.46,172.5,121.96,172.5z"/>
<path class="st0" d="M211.96,47.5h-10c-5.5,0-10,4.5-10,10v20c0,5.5,4.5,10,10,10h10c5.5,0,10-4.5,10-10v-20
	C221.96,52,217.46,47.5,211.96,47.5z"/>
<path class="st0" d="M211.96,137.5h-10c-5.5,0-10,4.5-10,10v20c0,5.5,4.5,10,10,10h10c5.5,0,10-4.5,10-10v-20
	C221.96,142,217.46,137.5,211.96,137.5z"/>
<rect x="201.96" y="77.5" class="st0" width="10" height="70"/>
<line class="st14" x1="211.96" y1="157.5" x2="211.96" y2="207.5"/>
<rect x="41.96" y="232.5" class="st3" width="180" height="35"/>
<rect x="16.96" y="27.5" class="st6" width="25" height="180"/>
<text transform="matrix(1 0 0 1 29.4641 32.5)" class="st7 st8 st9">        </text>
<text transform="matrix(1 0 0 1 29.4642 74.69)" class="st7 st10 st11">NO</text>
<text transform="matrix(1 0 0 1 24.4516 47.5)" class="st12 st8 st13">3</text>
<rect x="51.96" y="17.5" class="st0" width="200" height="200"/>
<rect x="41.96" y="232.5" class="st3" width="180" height="35"/>
<g class="st0">
	<path class="st2" d="M241.96,7.5h-180c-11.05,0-20,8.95-20,20v180c0,11.05,8.95,20,20,20h180c11.05,0,20-8.95,20-20v-180
		C261.96,16.45,253.01,7.5,241.96,7.5z M251.96,197.5c0,11.05-8.95,20-20,20h-160c-11.05,0-20-8.95-20-20v-160
		c0-11.05,8.95-20,20-20h160c11.05,0,20,8.95,20,20V197.5z"/>
</g>
<g class="st0">
	<path class="st1" d="M241.96,11.5c8.82,0,16,7.18,16,16v180c0,8.82-7.18,16-16,16h-180c-8.82,0-16-7.18-16-16v-180
		c0-8.82,7.18-16,16-16H241.96 M241.96,7.5h-180c-11.05,0-20,8.95-20,20v180c0,11.05,8.95,20,20,20h180c11.05,0,20-8.95,20-20v-180
		C261.96,16.45,253.01,7.5,241.96,7.5L241.96,7.5z"/>
</g>
<polygon class="st15" points="241.96,207.5 241.96,27.5 61.96,27.5 "/>
<path class="st4" d="M81.96,112.5v-45c0-11.03,8.97-20,20-20h100c11.03,0,20,8.97,20,20v45h-10"/>
<path class="st4" d="M81.96,127.5v40c0,11.03,8.97,20,20,20h100c11.03,0,20-8.97,20-20v-40h-10"/>
<path class="st4" d="M101.96,177.5c-5.52,0-10-4.48-10-10v-100c0-5.52,4.48-10,10-10h100c5.52,0,10,4.48,10,10v100
	c0,5.52-4.48,10-10,10H101.96z"/>
<g class="st0">
	<polygon class="st1" points="131.96,77.5 141.96,127.5 161.96,127.5 171.96,77.5 	"/>
</g>
<rect x="141.96" y="142.5" class="st0" width="20" height="15"/>
<path class="st14" d="M146.96,142.5v-5c0-2.76,2.24-5,5-5s5,2.24,5,5v5"/>
<rect x="16.96" y="27.5" class="st6" width="25" height="180"/>
<text transform="matrix(1 0 0 1 29.4641 32.5)" class="st7 st8 st9">        </text>
<text transform="matrix(1 0 0 1 29.4642 74.69)" class="st7 st10 st11">NO</text>
<text transform="matrix(1 0 0 1 24.1274 47.5)" class="st12 st8 st13">4</text>
<g class="st0">
	<path class="st2" d="M241.97,7.5h-180c-11.05,0-20,8.95-20,20v180c0,11.05,8.95,20,20,20h180c11.05,0,20-8.95,20-20v-180
		C261.97,16.45,253.02,7.5,241.97,7.5z M251.97,197.5c0,11.05-8.95,20-20,20h-160c-11.05,0-20-8.95-20-20v-160
		c0-11.05,8.95-20,20-20h160c11.05,0,20,8.95,20,20V197.5z"/>
</g>
<g class="st0">
	<path class="st1" d="M241.97,11.5c8.82,0,16,7.18,16,16v180c0,8.82-7.18,16-16,16h-180c-8.82,0-16-7.18-16-16v-180
		c0-8.82,7.18-16,16-16H241.97 M241.97,7.5h-180c-11.05,0-20,8.95-20,20v180c0,11.05,8.95,20,20,20h180c11.05,0,20-8.95,20-20v-180
		C261.97,16.45,253.02,7.5,241.97,7.5L241.97,7.5z"/>
</g>
<polygon class="st0" points="131.97,77.5 171.97,77.5 161.97,127.5 141.97,127.5 "/>
<circle class="st0" cx="151.97" cy="147.5" r="10"/>
<rect x="41.97" y="232.5" class="st3" width="215" height="35"/>
<g class="st0">
	<rect x="63.97" y="29.5" class="st2" width="71" height="176"/>
	<path class="st1" d="M132.97,31.5v172h-67v-172H132.97 M136.97,27.5h-75v180h75V27.5L136.97,27.5z"/>
</g>
<g class="st0">
	<rect x="168.97" y="29.5" class="st2" width="71" height="176"/>
	<path class="st1" d="M237.97,31.5v172h-67v-172H237.97 M241.97,27.5h-75v180h75V27.5L241.97,27.5z"/>
</g>
<rect x="16.96" y="27.5" class="st6" width="25" height="180"/>
<text transform="matrix(1 0 0 1 29.4579 32.5)" class="st7 st8 st9">        </text>
<text transform="matrix(1 0 0 1 29.458 74.69)" class="st7 st10 st11">NO</text>
<text transform="matrix(1 0 0 1 24.3463 47.5)" class="st12 st8 st13">5</text>
<g class="st0">
	<path class="st1" d="M241.97,227.5h-180c-11.05,0-20-8.95-20-20v-50h220v50C261.97,218.55,253.02,227.5,241.97,227.5z"/>
</g>
<g class="st0">
	<path class="st2" d="M241.97,7.5h-180c-11.05,0-20,8.95-20,20v180c0,11.05,8.95,20,20,20h180c11.05,0,20-8.95,20-20v-180
		C261.97,16.45,253.02,7.5,241.97,7.5z M251.97,197.5c0,11.05-8.95,20-20,20h-160c-11.05,0-20-8.95-20-20v-160
		c0-11.05,8.95-20,20-20h160c11.05,0,20,8.95,20,20V197.5z"/>
</g>
<g class="st0">
	<path class="st1" d="M241.97,11.5c8.82,0,16,7.18,16,16v180c0,8.82-7.18,16-16,16h-180c-8.82,0-16-7.18-16-16v-180
		c0-8.82,7.18-16,16-16H241.97 M241.97,7.5h-180c-11.05,0-20,8.95-20,20v180c0,11.05,8.95,20,20,20h180c11.05,0,20-8.95,20-20v-180
		C261.97,16.45,253.02,7.5,241.97,7.5L241.97,7.5z"/>
</g>
<rect x="41.97" y="232.5" class="st3" width="205" height="35"/>
<polygon class="st0" points="149.47,146.67 131.97,142.5 131.97,150.41 "/>
<polygon class="st0" points="124.63,85.85 162.21,72.17 169.92,122.57 151.12,129.41 "/>
<circle class="st0" cx="176.97" cy="147.5" r="10"/>
<rect x="16.96" y="27.5" class="st6" width="25" height="180"/>
<text transform="matrix(1 0 0 1 29.4579 32.5)" class="st7 st8 st9">        </text>
<text transform="matrix(1 0 0 1 29.458 74.69)" class="st7 st10 st11">NO</text>
<text transform="matrix(1 0 0 1 24.5172 47.5)" class="st12 st8 st13">6</text>
<g>
	<path d="M241.71,7.59h-180c-11.05,0-20,8.95-20,20v180c0,11.05,8.95,20,20,20h180c11.05,0,20-8.95,20-20v-180
		C261.71,16.54,252.76,7.59,241.71,7.59z M251.71,197.59c0,11.05-8.95,20-20,20h-160c-11.05,0-20-8.95-20-20v-160
		c0-11.05,8.95-20,20-20h160c11.05,0,20,8.95,20,20V197.59z"/>
</g>
<path class="st16" d="M181.71,143.13l-25.67,44.46c-1.92,3.33-6.74,3.33-8.66,0l-33.2-57.5l-33.2-57.5c-1.92-3.33,0.48-7.5,4.33-7.5
	h66.4"/>
<circle cx="151.71" cy="147.59" r="10"/>
<rect x="41.71" y="232.59" class="st3" width="200" height="35"/>
<text transform="matrix(1 0 0 1 41.7137 244.2647)" class="st17 st13">▲ </text>
<text transform="matrix(1 0 0 1 62.5437 244.2647)" class="st18 st13">Gas storage</text>
<text transform="matrix(1 0 0 1 41.7137 260.4647)" class="st18 st13">responsibility/risk</text>
<path d="M151.71,47.59h15c0,0,0,50,0,60s-10,10-10,10v10h-5h-5v-10c0,0-10,0-10-10s0-60,0-60S151.71,47.59,151.71,47.59z"/>
<g>
	<polygon points="261.71,70.32 166.71,87.59 261.71,104.86 	"/>
	<polygon points="261.71,122.14 166.71,87.59 261.71,148.04 	"/>
	<path d="M261.71,53.04V27.59c0-0.15-0.02-0.29-0.02-0.44l-94.98,60.44L261.71,53.04z"/>
	<polygon points="189.21,7.59 166.71,67.59 211.71,7.59 	"/>
	<path d="M228.94,7.59l-62.22,70l88.72-64.52c-3.58-3.39-8.4-5.48-13.72-5.48C241.72,7.59,228.94,7.59,228.94,7.59z"/>
	<polyline points="261.71,187.59 261.71,166.68 166.71,97.59 246.71,187.59 256.71,200.09 	"/>
	<polyline points="251.71,217.59 231.71,227.59 211.71,227.59 196.71,187.59 166.71,107.59 249.21,217.59 	"/>
</g>
<rect x="16.71" y="27.59" class="st19" width="25" height="180"/>
<text transform="matrix(1 0 0 1 29.2135 32.5898)" class="st7 st8 st9">        </text>
<text transform="matrix(1 0 0 1 29.2136 74.7798)" class="st7 st10 st11">YES</text>
<text transform="matrix(1 0 0 1 29.2135 128.7798)" class="st7 st10 st9">  </text>
<text transform="matrix(1 0 0 1 29.2136 140.4098)" class="st7 st10 st11">but</text>
<text transform="matrix(1 0 0 1 18.9808 47.5898)" class="st7 st8 st13">32</text>
</svg>
