<?xml version="1.0" encoding="utf-8"?>
<!-- Generator: Adobe Illustrator 23.0.6, SVG Export Plug-In . SVG Version: 6.00 Build 0)  -->
<svg version="1.1" id="Layer_1" xmlns="http://www.w3.org/2000/svg" xmlns:xlink="http://www.w3.org/1999/xlink" x="0px" y="0px"
	 viewBox="0 0 277.12 270" style="enable-background:new 0 0 277.12 270;" xml:space="preserve">
<style type="text/css">
	.st0{display:none;}
	.st1{display:inline;}
	.st2{display:inline;fill:#FFFFFF;}
	.st3{fill:none;}
	.st4{display:none;fill:#FFFFFF;stroke:#000000;stroke-width:4;stroke-linecap:round;stroke-linejoin:round;stroke-miterlimit:10;}
	.st5{display:none;fill:none;stroke:#FFFFFF;stroke-width:4;stroke-linecap:round;stroke-linejoin:round;stroke-miterlimit:10;}
	.st6{display:none;stroke:#000000;stroke-width:4;stroke-linecap:round;stroke-linejoin:round;stroke-miterlimit:10;}
	.st7{fill:#FFFFFF;}
	.st8{font-family:'Gilland-Bold';}
	.st9{font-size:18px;glyph-orientation-vertical:1;writing-mode:tb;}
	.st10{font-family:'Gilland-Regular';}
	.st11{font-size:18px;glyph-orientation-vertical:0;writing-mode:tb;}
	.st12{display:none;fill:#FFFFFF;enable-background:new    ;}
	.st13{font-size:18px;}
	.st14{display:none;fill:none;stroke:#000000;stroke-width:4;stroke-linecap:round;stroke-linejoin:round;stroke-miterlimit:10;}
	.st15{display:none;fill:#FFFFFF;}
	.st16{font-family:'AppleSymbols';}
	.st17{font-family:'SVBasicManual';}
	.st18{stroke:#000000;stroke-width:4;stroke-linecap:round;stroke-linejoin:round;stroke-miterlimit:10;}
</style>
<g class="st0">
	<path class="st1" d="M241.96,227.5h-180c-11.05,0-20-8.95-20-20v-70h220v70C261.96,218.55,253.01,227.5,241.96,227.5z"/>
</g>
<g class="st0">
	<path class="st2" d="M241.96,7.5h-180c-11.05,0-20,8.95-20,20v180c0,11.05,8.95,20,20,20h180c11.05,0,20-8.95,20-20v-180
		C261.96,16.45,253.01,7.5,241.96,7.5z M251.96,197.5c0,11.05-8.95,20-20,20h-160c-11.05,0-20-8.95-20-20v-160
		c0-11.05,8.95-20,20-20h160c11.05,0,20,8.95,20,20V197.5z"/>
</g>
<rect x="46.96" y="232.5" class="st3" width="212.5" height="45"/>
<g class="st0">
	<path class="st1" d="M241.96,11.5c8.82,0,16,7.18,16,16v180c0,8.82-7.18,16-16,16h-180c-8.82,0-16-7.18-16-16v-180
		c0-8.82,7.18-16,16-16H241.96 M241.96,7.5h-180c-11.05,0-20,8.95-20,20v180c0,11.05,8.95,20,20,20h180c11.05,0,20-8.95,20-20v-180
		C261.96,16.45,253.01,7.5,241.96,7.5L241.96,7.5z"/>
</g>
<path class="st4" d="M151.96,65h66.4c3.85,0,6.25,4.17,4.33,7.5l-33.2,57.5l-33.2,57.5c-1.92,3.33-6.74,3.33-8.66,0l-33.2-57.5
	l-33.2-57.5c-1.92-3.33,0.48-7.5,4.33-7.5H151.96z"/>
<path class="st0" d="M201.96,157.5c0,4.6-22.39,8.33-50,8.33s-50-3.73-50-8.33v50h100V157.5z"/>
<path class="st5" d="M181.96,176.34c-9.26,0.75-19.39,1.16-30,1.16s-20.74-0.41-30-1.16"/>
<path class="st5" d="M201.96,149.01c18.29,2.93,30,7.44,30,12.49c0,2.81-3.63,5.46-10,7.75"/>
<path class="st5" d="M81.96,169.25c-6.37-2.3-10-4.94-10-7.75c0-5.05,11.71-9.56,30-12.49"/>
<ellipse class="st5" cx="151.96" cy="157.5" rx="50" ry="10"/>
<g class="st0">
	<polygon class="st1" points="131.96,77.5 141.96,127.5 161.96,127.5 171.96,77.5 	"/>
	<circle class="st1" cx="151.96" cy="147.5" r="10"/>
</g>
<path class="st5" d="M151.96,147.5"/>
<rect x="16.96" y="27.5" class="st6" width="25" height="180"/>
<text transform="matrix(1 0 0 1 29.4641 32.5)" class="st7 st8 st9">        </text>
<text transform="matrix(1 0 0 1 29.4642 74.69)" class="st7 st10 st11">NO</text>
<text transform="matrix(1 0 0 1 25.6215 47.5)" class="st12 st8 st13">1</text>
<g class="st0">
	<path class="st2" d="M241.96,7.5h-180c-11.05,0-20,8.95-20,20v180c0,11.05,8.95,20,20,20h180c11.05,0,20-8.95,20-20v-180
		C261.96,16.45,253.01,7.5,241.96,7.5z M251.96,197.5c0,11.05-8.95,20-20,20h-160c-11.05,0-20-8.95-20-20v-160
		c0-11.05,8.95-20,20-20h160c11.05,0,20,8.95,20,20V197.5z"/>
</g>
<g class="st0">
	<path class="st1" d="M241.96,11.5c8.82,0,16,7.18,16,16v180c0,8.82-7.18,16-16,16h-180c-8.82,0-16-7.18-16-16v-180
		c0-8.82,7.18-16,16-16H241.96 M241.96,7.5h-180c-11.05,0-20,8.95-20,20v180c0,11.05,8.95,20,20,20h180c11.05,0,20-8.95,20-20v-180
		C261.96,16.45,253.01,7.5,241.96,7.5L241.96,7.5z"/>
</g>
<rect x="131.96" y="47.5" class="st6" width="40" height="40"/>
<rect x="131.96" y="147.5" class="st14" width="40" height="40"/>
<path class="st14" d="M171.96,187.5c38.66,0,70-31.34,70-70s-31.34-70-70-70v40c16.57,0,30,13.43,30,30s-13.43,30-30,30V187.5z"/>
<rect x="101.96" y="47.5" class="st6" width="20" height="40"/>
<rect x="81.96" y="47.5" class="st6" width="10" height="40"/>
<rect x="101.96" y="147.5" class="st6" width="20" height="40"/>
<rect x="81.96" y="147.5" class="st6" width="10" height="40"/>
<rect x="71.97" y="47.5" class="st6" width="0.01" height="40"/>
<rect x="71.97" y="147.5" class="st6" width="0.01" height="40"/>
<rect x="41.96" y="232.5" class="st3" width="210" height="35"/>
<rect x="16.96" y="27.5" class="st6" width="25" height="180"/>
<text transform="matrix(1 0 0 1 29.4641 32.5)" class="st7 st8 st9">        </text>
<text transform="matrix(1 0 0 1 29.4642 74.69)" class="st7 st10 st11">NO</text>
<text transform="matrix(1 0 0 1 24.2446 47.5)" class="st12 st8 st13">2</text>
<g class="st0">
	<g class="st1">
		<path d="M241.96,7.5h-180c-11.05,0-20,8.95-20,20v180c0,11.05,8.95,20,20,20h180c11.05,0,20-8.95,20-20v-180
			C261.96,16.45,253.01,7.5,241.96,7.5z M251.96,197.5c0,11.05-8.95,20-20,20h-160c-11.05,0-20-8.95-20-20v-160
			c0-11.05,8.95-20,20-20h160c11.05,0,20,8.95,20,20V197.5z"/>
	</g>
	<g class="st1">
		<path d="M241.96,11.5c8.82,0,16,7.18,16,16v180c0,8.82-7.18,16-16,16h-180c-8.82,0-16-7.18-16-16v-180c0-8.82,7.18-16,16-16
			H241.96 M241.96,7.5h-180c-11.05,0-20,8.95-20,20v180c0,11.05,8.95,20,20,20h180c11.05,0,20-8.95,20-20v-180
			C261.96,16.45,253.01,7.5,241.96,7.5L241.96,7.5z"/>
	</g>
</g>
<rect x="61.96" y="27.5" class="st4" width="85" height="180"/>
<rect x="156.96" y="27.5" class="st4" width="85" height="180"/>
<rect x="71.96" y="37.5" class="st0" width="75" height="10"/>
<rect x="71.96" y="57.5" class="st0" width="75" height="10"/>
<rect x="71.96" y="77.5" class="st0" width="75" height="10"/>
<rect x="71.96" y="97.5" class="st0" width="75" height="10"/>
<rect x="71.96" y="117.5" class="st0" width="75" height="10"/>
<path class="st0" d="M121.96,172.5h-30c-5.5,0-10-4.5-10-10l0,0c0-5.5,4.5-10,10-10h30c5.5,0,10,4.5,10,10l0,0
	C131.96,168,127.46,172.5,121.96,172.5z"/>
<path class="st0" d="M211.96,47.5h-10c-5.5,0-10,4.5-10,10v20c0,5.5,4.5,10,10,10h10c5.5,0,10-4.5,10-10v-20
	C221.96,52,217.46,47.5,211.96,47.5z"/>
<path class="st0" d="M211.96,137.5h-10c-5.5,0-10,4.5-10,10v20c0,5.5,4.5,10,10,10h10c5.5,0,10-4.5,10-10v-20
	C221.96,142,217.46,137.5,211.96,137.5z"/>
<rect x="201.96" y="77.5" class="st0" width="10" height="70"/>
<line class="st14" x1="211.96" y1="157.5" x2="211.96" y2="207.5"/>
<rect x="41.96" y="232.5" class="st3" width="180" height="35"/>
<rect x="16.96" y="27.5" class="st6" width="25" height="180"/>
<text transform="matrix(1 0 0 1 29.4641 32.5)" class="st7 st8 st9">        </text>
<text transform="matrix(1 0 0 1 29.4642 74.69)" class="st7 st10 st11">NO</text>
<text transform="matrix(1 0 0 1 24.4516 47.5)" class="st12 st8 st13">3</text>
<rect x="51.96" y="17.5" class="st0" width="200" height="200"/>
<rect x="41.96" y="232.5" class="st3" width="180" height="35"/>
<g class="st0">
	<path class="st2" d="M241.96,7.5h-180c-11.05,0-20,8.95-20,20v180c0,11.05,8.95,20,20,20h180c11.05,0,20-8.95,20-20v-180
		C261.96,16.45,253.01,7.5,241.96,7.5z M251.96,197.5c0,11.05-8.95,20-20,20h-160c-11.05,0-20-8.95-20-20v-160
		c0-11.05,8.95-20,20-20h160c11.05,0,20,8.95,20,20V197.5z"/>
</g>
<g class="st0">
	<path class="st1" d="M241.96,11.5c8.82,0,16,7.18,16,16v180c0,8.82-7.18,16-16,16h-180c-8.82,0-16-7.18-16-16v-180
		c0-8.82,7.18-16,16-16H241.96 M241.96,7.5h-180c-11.05,0-20,8.95-20,20v180c0,11.05,8.95,20,20,20h180c11.05,0,20-8.95,20-20v-180
		C261.96,16.45,253.01,7.5,241.96,7.5L241.96,7.5z"/>
</g>
<polygon class="st15" points="241.96,207.5 241.96,27.5 61.96,27.5 "/>
<path class="st4" d="M81.96,112.5v-45c0-11.03,8.97-20,20-20h100c11.03,0,20,8.97,20,20v45h-10"/>
<path class="st4" d="M81.96,127.5v40c0,11.03,8.97,20,20,20h100c11.03,0,20-8.97,20-20v-40h-10"/>
<path class="st4" d="M101.96,177.5c-5.52,0-10-4.48-10-10v-100c0-5.52,4.48-10,10-10h100c5.52,0,10,4.48,10,10v100
	c0,5.52-4.48,10-10,10H101.96z"/>
<g class="st0">
	<polygon class="st1" points="131.96,77.5 141.96,127.5 161.96,127.5 171.96,77.5 	"/>
</g>
<rect x="141.96" y="142.5" class="st0" width="20" height="15"/>
<path class="st14" d="M146.96,142.5v-5c0-2.76,2.24-5,5-5s5,2.24,5,5v5"/>
<rect x="16.96" y="27.5" class="st6" width="25" height="180"/>
<text transform="matrix(1 0 0 1 29.4641 32.5)" class="st7 st8 st9">        </text>
<text transform="matrix(1 0 0 1 29.4642 74.69)" class="st7 st10 st11">NO</text>
<text transform="matrix(1 0 0 1 24.1274 47.5)" class="st12 st8 st13">4</text>
<g class="st0">
	<path class="st2" d="M241.97,7.5h-180c-11.05,0-20,8.95-20,20v180c0,11.05,8.95,20,20,20h180c11.05,0,20-8.95,20-20v-180
		C261.97,16.45,253.02,7.5,241.97,7.5z M251.97,197.5c0,11.05-8.95,20-20,20h-160c-11.05,0-20-8.95-20-20v-160
		c0-11.05,8.95-20,20-20h160c11.05,0,20,8.95,20,20V197.5z"/>
</g>
<g class="st0">
	<path class="st1" d="M241.97,11.5c8.82,0,16,7.18,16,16v180c0,8.82-7.18,16-16,16h-180c-8.82,0-16-7.18-16-16v-180
		c0-8.82,7.18-16,16-16H241.97 M241.97,7.5h-180c-11.05,0-20,8.95-20,20v180c0,11.05,8.95,20,20,20h180c11.05,0,20-8.95,20-20v-180
		C261.97,16.45,253.02,7.5,241.97,7.5L241.97,7.5z"/>
</g>
<polygon class="st0" points="131.97,77.5 171.97,77.5 161.97,127.5 141.97,127.5 "/>
<circle class="st0" cx="151.97" cy="147.5" r="10"/>
<rect x="41.97" y="232.5" class="st3" width="215" height="35"/>
<g class="st0">
	<rect x="63.97" y="29.5" class="st2" width="71" height="176"/>
	<path class="st1" d="M132.97,31.5v172h-67v-172H132.97 M136.97,27.5h-75v180h75V27.5L136.97,27.5z"/>
</g>
<g class="st0">
	<rect x="168.97" y="29.5" class="st2" width="71" height="176"/>
	<path class="st1" d="M237.97,31.5v172h-67v-172H237.97 M241.97,27.5h-75v180h75V27.5L241.97,27.5z"/>
</g>
<rect x="16.96" y="27.5" class="st6" width="25" height="180"/>
<text transform="matrix(1 0 0 1 29.4579 32.5)" class="st7 st8 st9">        </text>
<text transform="matrix(1 0 0 1 29.458 74.69)" class="st7 st10 st11">NO</text>
<text transform="matrix(1 0 0 1 24.3463 47.5)" class="st12 st8 st13">5</text>
<g class="st0">
	<path class="st1" d="M241.97,227.5h-180c-11.05,0-20-8.95-20-20v-50h220v50C261.97,218.55,253.02,227.5,241.97,227.5z"/>
</g>
<g class="st0">
	<path class="st2" d="M241.97,7.5h-180c-11.05,0-20,8.95-20,20v180c0,11.05,8.95,20,20,20h180c11.05,0,20-8.95,20-20v-180
		C261.97,16.45,253.02,7.5,241.97,7.5z M251.97,197.5c0,11.05-8.95,20-20,20h-160c-11.05,0-20-8.95-20-20v-160
		c0-11.05,8.95-20,20-20h160c11.05,0,20,8.95,20,20V197.5z"/>
</g>
<g class="st0">
	<path class="st1" d="M241.97,11.5c8.82,0,16,7.18,16,16v180c0,8.82-7.18,16-16,16h-180c-8.82,0-16-7.18-16-16v-180
		c0-8.82,7.18-16,16-16H241.97 M241.97,7.5h-180c-11.05,0-20,8.95-20,20v180c0,11.05,8.95,20,20,20h180c11.05,0,20-8.95,20-20v-180
		C261.97,16.45,253.02,7.5,241.97,7.5L241.97,7.5z"/>
</g>
<rect x="41.97" y="232.5" class="st3" width="205" height="35"/>
<polygon class="st0" points="149.47,146.67 131.97,142.5 131.97,150.41 "/>
<polygon class="st0" points="124.63,85.85 162.21,72.17 169.92,122.57 151.12,129.41 "/>
<circle class="st0" cx="176.97" cy="147.5" r="10"/>
<rect x="16.96" y="27.5" class="st6" width="25" height="180"/>
<text transform="matrix(1 0 0 1 29.4579 32.5)" class="st7 st8 st9">        </text>
<text transform="matrix(1 0 0 1 29.458 74.69)" class="st7 st10 st11">NO</text>
<text transform="matrix(1 0 0 1 24.5172 47.5)" class="st12 st8 st13">6</text>
<g>
	<path class="st7" d="M241.71,7.59h-180c-11.05,0-20,8.95-20,20v180c0,11.05,8.95,20,20,20h180c11.05,0,20-8.95,20-20v-180
		C261.71,16.54,252.76,7.59,241.71,7.59z M251.71,197.59c0,11.05-8.95,20-20,20h-160c-11.05,0-20-8.95-20-20v-160
		c0-11.05,8.95-20,20-20h160c11.05,0,20,8.95,20,20V197.59z"/>
</g>
<g>
	<path d="M241.71,11.59c8.82,0,16,7.18,16,16v180c0,8.82-7.18,16-16,16h-180c-8.82,0-16-7.18-16-16v-180c0-8.82,7.18-16,16-16
		L241.71,11.59 M241.71,7.59h-180c-11.05,0-20,8.95-20,20v180c0,11.05,8.95,20,20,20h180c11.05,0,20-8.95,20-20v-180
		C261.71,16.54,252.76,7.59,241.71,7.59L241.71,7.59z"/>
</g>
<rect x="41.71" y="232.59" class="st3" width="223.52" height="35"/>
<text transform="matrix(1 0 0 1 41.7137 244.2647)" class="st16 st13">▲ </text>
<text transform="matrix(1 0 0 1 62.5437 244.2647)" class="st17 st13">Organic matter</text>
<text transform="matrix(1 0 0 1 41.7137 260.4647)" class="st17 st13">fragility/emergence</text>
<g>
	<path class="st7" d="M151.24,77.12c-0.82,0-1.55-0.5-1.86-1.26c-1.28-3.2-12.3-31.52-5.48-41.59c1.63-2.41,4.17-3.68,7.34-3.68
		s5.71,1.27,7.34,3.68c3,4.42,2.94,12.84-0.15,25.03c-2.23,8.77-5.2,16.25-5.33,16.56C152.79,76.62,152.06,77.12,151.24,77.12
		L151.24,77.12z"/>
	<path d="M151.24,32.59c17.01,0,0,42.53,0,42.53S134.23,32.59,151.24,32.59 M151.24,28.59c-4.88,0-7.59,2.48-9,4.56
		c-3.38,4.99-3.42,13.7-0.13,26.64c2.26,8.9,5.28,16.49,5.41,16.81c0.61,1.52,2.08,2.51,3.71,2.51c1.64,0,3.11-1,3.71-2.51
		c0.13-0.32,3.15-7.91,5.41-16.81c3.29-12.94,3.25-21.66-0.13-26.64C158.83,31.07,156.12,28.59,151.24,28.59L151.24,28.59z"/>
</g>
<g>
	<path class="st7" d="M199.76,102.63c-12.84,0-31.46-7.39-32.24-7.7c-0.76-0.3-1.26-1.04-1.26-1.86s0.5-1.55,1.26-1.86
		c0.79-0.31,19.41-7.7,32.24-7.7c11.33,0,13.03,5.99,13.03,9.56S211.09,102.63,199.76,102.63z"/>
	<path d="M199.76,85.51c6.3,0,11.03,1.89,11.03,7.56s-4.73,7.56-11.03,7.56c-12.6,0-31.5-7.56-31.5-7.56S187.16,85.51,199.76,85.51
		 M199.76,81.51v4V81.51L199.76,81.51c-13.22,0-32.19,7.53-32.99,7.85c-1.52,0.61-2.51,2.08-2.51,3.71c0,1.64,1,3.11,2.51,3.71
		c0.8,0.32,19.77,7.85,32.99,7.85c13.56,0,15.03-8.08,15.03-11.56C214.79,89.6,213.32,81.51,199.76,81.51L199.76,81.51z"/>
</g>
<g>
	<path class="st7" d="M102.74,102.63c-11.33,0-13.03-5.99-13.03-9.56s1.69-9.56,13.03-9.56c12.84,0,31.46,7.39,32.24,7.7
		c0.76,0.3,1.26,1.04,1.26,1.86s-0.5,1.55-1.26,1.86C134.2,95.24,115.58,102.63,102.74,102.63z"/>
	<path d="M102.74,85.51c12.6,0,31.5,7.56,31.5,7.56s-18.9,7.56-31.5,7.56c-6.3,0-11.03-1.89-11.03-7.56
		C91.71,87.4,96.44,85.51,102.74,85.51 M102.74,81.51L102.74,81.51c-13.56,0-15.03,8.08-15.03,11.56c0,3.48,1.46,11.56,15.03,11.56
		c13.22,0,32.19-7.53,32.99-7.85c1.52-0.61,2.51-2.08,2.51-3.71s-1-3.11-2.51-3.71C134.92,89.04,115.96,81.51,102.74,81.51
		L102.74,81.51z"/>
</g>
<g>
	<path class="st7" d="M163.27,82.09c-0.52,0-1.03-0.2-1.41-0.59c-0.58-0.58-0.75-1.45-0.42-2.2c1.47-3.42,14.69-33.44,27.16-33.44
		c2.26,0,4.34,0.92,6.16,2.75c2.24,2.24,3.14,4.94,2.59,7.79c-1.01,5.24-7,11.16-17.81,17.59c-7.78,4.63-15.17,7.81-15.48,7.94
		C163.8,82.04,163.54,82.09,163.27,82.09z"/>
	<path d="M188.6,47.86c1.65,0,3.24,0.66,4.75,2.16c12.03,12.03-30.07,30.07-30.07,30.07S177.08,47.86,188.6,47.86 M188.6,43.86
		C188.6,43.86,188.59,43.86,188.6,43.86c-6.36,0-13.03,5.9-20.4,18.04c-4.98,8.2-8.46,16.27-8.6,16.61c-0.64,1.5-0.31,3.25,0.85,4.4
		c0.77,0.77,1.79,1.17,2.83,1.17c0.53,0,1.07-0.11,1.57-0.32c0.32-0.14,7.82-3.37,15.71-8.06c11.48-6.83,17.61-13.02,18.75-18.93
		c0.48-2.47,0.32-6.13-3.14-9.59C193.99,45.01,191.37,43.86,188.6,43.86L188.6,43.86z"/>
</g>
<g>
	<path class="st7" d="M187.94,139.05c-12.47,0-25.7-30.02-27.16-33.44c-0.32-0.75-0.15-1.62,0.42-2.2c0.38-0.38,0.89-0.59,1.41-0.59
		c0.27,0,0.53,0.05,0.79,0.16c3.17,1.36,30.99,13.6,33.28,25.53c0.55,2.86-0.34,5.55-2.59,7.79
		C192.27,138.13,190.2,139.05,187.94,139.05z"/>
	<path d="M162.61,104.82c0,0,42.1,18.04,30.07,30.07c-1.5,1.5-3.1,2.16-4.75,2.16C176.42,137.05,162.61,104.82,162.61,104.82
		 M162.61,100.82c-1.04,0-2.06,0.41-2.83,1.17c-1.16,1.16-1.49,2.9-0.85,4.4c0.15,0.34,3.62,8.41,8.6,16.62
		c7.37,12.14,14.04,18.04,20.4,18.04c2.77,0,5.39-1.15,7.57-3.33c3.45-3.45,3.61-7.12,3.14-9.59c-1.14-5.91-7.27-12.1-18.75-18.93
		c-7.89-4.69-15.4-7.92-15.71-8.06C163.68,100.93,163.14,100.82,162.61,100.82L162.61,100.82z"/>
</g>
<g>
	<path class="st7" d="M138.55,82.77c-0.27,0-0.53-0.05-0.79-0.16c-3.17-1.36-30.99-13.6-33.28-25.53c-0.55-2.86,0.34-5.55,2.59-7.79
		c1.82-1.82,3.9-2.75,6.16-2.75c12.47,0,25.7,30.02,27.16,33.44c0.32,0.75,0.15,1.62-0.42,2.2
		C139.58,82.56,139.07,82.77,138.55,82.77z"/>
	<path d="M113.23,48.53c11.51,0,25.32,32.23,25.32,32.23s-42.1-18.04-30.07-30.07C109.99,49.19,111.58,48.53,113.23,48.53
		 M113.23,44.53c-2.77,0-5.39,1.15-7.57,3.33c-3.45,3.45-3.61,7.12-3.14,9.59c1.14,5.91,7.27,12.1,18.75,18.93
		c7.89,4.69,15.4,7.92,15.71,8.06c0.51,0.22,1.04,0.32,1.57,0.32c1.04,0,2.06-0.41,2.83-1.17c1.16-1.16,1.49-2.9,0.85-4.4
		c-0.15-0.34-3.62-8.41-8.6-16.62C126.26,50.44,119.58,44.53,113.23,44.53L113.23,44.53z"/>
</g>
<g>
	<path class="st7" d="M113.89,138.38c-2.26,0-4.34-0.92-6.16-2.75c-2.24-2.24-3.14-4.94-2.59-7.79c1.01-5.24,7-11.16,17.81-17.59
		c7.78-4.63,15.17-7.81,15.48-7.94c0.25-0.11,0.52-0.16,0.79-0.16c0.52,0,1.03,0.2,1.41,0.59c0.58,0.58,0.75,1.45,0.42,2.2
		C139.59,108.36,126.36,138.38,113.89,138.38z"/>
	<path d="M139.21,104.15c0,0-13.81,32.23-25.32,32.23c-1.64,0-3.24-0.66-4.75-2.16C97.12,122.19,139.21,104.15,139.21,104.15
		 M139.21,100.15c-0.53,0-1.07,0.11-1.57,0.32c-0.32,0.14-7.82,3.37-15.71,8.06c-11.48,6.83-17.61,13.02-18.75,18.93
		c-0.48,2.47-0.32,6.13,3.14,9.59c2.18,2.18,4.8,3.33,7.57,3.33c6.36,0,13.03-5.9,20.4-18.04c4.98-8.2,8.46-16.28,8.6-16.62
		c0.64-1.5,0.31-3.25-0.85-4.4C141.28,100.55,140.25,100.15,139.21,100.15L139.21,100.15z M139.21,108.15L139.21,108.15
		L139.21,108.15L139.21,108.15z"/>
</g>
<g>
	<path d="M151.25,199.59c-1.56,0-3.03-0.67-4.06-1.86c-0.12-0.09-0.22-0.18-0.31-0.27l-30.07-30.07c-1.02-1.02-1.58-2.38-1.58-3.82
		s0.56-2.8,1.58-3.82c1.02-1.02,2.38-1.58,3.82-1.58s2.8,0.56,3.82,1.58l21.4,21.4v-29.48c0-2.98,2.42-5.4,5.4-5.4s5.4,2.42,5.4,5.4
		v29.48l21.4-21.4c1.02-1.02,2.38-1.58,3.82-1.58s2.8,0.56,3.82,1.58s1.58,2.38,1.58,3.82s-0.56,2.8-1.58,3.82l-30.07,30.07
		c-0.1,0.1-0.2,0.19-0.31,0.27C154.28,198.92,152.81,199.59,151.25,199.59z"/>
	<path d="M151.25,148.26c1.88,0,3.4,1.52,3.4,3.4v34.31l24.81-24.81c0.66-0.66,1.53-1,2.41-1s1.74,0.33,2.41,1
		c1.33,1.33,1.33,3.48,0,4.81l-30.07,30.07c-0.09,0.09-0.2,0.16-0.29,0.24c-0.62,0.79-1.58,1.3-2.66,1.3s-2.04-0.52-2.66-1.3
		c-0.1-0.08-0.2-0.15-0.29-0.24l-30.07-30.07c-1.33-1.33-1.33-3.48,0-4.81c0.66-0.66,1.53-1,2.41-1s1.74,0.33,2.41,1l24.81,24.81
		v-34.31C147.85,149.78,149.37,148.26,151.25,148.26 M151.25,144.26c-4.08,0-7.4,3.32-7.4,7.4v24.66l-17.98-17.98
		c-1.4-1.4-3.26-2.17-5.23-2.17s-3.84,0.77-5.23,2.17c-1.4,1.4-2.17,3.26-2.17,5.23c0,1.98,0.77,3.84,2.17,5.23l30.07,30.07
		c0.12,0.12,0.24,0.23,0.34,0.31c1.4,1.53,3.36,2.4,5.44,2.4s4.04-0.87,5.44-2.4c0.1-0.09,0.22-0.19,0.34-0.31l30.07-30.07
		c2.89-2.89,2.89-7.58,0-10.47c-1.4-1.4-3.26-2.17-5.23-2.17s-3.84,0.77-5.23,2.17l-17.98,17.98v-24.66
		C158.65,147.58,155.33,144.26,151.25,144.26L151.25,144.26z"/>
</g>
<g>
	<path class="st7" d="M151.24,153.66c-3.17,0-5.71-1.27-7.34-3.68c-2.99-4.42-2.94-12.84,0.15-25.03c2.23-8.77,5.2-16.25,5.33-16.56
		c0.3-0.76,1.04-1.26,1.86-1.26s1.55,0.5,1.86,1.26c1.28,3.2,12.3,31.52,5.48,41.59C156.95,152.39,154.41,153.66,151.24,153.66z"/>
	<path d="M151.24,109.14c0,0,17.01,42.53,0,42.53S151.24,109.14,151.24,109.14 M151.24,105.14c-1.64,0-3.11,1-3.71,2.51
		c-0.13,0.32-3.15,7.91-5.41,16.81c-3.29,12.94-3.25,21.66,0.13,26.64c1.41,2.08,4.11,4.56,9,4.56s7.59-2.48,9-4.56
		c3.38-4.99,3.42-13.7,0.13-26.64c-2.26-8.9-5.28-16.49-5.41-16.81C154.35,106.13,152.87,105.14,151.24,105.14L151.24,105.14z"/>
</g>
<g>
	<path class="st7" d="M151.25,107.14c-8.28,0-15.01-6.73-15.01-15.01s6.73-15.01,15.01-15.01s15.01,6.73,15.01,15.01
		S159.53,107.14,151.25,107.14z"/>
	<path class="st7" d="M151.25,79.12c7.17,0,13.01,5.84,13.01,13.01s-5.84,13.01-13.01,13.01s-13.01-5.84-13.01-13.01
		S144.08,79.12,151.25,79.12 M151.25,75.12c-9.39,0-17.01,7.62-17.01,17.01s7.62,17.01,17.01,17.01s17.01-7.62,17.01-17.01
		S160.64,75.12,151.25,75.12L151.25,75.12z"/>
</g>
<rect x="16.71" y="27.59" class="st18" width="25" height="180"/>
<text transform="matrix(1 0 0 1 29.2135 32.5899)" class="st7 st8 st9">        </text>
<text transform="matrix(1 0 0 1 29.2136 74.7799)" class="st7 st10 st11">YES</text>
<text transform="matrix(1 0 0 1 29.2135 128.7799)" class="st7 st10 st9">  </text>
<text transform="matrix(1 0 0 1 29.2136 140.4099)" class="st7 st10 st11">but</text>
<text transform="matrix(1 0 0 1 19.1879 47.5899)" class="st7 st8 st13">33</text>
</svg>
