<?xml version="1.0" encoding="utf-8"?>
<!-- Generator: Adobe Illustrator 23.0.6, SVG Export Plug-In . SVG Version: 6.00 Build 0)  -->
<svg version="1.1" id="Layer_1" xmlns="http://www.w3.org/2000/svg" xmlns:xlink="http://www.w3.org/1999/xlink" x="0px" y="0px"
	 viewBox="0 0 277.12 270" style="enable-background:new 0 0 277.12 270;" xml:space="preserve">
<style type="text/css">
	.st0{display:none;}
	.st1{display:inline;}
	.st2{display:inline;fill:#FFFFFF;}
	.st3{display:none;fill:#FFFFFF;stroke:#000000;stroke-width:4;stroke-linecap:round;stroke-linejoin:round;stroke-miterlimit:10;}
	.st4{display:none;fill:none;stroke:#FFFFFF;stroke-width:4;stroke-linecap:round;stroke-linejoin:round;stroke-miterlimit:10;}
	.st5{display:none;stroke:#000000;stroke-width:4;stroke-linecap:round;stroke-linejoin:round;stroke-miterlimit:10;}
	.st6{display:none;fill:#FFFFFF;enable-background:new    ;}
	.st7{font-family:'Gilland-Bold';}
	.st8{font-size:18px;}
	.st9{display:none;fill:none;stroke:#000000;stroke-width:4;stroke-linecap:round;stroke-linejoin:round;stroke-miterlimit:10;}
	.st10{display:none;fill:#FFFFFF;}
	.st11{fill:#FFFFFF;}
	.st12{fill:none;}
	.st13{font-family:'AppleSymbols';}
	.st14{font-family:'SVBasicManual';}
	.st15{fill:none;stroke:#000000;stroke-width:4;stroke-linecap:round;stroke-linejoin:round;stroke-miterlimit:10;}
	.st16{fill:none;stroke:#FFFFFF;stroke-width:4;stroke-linecap:round;stroke-linejoin:round;stroke-miterlimit:10;}
	.st17{stroke:#000000;stroke-width:4;stroke-linecap:round;stroke-linejoin:round;stroke-miterlimit:10;}
	.st18{writing-mode:tb;}
	.st19{font-size:18px;glyph-orientation-vertical:1;}
	.st20{font-family:'Gilland-Regular';}
	.st21{font-size:18px;glyph-orientation-vertical:0;}
</style>
<g class="st0">
	<path class="st1" d="M241.96,227.5h-180c-11.05,0-20-8.95-20-20v-70h220v70C261.96,218.55,253.01,227.5,241.96,227.5z"/>
</g>
<g class="st0">
	<path class="st2" d="M241.96,7.5h-180c-11.05,0-20,8.95-20,20v180c0,11.05,8.95,20,20,20h180c11.05,0,20-8.95,20-20v-180
		C261.96,16.45,253.01,7.5,241.96,7.5z M251.96,197.5c0,11.05-8.95,20-20,20h-160c-11.05,0-20-8.95-20-20v-160
		c0-11.05,8.95-20,20-20h160c11.05,0,20,8.95,20,20V197.5z"/>
</g>
<g class="st0">
	<path class="st1" d="M241.96,11.5c8.82,0,16,7.18,16,16v180c0,8.82-7.18,16-16,16h-180c-8.82,0-16-7.18-16-16v-180
		c0-8.82,7.18-16,16-16H241.96 M241.96,7.5h-180c-11.05,0-20,8.95-20,20v180c0,11.05,8.95,20,20,20h180c11.05,0,20-8.95,20-20v-180
		C261.96,16.45,253.01,7.5,241.96,7.5L241.96,7.5z"/>
</g>
<path class="st3" d="M151.96,65h66.4c3.85,0,6.25,4.17,4.33,7.5l-33.2,57.5l-33.2,57.5c-1.92,3.33-6.74,3.33-8.66,0l-33.2-57.5
	l-33.2-57.5c-1.92-3.33,0.48-7.5,4.33-7.5H151.96z"/>
<path class="st0" d="M201.96,157.5c0,4.6-22.39,8.33-50,8.33s-50-3.73-50-8.33v50h100V157.5z"/>
<path class="st4" d="M181.96,176.34c-9.26,0.75-19.39,1.16-30,1.16s-20.74-0.41-30-1.16"/>
<path class="st4" d="M201.96,149.01c18.29,2.93,30,7.44,30,12.49c0,2.81-3.63,5.46-10,7.75"/>
<path class="st4" d="M81.96,169.25c-6.37-2.3-10-4.94-10-7.75c0-5.05,11.71-9.56,30-12.49"/>
<ellipse class="st4" cx="151.96" cy="157.5" rx="50" ry="10"/>
<g class="st0">
	<polygon class="st1" points="131.96,77.5 141.96,127.5 161.96,127.5 171.96,77.5 	"/>
	<circle class="st1" cx="151.96" cy="147.5" r="10"/>
</g>
<path class="st4" d="M151.96,147.5"/>
<rect x="16.96" y="27.5" class="st5" width="25" height="180"/>
<text transform="matrix(1 0 0 1 25.6215 47.5)" class="st6 st7 st8">1</text>
<g class="st0">
	<path class="st2" d="M241.96,7.5h-180c-11.05,0-20,8.95-20,20v180c0,11.05,8.95,20,20,20h180c11.05,0,20-8.95,20-20v-180
		C261.96,16.45,253.01,7.5,241.96,7.5z M251.96,197.5c0,11.05-8.95,20-20,20h-160c-11.05,0-20-8.95-20-20v-160
		c0-11.05,8.95-20,20-20h160c11.05,0,20,8.95,20,20V197.5z"/>
</g>
<g class="st0">
	<path class="st1" d="M241.96,11.5c8.82,0,16,7.18,16,16v180c0,8.82-7.18,16-16,16h-180c-8.82,0-16-7.18-16-16v-180
		c0-8.82,7.18-16,16-16H241.96 M241.96,7.5h-180c-11.05,0-20,8.95-20,20v180c0,11.05,8.95,20,20,20h180c11.05,0,20-8.95,20-20v-180
		C261.96,16.45,253.01,7.5,241.96,7.5L241.96,7.5z"/>
</g>
<rect x="131.96" y="47.5" class="st5" width="40" height="40"/>
<rect x="131.96" y="147.5" class="st9" width="40" height="40"/>
<path class="st9" d="M171.96,187.5c38.66,0,70-31.34,70-70s-31.34-70-70-70v40c16.57,0,30,13.43,30,30s-13.43,30-30,30V187.5z"/>
<rect x="101.96" y="47.5" class="st5" width="20" height="40"/>
<rect x="81.96" y="47.5" class="st5" width="10" height="40"/>
<rect x="101.96" y="147.5" class="st5" width="20" height="40"/>
<rect x="81.96" y="147.5" class="st5" width="10" height="40"/>
<rect x="71.97" y="47.5" class="st5" width="0.01" height="40"/>
<rect x="71.97" y="147.5" class="st5" width="0.01" height="40"/>
<rect x="16.96" y="27.5" class="st5" width="25" height="180"/>
<text transform="matrix(1 0 0 1 24.2446 47.5)" class="st6 st7 st8">2</text>
<g class="st0">
	<g class="st1">
		<path d="M241.96,7.5h-180c-11.05,0-20,8.95-20,20v180c0,11.05,8.95,20,20,20h180c11.05,0,20-8.95,20-20v-180
			C261.96,16.45,253.01,7.5,241.96,7.5z M251.96,197.5c0,11.05-8.95,20-20,20h-160c-11.05,0-20-8.95-20-20v-160
			c0-11.05,8.95-20,20-20h160c11.05,0,20,8.95,20,20V197.5z"/>
	</g>
	<g class="st1">
		<path d="M241.96,11.5c8.82,0,16,7.18,16,16v180c0,8.82-7.18,16-16,16h-180c-8.82,0-16-7.18-16-16v-180c0-8.82,7.18-16,16-16
			H241.96 M241.96,7.5h-180c-11.05,0-20,8.95-20,20v180c0,11.05,8.95,20,20,20h180c11.05,0,20-8.95,20-20v-180
			C261.96,16.45,253.01,7.5,241.96,7.5L241.96,7.5z"/>
	</g>
</g>
<rect x="61.96" y="27.5" class="st3" width="85" height="180"/>
<rect x="156.96" y="27.5" class="st3" width="85" height="180"/>
<rect x="71.96" y="37.5" class="st0" width="75" height="10"/>
<rect x="71.96" y="57.5" class="st0" width="75" height="10"/>
<rect x="71.96" y="77.5" class="st0" width="75" height="10"/>
<rect x="71.96" y="97.5" class="st0" width="75" height="10"/>
<rect x="71.96" y="117.5" class="st0" width="75" height="10"/>
<path class="st0" d="M121.96,172.5h-30c-5.5,0-10-4.5-10-10l0,0c0-5.5,4.5-10,10-10h30c5.5,0,10,4.5,10,10l0,0
	C131.96,168,127.46,172.5,121.96,172.5z"/>
<path class="st0" d="M211.96,47.5h-10c-5.5,0-10,4.5-10,10v20c0,5.5,4.5,10,10,10h10c5.5,0,10-4.5,10-10v-20
	C221.96,52,217.46,47.5,211.96,47.5z"/>
<path class="st0" d="M211.96,137.5h-10c-5.5,0-10,4.5-10,10v20c0,5.5,4.5,10,10,10h10c5.5,0,10-4.5,10-10v-20
	C221.96,142,217.46,137.5,211.96,137.5z"/>
<rect x="201.96" y="77.5" class="st0" width="10" height="70"/>
<line class="st9" x1="211.96" y1="157.5" x2="211.96" y2="207.5"/>
<rect x="16.96" y="27.5" class="st5" width="25" height="180"/>
<text transform="matrix(1 0 0 1 24.4516 47.5)" class="st6 st7 st8">3</text>
<rect x="51.96" y="17.5" class="st0" width="200" height="200"/>
<g class="st0">
	<path class="st2" d="M241.96,7.5h-180c-11.05,0-20,8.95-20,20v180c0,11.05,8.95,20,20,20h180c11.05,0,20-8.95,20-20v-180
		C261.96,16.45,253.01,7.5,241.96,7.5z M251.96,197.5c0,11.05-8.95,20-20,20h-160c-11.05,0-20-8.95-20-20v-160
		c0-11.05,8.95-20,20-20h160c11.05,0,20,8.95,20,20V197.5z"/>
</g>
<g class="st0">
	<path class="st1" d="M241.96,11.5c8.82,0,16,7.18,16,16v180c0,8.82-7.18,16-16,16h-180c-8.82,0-16-7.18-16-16v-180
		c0-8.82,7.18-16,16-16H241.96 M241.96,7.5h-180c-11.05,0-20,8.95-20,20v180c0,11.05,8.95,20,20,20h180c11.05,0,20-8.95,20-20v-180
		C261.96,16.45,253.01,7.5,241.96,7.5L241.96,7.5z"/>
</g>
<polygon class="st10" points="241.96,207.5 241.96,27.5 61.96,27.5 "/>
<path class="st3" d="M81.96,112.5v-45c0-11.03,8.97-20,20-20h100c11.03,0,20,8.97,20,20v45h-10"/>
<path class="st3" d="M81.96,127.5v40c0,11.03,8.97,20,20,20h100c11.03,0,20-8.97,20-20v-40h-10"/>
<path class="st3" d="M101.96,177.5c-5.52,0-10-4.48-10-10v-100c0-5.52,4.48-10,10-10h100c5.52,0,10,4.48,10,10v100
	c0,5.52-4.48,10-10,10H101.96z"/>
<g class="st0">
	<polygon class="st1" points="131.96,77.5 141.96,127.5 161.96,127.5 171.96,77.5 	"/>
</g>
<rect x="141.96" y="142.5" class="st0" width="20" height="15"/>
<path class="st9" d="M146.96,142.5v-5c0-2.76,2.24-5,5-5s5,2.24,5,5v5"/>
<rect x="16.96" y="27.5" class="st5" width="25" height="180"/>
<text transform="matrix(1 0 0 1 24.1274 47.5)" class="st6 st7 st8">4</text>
<g class="st0">
	<path class="st2" d="M241.97,7.5h-180c-11.05,0-20,8.95-20,20v180c0,11.05,8.95,20,20,20h180c11.05,0,20-8.95,20-20v-180
		C261.97,16.45,253.02,7.5,241.97,7.5z M251.97,197.5c0,11.05-8.95,20-20,20h-160c-11.05,0-20-8.95-20-20v-160
		c0-11.05,8.95-20,20-20h160c11.05,0,20,8.95,20,20V197.5z"/>
</g>
<g class="st0">
	<path class="st1" d="M241.97,11.5c8.82,0,16,7.18,16,16v180c0,8.82-7.18,16-16,16h-180c-8.82,0-16-7.18-16-16v-180
		c0-8.82,7.18-16,16-16H241.97 M241.97,7.5h-180c-11.05,0-20,8.95-20,20v180c0,11.05,8.95,20,20,20h180c11.05,0,20-8.95,20-20v-180
		C261.97,16.45,253.02,7.5,241.97,7.5L241.97,7.5z"/>
</g>
<polygon class="st0" points="131.97,77.5 171.97,77.5 161.97,127.5 141.97,127.5 "/>
<circle class="st0" cx="151.97" cy="147.5" r="10"/>
<g class="st0">
	<rect x="63.97" y="29.5" class="st2" width="71" height="176"/>
	<path class="st1" d="M132.97,31.5v172h-67v-172H132.97 M136.97,27.5h-75v180h75V27.5L136.97,27.5z"/>
</g>
<g class="st0">
	<rect x="168.97" y="29.5" class="st2" width="71" height="176"/>
	<path class="st1" d="M237.97,31.5v172h-67v-172H237.97 M241.97,27.5h-75v180h75V27.5L241.97,27.5z"/>
</g>
<rect x="16.96" y="27.5" class="st5" width="25" height="180"/>
<text transform="matrix(1 0 0 1 24.3463 47.5)" class="st6 st7 st8">5</text>
<g class="st0">
	<path class="st1" d="M241.97,227.5h-180c-11.05,0-20-8.95-20-20v-50h220v50C261.97,218.55,253.02,227.5,241.97,227.5z"/>
</g>
<g class="st0">
	<path class="st2" d="M241.97,7.5h-180c-11.05,0-20,8.95-20,20v180c0,11.05,8.95,20,20,20h180c11.05,0,20-8.95,20-20v-180
		C261.97,16.45,253.02,7.5,241.97,7.5z M251.97,197.5c0,11.05-8.95,20-20,20h-160c-11.05,0-20-8.95-20-20v-160
		c0-11.05,8.95-20,20-20h160c11.05,0,20,8.95,20,20V197.5z"/>
</g>
<g class="st0">
	<path class="st1" d="M241.97,11.5c8.82,0,16,7.18,16,16v180c0,8.82-7.18,16-16,16h-180c-8.82,0-16-7.18-16-16v-180
		c0-8.82,7.18-16,16-16H241.97 M241.97,7.5h-180c-11.05,0-20,8.95-20,20v180c0,11.05,8.95,20,20,20h180c11.05,0,20-8.95,20-20v-180
		C261.97,16.45,253.02,7.5,241.97,7.5L241.97,7.5z"/>
</g>
<polygon class="st0" points="149.47,146.67 131.97,142.5 131.97,150.41 "/>
<polygon class="st0" points="124.63,85.85 162.21,72.17 169.92,122.57 151.12,129.41 "/>
<circle class="st0" cx="176.97" cy="147.5" r="10"/>
<rect x="16.96" y="27.5" class="st5" width="25" height="180"/>
<text transform="matrix(1 0 0 1 24.5172 47.5)" class="st6 st7 st8">6</text>
<g>
	<path d="M241.56,227.59h-180c-11.05,0-20-8.95-20-20v-180c0-11.05,8.95-20,20-20h180c11.05,0,20,8.95,20,20v180
		C261.56,218.64,252.6,227.59,241.56,227.59z"/>
</g>
<g>
	<path class="st11" d="M241.56,227.59h-180c-11.05,0-20-8.95-20-20v-50h220v50C261.56,218.64,252.6,227.59,241.56,227.59z"/>
</g>
<g>
	<path class="st11" d="M241.56,7.59h-180c-11.05,0-20,8.95-20,20v180c0,11.05,8.95,20,20,20h180c11.05,0,20-8.95,20-20v-180
		C261.56,16.54,252.6,7.59,241.56,7.59z M251.56,197.59c0,11.05-8.95,20-20,20h-160c-11.05,0-20-8.95-20-20v-160
		c0-11.05,8.95-20,20-20h160c11.05,0,20,8.95,20,20V197.59z"/>
</g>
<g>
	<path d="M241.56,11.59c8.82,0,16,7.18,16,16v180c0,8.82-7.18,16-16,16h-180c-8.82,0-16-7.18-16-16v-180c0-8.82,7.18-16,16-16
		H241.56 M241.56,7.59h-180c-11.05,0-20,8.95-20,20v180c0,11.05,8.95,20,20,20h180c11.05,0,20-8.95,20-20v-180
		C261.56,16.54,252.6,7.59,241.56,7.59L241.56,7.59z"/>
</g>
<rect x="41.56" y="232.59" class="st12" width="248.84" height="35"/>
<text transform="matrix(1 0 0 1 41.5551 244.2648)"><tspan x="0" y="0" class="st13 st8">▲ </tspan><tspan x="20.83" y="0" class="st14 st8">Simulated reality</tspan><tspan x="0" y="16.2" class="st14 st8">illusion/replacement</tspan></text>
<path class="st15" d="M251.56,197.59c0,11.05-8.95,20-20,20h-160c-11.05,0-20-8.95-20-20v-160c0-11.05,8.95-20,20-20h160
	c11.05,0,20,8.95,20,20V197.59z"/>
<g>
	<path d="M204.55,186.76c-2.21,0-4-1.79-4-4v-35.34l-3.17,3.17c-0.76,0.76-1.76,1.17-2.83,1.17s-2.07-0.42-2.83-1.17
		c-1.56-1.56-1.56-4.1,0-5.66l3.19-3.19c-0.12,0.01-0.24,0.02-0.36,0.02c-1.07,0-2.07-0.42-2.83-1.17
		c-0.76-0.76-1.17-1.76-1.17-2.83s0.42-2.07,1.17-2.83l3.19-3.19c-0.12,0.01-0.24,0.02-0.36,0.02c-1.07,0-2.07-0.42-2.83-1.17
		c-0.76-0.76-1.17-1.76-1.17-2.83s0.42-2.07,1.17-2.83l3.19-3.19c-0.12,0.01-0.24,0.02-0.36,0.02c-1.07,0-2.07-0.42-2.83-1.17
		c-0.76-0.76-1.17-1.76-1.17-2.83s0.42-2.07,1.17-2.83l3.19-3.19c-0.12,0.01-0.24,0.02-0.36,0.02c-1.07,0-2.07-0.42-2.83-1.17
		c-0.76-0.76-1.17-1.76-1.17-2.83s0.42-2.07,1.17-2.83l3.19-3.19c-0.12,0.01-0.24,0.02-0.36,0.02c-1.07,0-2.07-0.42-2.83-1.17
		c-0.76-0.76-1.17-1.76-1.17-2.83s0.42-2.07,1.17-2.83l10-10c0.18-0.18,0.38-0.35,0.61-0.5c0.09-0.06,0.2-0.12,0.31-0.18
		c0.13-0.07,0.25-0.14,0.38-0.19c0.13-0.05,0.25-0.09,0.38-0.13c0.14-0.04,0.25-0.08,0.38-0.1c0.25-0.05,0.52-0.08,0.78-0.08
		s0.52,0.03,0.78,0.08c0.12,0.02,0.24,0.06,0.35,0.1c0.15,0.04,0.27,0.08,0.39,0.13c0.13,0.06,0.26,0.12,0.38,0.19
		c0.12,0.06,0.22,0.12,0.33,0.19c0.22,0.14,0.42,0.31,0.61,0.5l9.99,9.99c0.76,0.76,1.17,1.76,1.17,2.83s-0.42,2.07-1.17,2.83
		c-0.76,0.76-1.76,1.17-2.83,1.17c-0.12,0-0.24-0.01-0.36-0.02l3.19,3.19c0.76,0.76,1.17,1.76,1.17,2.83s-0.42,2.07-1.17,2.83
		c-0.76,0.76-1.76,1.17-2.83,1.17c-0.12,0-0.24-0.01-0.36-0.02l3.19,3.19c0.76,0.76,1.17,1.76,1.17,2.83s-0.42,2.07-1.17,2.83
		c-0.76,0.76-1.76,1.17-2.83,1.17c-0.12,0-0.24-0.01-0.36-0.02l3.19,3.19c0.76,0.76,1.17,1.76,1.17,2.83s-0.42,2.07-1.17,2.83
		c-0.76,0.76-1.76,1.17-2.83,1.17c-0.12,0-0.24-0.01-0.36-0.02l3.19,3.19c0.76,0.76,1.17,1.76,1.17,2.83s-0.42,2.07-1.17,2.83
		c-0.76,0.75-1.76,1.17-2.83,1.17c-0.12,0-0.24,0-0.36-0.02l3.19,3.19c1.56,1.56,1.56,4.1,0,5.66c-0.76,0.76-1.76,1.17-2.83,1.17
		s-2.07-0.42-2.83-1.17l-3.17-3.17v35.34C208.55,184.97,206.76,186.76,204.55,186.76z"/>
	<path class="st11" d="M204.56,85.76c0.13,0,0.26,0.01,0.39,0.04c0.06,0.01,0.12,0.03,0.17,0.05c0.07,0.02,0.13,0.04,0.2,0.06
		c0.07,0.03,0.13,0.07,0.2,0.1c0.05,0.03,0.1,0.05,0.15,0.08c0.11,0.07,0.21,0.16,0.31,0.25l10,10c0.78,0.78,0.78,2.05,0,2.83
		c-0.39,0.39-0.9,0.59-1.41,0.59s-1.02-0.2-1.41-0.59l-6.59-6.59v4.34l9.41,9.41c0.78,0.78,0.78,2.05,0,2.83
		c-0.39,0.39-0.9,0.59-1.41,0.59s-1.02-0.2-1.41-0.59l-6.59-6.59v4.34l9.41,9.41c0.78,0.78,0.78,2.05,0,2.83
		c-0.39,0.39-0.9,0.59-1.41,0.59s-1.02-0.2-1.41-0.59l-6.59-6.59v4.34l9.41,9.41c0.78,0.78,0.78,2.05,0,2.83
		c-0.39,0.39-0.9,0.59-1.41,0.59s-1.02-0.2-1.41-0.59l-6.59-6.59v4.34l9.41,9.41c0.78,0.78,0.78,2.05,0,2.83
		c-0.39,0.39-0.9,0.59-1.41,0.59s-1.02-0.2-1.41-0.59l-6.59-6.59v4.34l9.41,9.41c0.78,0.78,0.78,2.05,0,2.83
		c-0.39,0.39-0.9,0.59-1.41,0.59s-1.02-0.2-1.41-0.59l-6.59-6.59v40.17c0,1.1-0.9,2-2,2s-2-0.9-2-2v-40.17l-6.59,6.59
		c-0.39,0.39-0.9,0.59-1.41,0.59s-1.02-0.2-1.41-0.59c-0.78-0.78-0.78-2.05,0-2.83l9.41-9.41v-4.34l-6.59,6.59
		c-0.39,0.39-0.9,0.59-1.41,0.59s-1.02-0.2-1.41-0.59c-0.78-0.78-0.78-2.05,0-2.83l9.41-9.41v-4.34l-6.59,6.59
		c-0.39,0.39-0.9,0.59-1.41,0.59s-1.02-0.2-1.41-0.59c-0.78-0.78-0.78-2.05,0-2.83l9.41-9.41v-4.34l-6.59,6.59
		c-0.39,0.39-0.9,0.59-1.41,0.59s-1.02-0.2-1.41-0.59c-0.78-0.78-0.78-2.05,0-2.83l9.41-9.41v-4.34l-6.59,6.59
		c-0.39,0.39-0.9,0.59-1.41,0.59s-1.02-0.2-1.41-0.59c-0.78-0.78-0.78-2.05,0-2.83l9.41-9.41v-4.34l-6.59,6.59
		c-0.39,0.39-0.9,0.59-1.41,0.59s-1.02-0.2-1.41-0.59c-0.78-0.78-0.78-2.05,0-2.83l10-10c0.09-0.09,0.2-0.18,0.31-0.25
		c0.05-0.03,0.1-0.05,0.15-0.08c0.06-0.04,0.13-0.07,0.2-0.1c0.07-0.03,0.13-0.04,0.2-0.06c0.06-0.02,0.11-0.04,0.17-0.05
		C204.29,85.78,204.42,85.76,204.56,85.76 M204.56,81.76c-0.39,0-0.79,0.04-1.17,0.12c-0.24,0.05-0.44,0.11-0.55,0.14
		c-0.11,0.03-0.32,0.09-0.57,0.19c-0.26,0.11-0.46,0.22-0.57,0.28c-0.13,0.07-0.29,0.15-0.47,0.28c-0.33,0.22-0.64,0.47-0.91,0.75
		l-10,10c-2.34,2.34-2.34,6.15,0,8.49c0.26,0.26,0.53,0.49,0.82,0.69l-0.82,0.82c-2.34,2.34-2.34,6.15,0,8.49
		c0.26,0.26,0.53,0.49,0.82,0.69l-0.82,0.82c-2.34,2.34-2.34,6.15,0,8.49c0.26,0.26,0.53,0.49,0.82,0.69l-0.82,0.82
		c-2.34,2.34-2.34,6.15,0,8.49c0.26,0.26,0.53,0.49,0.82,0.69l-0.82,0.82c-2.34,2.34-2.34,6.15,0,8.49
		c0.26,0.26,0.53,0.49,0.82,0.69l-0.82,0.82c-2.34,2.34-2.34,6.15,0,8.49c1.13,1.13,2.64,1.76,4.24,1.76c1.49,0,2.9-0.54,4-1.53
		v30.53c0,3.31,2.69,6,6,6s6-2.69,6-6v-30.53c1.1,0.99,2.51,1.53,4,1.53c1.6,0,3.11-0.62,4.24-1.76c2.34-2.34,2.34-6.15,0-8.48
		l-0.82-0.82c0.29-0.2,0.57-0.43,0.82-0.69c2.34-2.34,2.34-6.15,0-8.48l-0.82-0.82c0.29-0.2,0.57-0.43,0.82-0.69
		c2.34-2.34,2.34-6.15,0-8.48l-0.82-0.82c0.29-0.2,0.57-0.43,0.82-0.69c2.34-2.34,2.34-6.15,0-8.48l-0.82-0.82
		c0.29-0.2,0.57-0.43,0.82-0.69c2.34-2.34,2.34-6.15,0-8.48l-0.82-0.82c0.29-0.2,0.57-0.43,0.82-0.69c2.34-2.34,2.34-6.15,0-8.48
		l-10-10c-0.27-0.27-0.58-0.53-0.91-0.75c-0.18-0.12-0.34-0.21-0.47-0.28c-0.11-0.06-0.31-0.17-0.56-0.28
		c-0.25-0.1-0.46-0.16-0.58-0.2c-0.11-0.04-0.31-0.1-0.55-0.14C205.34,81.8,204.95,81.76,204.56,81.76L204.56,81.76z"/>
</g>
<g>
	<path d="M136.55,189.59c-1.1,0-2-0.9-2-2v-10c0-4.41-3.59-8-8-8s-8,3.59-8,8v10c0,1.1-0.9,2-2,2h-25c-1.1,0-2-0.9-2-2v-58h-8
		c-0.94,0-1.76-0.66-1.96-1.58c-0.2-0.92,0.28-1.86,1.14-2.24l45-20c0.26-0.11,0.54-0.17,0.81-0.17s0.55,0.06,0.81,0.17l45,20
		c0.86,0.38,1.34,1.32,1.14,2.24c-0.2,0.92-1.01,1.58-1.96,1.58h-8v58c0,1.1-0.9,2-2,2H136.55z M149.55,150.59v-11h-11v11H149.55z"
		/>
	<path class="st11" d="M126.56,107.59l45,20h-10v60h-25v-10c0-5.5-4.5-10-10-10s-10,4.5-10,10v10h-25v-60h-10L126.56,107.59
		 M136.56,152.59h15v-15h-15V152.59 M126.56,103.59c-0.55,0-1.11,0.11-1.62,0.34l-45,20c-1.73,0.77-2.68,2.64-2.29,4.49
		c0.39,1.85,2.02,3.17,3.91,3.17h6v56c0,2.21,1.79,4,4,4h25c2.21,0,4-1.79,4-4v-10c0-3.31,2.69-6,6-6c3.31,0,6,2.69,6,6v10
		c0,2.21,1.79,4,4,4h25c2.21,0,4-1.79,4-4v-56h6c1.89,0,3.52-1.32,3.91-3.17c0.39-1.85-0.56-3.72-2.29-4.49l-45-20
		C127.66,103.7,127.11,103.59,126.56,103.59L126.56,103.59z M140.56,141.59h7v7h-7V141.59L140.56,141.59z"/>
</g>
<circle class="st11" cx="116.56" cy="49.26" r="10"/>
<path class="st16" d="M91.56,50.92c0,0,8.33-16.67,25-16.67s25,16.67,25,16.67s-8.33,16.67-25,16.67S91.56,50.92,91.56,50.92z"/>
<circle class="st11" cx="191.56" cy="49.26" r="10"/>
<path class="st16" d="M166.56,50.92c0,0,8.33-16.67,25-16.67s25,16.67,25,16.67s-8.33,16.67-25,16.67S166.56,50.92,166.56,50.92z"/>
<rect x="16.54" y="27.59" class="st17" width="25" height="180"/>
<text transform="matrix(1 0 0 1 29.0427 32.59)" class="st18"><tspan x="0" y="0" class="st11 st7 st19">        </tspan><tspan x="0" y="42.19" class="st11 st20 st21">YES</tspan><tspan x="0" y="96.19" class="st11 st20 st19">  </tspan><tspan x="0" y="107.82" class="st11 st20 st21">but</tspan></text>
<text transform="matrix(1 0 0 1 18.9178 47.59)" class="st11 st7 st8">35</text>
</svg>
