<?xml version="1.0" encoding="utf-8"?>
<!-- Generator: Adobe Illustrator 23.0.6, SVG Export Plug-In . SVG Version: 6.00 Build 0)  -->
<svg version="1.1" id="Layer_1" xmlns="http://www.w3.org/2000/svg" xmlns:xlink="http://www.w3.org/1999/xlink" x="0px" y="0px"
	 viewBox="0 0 277.12 270" style="enable-background:new 0 0 277.12 270;" xml:space="preserve">
<style type="text/css">
	.st0{display:none;}
	.st1{display:inline;}
	.st2{display:inline;fill:#FFFFFF;}
	.st3{display:none;fill:#FFFFFF;stroke:#000000;stroke-width:4;stroke-linecap:round;stroke-linejoin:round;stroke-miterlimit:10;}
	.st4{display:none;fill:none;stroke:#FFFFFF;stroke-width:4;stroke-linecap:round;stroke-linejoin:round;stroke-miterlimit:10;}
	.st5{display:none;stroke:#000000;stroke-width:4;stroke-linecap:round;stroke-linejoin:round;stroke-miterlimit:10;}
	.st6{display:none;fill:#FFFFFF;enable-background:new    ;}
	.st7{font-family:'Gilland-Bold';}
	.st8{font-size:18px;}
	.st9{display:none;fill:none;stroke:#000000;stroke-width:4;stroke-linecap:round;stroke-linejoin:round;stroke-miterlimit:10;}
	.st10{display:none;fill:#FFFFFF;}
	.st11{fill:none;}
	.st12{font-family:'AppleSymbols';}
	.st13{font-family:'SVBasicManual';}
	.st14{stroke:#FFFFFF;stroke-width:4;stroke-linecap:round;stroke-linejoin:round;stroke-miterlimit:10;}
	.st15{fill:#FFFFFF;}
	.st16{stroke:#000000;stroke-width:4;stroke-linecap:round;stroke-linejoin:round;stroke-miterlimit:10;}
	.st17{writing-mode:tb;}
	.st18{font-size:18px;glyph-orientation-vertical:1;}
	.st19{font-family:'Gilland-Regular';}
	.st20{font-size:18px;glyph-orientation-vertical:0;}
</style>
<g class="st0">
	<path class="st1" d="M241.96,227.5h-180c-11.05,0-20-8.95-20-20v-70h220v70C261.96,218.55,253.01,227.5,241.96,227.5z"/>
</g>
<g class="st0">
	<path class="st2" d="M241.96,7.5h-180c-11.05,0-20,8.95-20,20v180c0,11.05,8.95,20,20,20h180c11.05,0,20-8.95,20-20v-180
		C261.96,16.45,253.01,7.5,241.96,7.5z M251.96,197.5c0,11.05-8.95,20-20,20h-160c-11.05,0-20-8.95-20-20v-160
		c0-11.05,8.95-20,20-20h160c11.05,0,20,8.95,20,20V197.5z"/>
</g>
<g class="st0">
	<path class="st1" d="M241.96,11.5c8.82,0,16,7.18,16,16v180c0,8.82-7.18,16-16,16h-180c-8.82,0-16-7.18-16-16v-180
		c0-8.82,7.18-16,16-16H241.96 M241.96,7.5h-180c-11.05,0-20,8.95-20,20v180c0,11.05,8.95,20,20,20h180c11.05,0,20-8.95,20-20v-180
		C261.96,16.45,253.01,7.5,241.96,7.5L241.96,7.5z"/>
</g>
<path class="st3" d="M151.96,65h66.4c3.85,0,6.25,4.17,4.33,7.5l-33.2,57.5l-33.2,57.5c-1.92,3.33-6.74,3.33-8.66,0l-33.2-57.5
	l-33.2-57.5c-1.92-3.33,0.48-7.5,4.33-7.5H151.96z"/>
<path class="st0" d="M201.96,157.5c0,4.6-22.39,8.33-50,8.33s-50-3.73-50-8.33v50h100V157.5z"/>
<path class="st4" d="M181.96,176.34c-9.26,0.75-19.39,1.16-30,1.16s-20.74-0.41-30-1.16"/>
<path class="st4" d="M201.96,149.01c18.29,2.93,30,7.44,30,12.49c0,2.81-3.63,5.46-10,7.75"/>
<path class="st4" d="M81.96,169.25c-6.37-2.3-10-4.94-10-7.75c0-5.05,11.71-9.56,30-12.49"/>
<ellipse class="st4" cx="151.96" cy="157.5" rx="50" ry="10"/>
<g class="st0">
	<polygon class="st1" points="131.96,77.5 141.96,127.5 161.96,127.5 171.96,77.5 	"/>
	<circle class="st1" cx="151.96" cy="147.5" r="10"/>
</g>
<path class="st4" d="M151.96,147.5"/>
<rect x="16.96" y="27.5" class="st5" width="25" height="180"/>
<text transform="matrix(1 0 0 1 25.6215 47.5)" class="st6 st7 st8">1</text>
<g class="st0">
	<path class="st2" d="M241.96,7.5h-180c-11.05,0-20,8.95-20,20v180c0,11.05,8.95,20,20,20h180c11.05,0,20-8.95,20-20v-180
		C261.96,16.45,253.01,7.5,241.96,7.5z M251.96,197.5c0,11.05-8.95,20-20,20h-160c-11.05,0-20-8.95-20-20v-160
		c0-11.05,8.95-20,20-20h160c11.05,0,20,8.95,20,20V197.5z"/>
</g>
<g class="st0">
	<path class="st1" d="M241.96,11.5c8.82,0,16,7.18,16,16v180c0,8.82-7.18,16-16,16h-180c-8.82,0-16-7.18-16-16v-180
		c0-8.82,7.18-16,16-16H241.96 M241.96,7.5h-180c-11.05,0-20,8.95-20,20v180c0,11.05,8.95,20,20,20h180c11.05,0,20-8.95,20-20v-180
		C261.96,16.45,253.01,7.5,241.96,7.5L241.96,7.5z"/>
</g>
<rect x="131.96" y="47.5" class="st5" width="40" height="40"/>
<rect x="131.96" y="147.5" class="st9" width="40" height="40"/>
<path class="st9" d="M171.96,187.5c38.66,0,70-31.34,70-70s-31.34-70-70-70v40c16.57,0,30,13.43,30,30s-13.43,30-30,30V187.5z"/>
<rect x="101.96" y="47.5" class="st5" width="20" height="40"/>
<rect x="81.96" y="47.5" class="st5" width="10" height="40"/>
<rect x="101.96" y="147.5" class="st5" width="20" height="40"/>
<rect x="81.96" y="147.5" class="st5" width="10" height="40"/>
<rect x="71.97" y="47.5" class="st5" width="0.01" height="40"/>
<rect x="71.97" y="147.5" class="st5" width="0.01" height="40"/>
<rect x="16.96" y="27.5" class="st5" width="25" height="180"/>
<text transform="matrix(1 0 0 1 24.2446 47.5)" class="st6 st7 st8">2</text>
<g class="st0">
	<g class="st1">
		<path d="M241.96,7.5h-180c-11.05,0-20,8.95-20,20v180c0,11.05,8.95,20,20,20h180c11.05,0,20-8.95,20-20v-180
			C261.96,16.45,253.01,7.5,241.96,7.5z M251.96,197.5c0,11.05-8.95,20-20,20h-160c-11.05,0-20-8.95-20-20v-160
			c0-11.05,8.95-20,20-20h160c11.05,0,20,8.95,20,20V197.5z"/>
	</g>
	<g class="st1">
		<path d="M241.96,11.5c8.82,0,16,7.18,16,16v180c0,8.82-7.18,16-16,16h-180c-8.82,0-16-7.18-16-16v-180c0-8.82,7.18-16,16-16
			H241.96 M241.96,7.5h-180c-11.05,0-20,8.95-20,20v180c0,11.05,8.95,20,20,20h180c11.05,0,20-8.95,20-20v-180
			C261.96,16.45,253.01,7.5,241.96,7.5L241.96,7.5z"/>
	</g>
</g>
<rect x="61.96" y="27.5" class="st3" width="85" height="180"/>
<rect x="156.96" y="27.5" class="st3" width="85" height="180"/>
<rect x="71.96" y="37.5" class="st0" width="75" height="10"/>
<rect x="71.96" y="57.5" class="st0" width="75" height="10"/>
<rect x="71.96" y="77.5" class="st0" width="75" height="10"/>
<rect x="71.96" y="97.5" class="st0" width="75" height="10"/>
<rect x="71.96" y="117.5" class="st0" width="75" height="10"/>
<path class="st0" d="M121.96,172.5h-30c-5.5,0-10-4.5-10-10l0,0c0-5.5,4.5-10,10-10h30c5.5,0,10,4.5,10,10l0,0
	C131.96,168,127.46,172.5,121.96,172.5z"/>
<path class="st0" d="M211.96,47.5h-10c-5.5,0-10,4.5-10,10v20c0,5.5,4.5,10,10,10h10c5.5,0,10-4.5,10-10v-20
	C221.96,52,217.46,47.5,211.96,47.5z"/>
<path class="st0" d="M211.96,137.5h-10c-5.5,0-10,4.5-10,10v20c0,5.5,4.5,10,10,10h10c5.5,0,10-4.5,10-10v-20
	C221.96,142,217.46,137.5,211.96,137.5z"/>
<rect x="201.96" y="77.5" class="st0" width="10" height="70"/>
<line class="st9" x1="211.96" y1="157.5" x2="211.96" y2="207.5"/>
<rect x="16.96" y="27.5" class="st5" width="25" height="180"/>
<text transform="matrix(1 0 0 1 24.4516 47.5)" class="st6 st7 st8">3</text>
<rect x="51.96" y="17.5" class="st0" width="200" height="200"/>
<g class="st0">
	<path class="st2" d="M241.96,7.5h-180c-11.05,0-20,8.95-20,20v180c0,11.05,8.95,20,20,20h180c11.05,0,20-8.95,20-20v-180
		C261.96,16.45,253.01,7.5,241.96,7.5z M251.96,197.5c0,11.05-8.95,20-20,20h-160c-11.05,0-20-8.95-20-20v-160
		c0-11.05,8.95-20,20-20h160c11.05,0,20,8.95,20,20V197.5z"/>
</g>
<g class="st0">
	<path class="st1" d="M241.96,11.5c8.82,0,16,7.18,16,16v180c0,8.82-7.18,16-16,16h-180c-8.82,0-16-7.18-16-16v-180
		c0-8.82,7.18-16,16-16H241.96 M241.96,7.5h-180c-11.05,0-20,8.95-20,20v180c0,11.05,8.95,20,20,20h180c11.05,0,20-8.95,20-20v-180
		C261.96,16.45,253.01,7.5,241.96,7.5L241.96,7.5z"/>
</g>
<polygon class="st10" points="241.96,207.5 241.96,27.5 61.96,27.5 "/>
<path class="st3" d="M81.96,112.5v-45c0-11.03,8.97-20,20-20h100c11.03,0,20,8.97,20,20v45h-10"/>
<path class="st3" d="M81.96,127.5v40c0,11.03,8.97,20,20,20h100c11.03,0,20-8.97,20-20v-40h-10"/>
<path class="st3" d="M101.96,177.5c-5.52,0-10-4.48-10-10v-100c0-5.52,4.48-10,10-10h100c5.52,0,10,4.48,10,10v100
	c0,5.52-4.48,10-10,10H101.96z"/>
<g class="st0">
	<polygon class="st1" points="131.96,77.5 141.96,127.5 161.96,127.5 171.96,77.5 	"/>
</g>
<rect x="141.96" y="142.5" class="st0" width="20" height="15"/>
<path class="st9" d="M146.96,142.5v-5c0-2.76,2.24-5,5-5s5,2.24,5,5v5"/>
<rect x="16.96" y="27.5" class="st5" width="25" height="180"/>
<text transform="matrix(1 0 0 1 24.1274 47.5)" class="st6 st7 st8">4</text>
<g class="st0">
	<path class="st2" d="M241.97,7.5h-180c-11.05,0-20,8.95-20,20v180c0,11.05,8.95,20,20,20h180c11.05,0,20-8.95,20-20v-180
		C261.97,16.45,253.02,7.5,241.97,7.5z M251.97,197.5c0,11.05-8.95,20-20,20h-160c-11.05,0-20-8.95-20-20v-160
		c0-11.05,8.95-20,20-20h160c11.05,0,20,8.95,20,20V197.5z"/>
</g>
<g class="st0">
	<path class="st1" d="M241.97,11.5c8.82,0,16,7.18,16,16v180c0,8.82-7.18,16-16,16h-180c-8.82,0-16-7.18-16-16v-180
		c0-8.82,7.18-16,16-16H241.97 M241.97,7.5h-180c-11.05,0-20,8.95-20,20v180c0,11.05,8.95,20,20,20h180c11.05,0,20-8.95,20-20v-180
		C261.97,16.45,253.02,7.5,241.97,7.5L241.97,7.5z"/>
</g>
<polygon class="st0" points="131.97,77.5 171.97,77.5 161.97,127.5 141.97,127.5 "/>
<circle class="st0" cx="151.97" cy="147.5" r="10"/>
<g class="st0">
	<rect x="63.97" y="29.5" class="st2" width="71" height="176"/>
	<path class="st1" d="M132.97,31.5v172h-67v-172H132.97 M136.97,27.5h-75v180h75V27.5L136.97,27.5z"/>
</g>
<g class="st0">
	<rect x="168.97" y="29.5" class="st2" width="71" height="176"/>
	<path class="st1" d="M237.97,31.5v172h-67v-172H237.97 M241.97,27.5h-75v180h75V27.5L241.97,27.5z"/>
</g>
<rect x="16.96" y="27.5" class="st5" width="25" height="180"/>
<text transform="matrix(1 0 0 1 24.3463 47.5)" class="st6 st7 st8">5</text>
<g class="st0">
	<path class="st1" d="M241.97,227.5h-180c-11.05,0-20-8.95-20-20v-50h220v50C261.97,218.55,253.02,227.5,241.97,227.5z"/>
</g>
<g class="st0">
	<path class="st2" d="M241.97,7.5h-180c-11.05,0-20,8.95-20,20v180c0,11.05,8.95,20,20,20h180c11.05,0,20-8.95,20-20v-180
		C261.97,16.45,253.02,7.5,241.97,7.5z M251.97,197.5c0,11.05-8.95,20-20,20h-160c-11.05,0-20-8.95-20-20v-160
		c0-11.05,8.95-20,20-20h160c11.05,0,20,8.95,20,20V197.5z"/>
</g>
<g class="st0">
	<path class="st1" d="M241.97,11.5c8.82,0,16,7.18,16,16v180c0,8.82-7.18,16-16,16h-180c-8.82,0-16-7.18-16-16v-180
		c0-8.82,7.18-16,16-16H241.97 M241.97,7.5h-180c-11.05,0-20,8.95-20,20v180c0,11.05,8.95,20,20,20h180c11.05,0,20-8.95,20-20v-180
		C261.97,16.45,253.02,7.5,241.97,7.5L241.97,7.5z"/>
</g>
<polygon class="st0" points="149.47,146.67 131.97,142.5 131.97,150.41 "/>
<polygon class="st0" points="124.63,85.85 162.21,72.17 169.92,122.57 151.12,129.41 "/>
<circle class="st0" cx="176.97" cy="147.5" r="10"/>
<rect x="16.96" y="27.5" class="st5" width="25" height="180"/>
<text transform="matrix(1 0 0 1 24.5172 47.5)" class="st6 st7 st8">6</text>
<rect x="51.57" y="17.74" width="200" height="200"/>
<rect x="46.57" y="232.74" class="st11" width="180" height="45"/>
<text transform="matrix(1 0 0 1 46.5661 244.4181)"><tspan x="0" y="0" class="st12 st8">▲ </tspan><tspan x="20.83" y="0" class="st13 st8">Infrared</tspan><tspan x="0" y="16.2" class="st13 st8">obscurity/colour</tspan></text>
<path class="st14" d="M114.04,130.24l-33.2-57.5c-1.92-3.33,0.48-7.5,4.33-7.5h66.4h66.4c3.85,0,6.25,4.17,4.33,7.5l-33.2,57.5"/>
<g>
	<polygon class="st15" points="131.57,77.74 141.57,127.74 161.57,127.74 171.57,77.74 	"/>
</g>
<g>
	<path class="st15" d="M241.57,7.74h-180c-11.05,0-20,8.95-20,20v180c0,11.05,8.95,20,20,20h180c11.05,0,20-8.95,20-20v-180
		C261.57,16.7,252.61,7.74,241.57,7.74z M251.57,197.74c0,11.05-8.95,20-20,20h-160c-11.05,0-20-8.95-20-20v-160
		c0-11.05,8.95-20,20-20h160c11.05,0,20,8.95,20,20V197.74z"/>
</g>
<g>
	<path d="M241.57,11.74c8.82,0,16,7.18,16,16v180c0,8.82-7.18,16-16,16h-180c-8.82,0-16-7.18-16-16v-180c0-8.82,7.18-16,16-16
		H241.57 M241.57,7.74h-180c-11.05,0-20,8.95-20,20v180c0,11.05,8.95,20,20,20h180c11.05,0,20-8.95,20-20v-180
		C261.57,16.7,252.61,7.74,241.57,7.74L241.57,7.74z"/>
</g>
<g>
	<g>
		<path class="st15" d="M150.57,207.41c-1.87,0-3.47-1.27-3.9-3.09l-5.46-23.37l-18.49,11.83c-0.65,0.41-1.39,0.63-2.16,0.63
			c-1.01,0-1.98-0.38-2.72-1.07c-1.34-1.24-1.67-3.22-0.8-4.83l7.02-13.07l-19.1,5.81c-0.38,0.12-0.77,0.17-1.16,0.17
			c-1.42,0-2.75-0.76-3.46-2c-0.94-1.62-0.64-3.64,0.73-4.92l16.18-15.16l-21.59-5.04c-1.82-0.42-3.09-2.03-3.09-3.9
			s1.27-3.47,3.09-3.9l21.59-5.04l-16.18-15.16c-1.36-1.28-1.66-3.3-0.73-4.92c0.71-1.23,2.04-2,3.46-2c0.39,0,0.78,0.06,1.16,0.17
			l19.1,5.81l-7.03-13.07c-0.86-1.6-0.53-3.59,0.8-4.83c0.74-0.69,1.71-1.07,2.72-1.07c0.77,0,1.51,0.22,2.16,0.63l18.49,11.83
			l5.46-23.37c0.43-1.82,2.03-3.09,3.9-3.09c1.87,0,3.47,1.27,3.89,3.09l5.46,23.37l18.49-11.83c0.64-0.41,1.39-0.63,2.16-0.63
			c1.01,0,1.98,0.38,2.72,1.07c1.34,1.24,1.67,3.22,0.8,4.83l-7.02,13.07l19.1-5.81c0.38-0.11,0.77-0.17,1.17-0.17
			c1.42,0,2.75,0.77,3.46,2c0.94,1.62,0.64,3.64-0.73,4.92l-16.18,15.16l21.59,5.04c1.82,0.42,3.09,2.03,3.09,3.9
			s-1.27,3.47-3.09,3.9l-21.59,5.04l16.18,15.16c1.37,1.28,1.67,3.3,0.73,4.92c-0.71,1.23-2.04,2-3.46,2
			c-0.39,0-0.78-0.06-1.16-0.17l-19.11-5.81l7.03,13.07c0.86,1.6,0.53,3.59-0.8,4.83c-0.74,0.69-1.71,1.07-2.72,1.07
			c-0.76,0-1.51-0.22-2.15-0.63l-18.5-11.83l-5.46,23.37C154.04,206.14,152.44,207.41,150.57,207.41z M143.83,170.53
			c0.52,0,1.03,0.1,1.51,0.29c1.2,0.49,2.09,1.53,2.39,2.8l2.85,12.19l2.85-12.19c0.29-1.26,1.19-2.31,2.39-2.8
			c0.48-0.19,0.99-0.29,1.5-0.29c0.77,0,1.51,0.22,2.16,0.63l10.29,6.58l-4.33-8.06c-0.77-1.43-0.6-3.17,0.43-4.43
			c0.76-0.93,1.89-1.47,3.09-1.47c0.4,0,0.79,0.06,1.17,0.18l11.94,3.63l-9.11-8.53c-1.08-1.01-1.51-2.53-1.13-3.95
			c0.38-1.43,1.52-2.53,2.96-2.86l12.19-2.85l-12.19-2.85c-1.44-0.33-2.57-1.43-2.95-2.86c-0.38-1.43,0.05-2.95,1.13-3.96l9.11-8.53
			l-11.94,3.63c-0.37,0.11-0.77,0.17-1.17,0.17c-1.2,0-2.33-0.53-3.09-1.47c-1.03-1.26-1.2-3-0.43-4.43l4.33-8.06l-10.3,6.59
			c-0.64,0.41-1.39,0.63-2.16,0.63c-0.52,0-1.03-0.1-1.51-0.3c-1.2-0.49-2.09-1.53-2.39-2.79l-2.85-12.19l-2.85,12.19
			c-0.29,1.26-1.19,2.31-2.39,2.8c-0.48,0.2-0.99,0.29-1.51,0.29c-0.77,0-1.51-0.22-2.16-0.63l-10.29-6.58l4.33,8.06
			c0.77,1.43,0.6,3.17-0.43,4.43c-0.76,0.93-1.89,1.46-3.09,1.46c-0.39,0-0.79-0.06-1.16-0.17l-11.94-3.63l9.11,8.53
			c1.08,1.01,1.51,2.53,1.13,3.95c-0.38,1.43-1.52,2.53-2.96,2.86l-12.19,2.85l12.19,2.85c1.44,0.33,2.57,1.43,2.95,2.86
			c0.38,1.43-0.05,2.94-1.13,3.95l-9.11,8.53l11.94-3.63c0.37-0.12,0.77-0.17,1.17-0.17c1.2,0,2.33,0.53,3.09,1.47
			c1.03,1.26,1.2,2.99,0.43,4.43l-4.33,8.06l10.3-6.59C142.31,170.75,143.06,170.53,143.83,170.53z"/>
		<path d="M150.57,93.41c0.93,0,1.74,0.64,1.95,1.54l6.1,26.12l20.88-13.35c0.33-0.21,0.7-0.32,1.08-0.32
			c0.49,0,0.98,0.18,1.36,0.53c0.67,0.62,0.83,1.61,0.4,2.41l-9.32,17.34l23.74-7.22c0.19-0.06,0.39-0.09,0.58-0.09
			c0.7,0,1.37,0.37,1.73,1c0.47,0.81,0.31,1.83-0.36,2.46l-18.91,17.71l25.24,5.89c0.9,0.21,1.54,1.02,1.54,1.95
			s-0.64,1.74-1.54,1.95l-25.24,5.89l18.91,17.72c0.68,0.64,0.83,1.66,0.36,2.46c-0.36,0.63-1.03,1-1.73,1
			c-0.19,0-0.39-0.03-0.58-0.09l-23.74-7.22l9.32,17.34c0.43,0.8,0.27,1.79-0.4,2.41c-0.38,0.35-0.87,0.53-1.36,0.53
			c-0.37,0-0.75-0.1-1.08-0.32l-20.88-13.35l-6.1,26.12c-0.21,0.9-1.02,1.54-1.95,1.54c-0.93,0-1.74-0.64-1.95-1.54l-6.1-26.12
			l-20.88,13.35c-0.33,0.21-0.71,0.32-1.08,0.32c-0.49,0-0.98-0.18-1.36-0.53c-0.67-0.62-0.83-1.61-0.4-2.41l9.32-17.35l-23.74,7.22
			c-0.19,0.06-0.39,0.09-0.58,0.09c-0.7,0-1.37-0.37-1.73-1c-0.46-0.81-0.31-1.83,0.36-2.46l18.91-17.72l-25.24-5.89
			c-0.91-0.21-1.55-1.02-1.55-1.95s0.64-1.74,1.55-1.95l25.24-5.89l-18.91-17.72c-0.68-0.64-0.83-1.66-0.36-2.46
			c0.36-0.63,1.03-1,1.73-1c0.19,0,0.39,0.03,0.58,0.09l23.74,7.22l-9.32-17.34c-0.43-0.8-0.27-1.79,0.4-2.41
			c0.38-0.35,0.87-0.53,1.36-0.53c0.37,0,0.75,0.1,1.08,0.32l20.88,13.35l6.1-26.12C148.83,94.05,149.64,93.41,150.57,93.41
			 M143.83,126.29c-0.38,0-0.75-0.11-1.08-0.32l-16.78-10.73l7.97,14.84c0.38,0.71,0.3,1.59-0.21,2.21
			c-0.39,0.47-0.96,0.73-1.55,0.73c-0.19,0-0.39-0.03-0.58-0.09l-20.16-6.13l15.37,14.4c0.54,0.5,0.76,1.26,0.56,1.98
			c-0.19,0.71-0.76,1.26-1.48,1.43l-20.53,4.79l20.53,4.79c0.72,0.17,1.29,0.72,1.48,1.43c0.19,0.71-0.03,1.47-0.56,1.98
			l-15.38,14.4l20.16-6.13c0.19-0.06,0.39-0.09,0.58-0.09c0.59,0,1.16,0.26,1.55,0.73c0.51,0.63,0.6,1.5,0.21,2.21l-7.97,14.84
			l16.78-10.73c0.33-0.21,0.7-0.32,1.08-0.32c0.25,0,0.51,0.05,0.75,0.15c0.6,0.24,1.05,0.77,1.19,1.4l4.79,20.54l4.79-20.54
			c0.15-0.63,0.59-1.15,1.19-1.4c0.24-0.1,0.5-0.15,0.75-0.15c0.38,0,0.75,0.11,1.08,0.32l16.78,10.73l-7.97-14.84
			c-0.38-0.71-0.3-1.59,0.21-2.21c0.39-0.47,0.96-0.73,1.55-0.73c0.19,0,0.39,0.03,0.58,0.09l20.16,6.13l-15.38-14.4
			c-0.54-0.5-0.76-1.26-0.56-1.98c0.19-0.71,0.76-1.26,1.48-1.43l20.54-4.79l-20.54-4.79c-0.72-0.17-1.29-0.72-1.48-1.43
			c-0.19-0.71,0.03-1.47,0.56-1.98l15.37-14.4l-20.16,6.13c-0.19,0.06-0.39,0.09-0.58,0.09c-0.59,0-1.16-0.26-1.55-0.73
			c-0.51-0.63-0.6-1.5-0.21-2.21l7.97-14.84l-16.78,10.73c-0.33,0.21-0.7,0.32-1.08,0.32c-0.25,0-0.51-0.05-0.75-0.15
			c-0.6-0.24-1.05-0.77-1.19-1.4l-4.79-20.54l-4.79,20.54c-0.15,0.63-0.59,1.15-1.19,1.4C144.34,126.24,144.08,126.29,143.83,126.29
			 M150.57,89.41c-2.8,0-5.2,1.91-5.84,4.63l-4.81,20.62l-16.11-10.31c-0.96-0.62-2.08-0.95-3.23-0.95c-1.52,0-2.97,0.57-4.08,1.6
			c-2,1.85-2.5,4.83-1.2,7.24l4.73,8.8l-14.46-4.4c-0.57-0.17-1.16-0.26-1.75-0.26c-2.14,0-4.13,1.15-5.19,3
			c-1.4,2.43-0.95,5.47,1.09,7.38l13.45,12.6l-17.95,4.19c-2.73,0.64-4.64,3.04-4.64,5.84s1.91,5.21,4.64,5.84l17.95,4.19
			l-13.45,12.6c-2.05,1.92-2.5,4.95-1.09,7.38c1.07,1.85,3.06,3,5.2,3c0.59,0,1.17-0.09,1.74-0.26l14.47-4.4l-4.73,8.8
			c-1.29,2.4-0.8,5.38,1.21,7.24c1.11,1.03,2.56,1.6,4.08,1.6c1.15,0,2.26-0.33,3.23-0.94l16.11-10.31l4.81,20.62
			c0.64,2.73,3.04,4.64,5.84,4.64s5.2-1.91,5.84-4.63l4.81-20.62l16.11,10.31c0.97,0.62,2.09,0.95,3.23,0.95
			c1.52,0,2.97-0.57,4.08-1.6c2.01-1.86,2.5-4.84,1.21-7.24l-4.73-8.8l14.46,4.4c0.57,0.17,1.16,0.26,1.74,0.26
			c2.14,0,4.13-1.15,5.2-3c1.4-2.43,0.95-5.46-1.09-7.38l-13.45-12.6l17.95-4.19c2.73-0.64,4.64-3.04,4.64-5.84
			s-1.91-5.21-4.64-5.84l-17.95-4.19l13.45-12.6c2.05-1.92,2.5-4.95,1.09-7.38c-1.07-1.85-3.06-3-5.19-3
			c-0.59,0-1.18,0.09-1.75,0.26l-14.46,4.4l4.73-8.8c1.29-2.4,0.8-5.38-1.21-7.24c-1.11-1.03-2.56-1.6-4.08-1.6
			c-1.15,0-2.27,0.33-3.24,0.95l-16.11,10.3l-4.81-20.62C155.77,91.32,153.37,89.41,150.57,89.41L150.57,89.41z M143.83,130.29
			c0.78,0,1.54-0.15,2.26-0.44c1.8-0.73,3.14-2.3,3.59-4.2l0.9-3.85l0.9,3.85c0.44,1.9,1.78,3.46,3.59,4.19
			c0.72,0.29,1.48,0.44,2.26,0.44c1.15,0,2.27-0.33,3.24-0.95l3.81-2.44l-0.69,1.28c-1.15,2.15-0.9,4.75,0.64,6.64
			c1.14,1.4,2.84,2.2,4.64,2.2c0.6,0,1.19-0.09,1.77-0.27l3.71-1.13l-2.84,2.66c-1.62,1.52-2.27,3.79-1.69,5.93
			c0.57,2.14,2.27,3.79,4.44,4.29l3.85,0.9l-3.85,0.9c-2.16,0.5-3.86,2.15-4.43,4.29c-0.57,2.14,0.08,4.41,1.69,5.93l2.84,2.66
			l-3.73-1.13c-0.56-0.17-1.15-0.26-1.75-0.26c-1.81,0-3.5,0.8-4.64,2.2c-1.55,1.89-1.8,4.49-0.64,6.64l0.69,1.28l-3.81-2.44
			c-0.96-0.62-2.08-0.95-3.23-0.95c-0.78,0-1.54,0.15-2.26,0.44c-1.8,0.73-3.14,2.3-3.58,4.19l-0.9,3.85l-0.9-3.85
			c-0.44-1.9-1.78-3.46-3.59-4.19c-0.72-0.29-1.48-0.44-2.26-0.44c-1.15,0-2.27,0.33-3.24,0.95l-3.81,2.44l0.69-1.28
			c1.16-2.15,0.9-4.76-0.65-6.64c-1.14-1.39-2.83-2.2-4.64-2.2c-0.6,0-1.19,0.09-1.76,0.26l-3.71,1.13l2.84-2.66
			c1.62-1.52,2.27-3.79,1.69-5.93c-0.57-2.14-2.27-3.79-4.44-4.29l-3.84-0.9l3.85-0.9c2.16-0.5,3.86-2.15,4.43-4.29
			c0.57-2.14-0.08-4.41-1.69-5.93l-2.84-2.66l3.73,1.13c0.56,0.17,1.15,0.26,1.74,0.26c1.81,0,3.5-0.8,4.64-2.2
			c1.55-1.89,1.8-4.49,0.64-6.64l-0.69-1.28l3.81,2.44C141.56,129.96,142.68,130.29,143.83,130.29L143.83,130.29z"/>
	</g>
</g>
<path class="st14" d="M126.57,149.08c0,0,8.33-16.67,25-16.67s25,16.67,25,16.67s-8.33,16.67-25,16.67S126.57,149.08,126.57,149.08z
	"/>
<g>
	<circle class="st15" cx="151.57" cy="147.41" r="10"/>
</g>
<rect x="16.57" y="27.74" class="st16" width="25" height="180"/>
<text transform="matrix(1 0 0 1 29.0661 32.7433)" class="st17"><tspan x="0" y="0" class="st15 st7 st18">        </tspan><tspan x="0" y="42.19" class="st15 st19 st20">YES</tspan></text>
<text transform="matrix(1 0 0 1 18.4915 47.7433)" class="st15 st7 st8">50</text>
</svg>
