<?xml version="1.0" encoding="utf-8"?>
<!-- Generator: Adobe Illustrator 23.0.6, SVG Export Plug-In . SVG Version: 6.00 Build 0)  -->
<svg version="1.1" id="Layer_1" xmlns="http://www.w3.org/2000/svg" xmlns:xlink="http://www.w3.org/1999/xlink" x="0px" y="0px"
	 viewBox="0 0 277.12 270" style="enable-background:new 0 0 277.12 270;" xml:space="preserve">
<style type="text/css">
	.st0{display:none;}
	.st1{display:inline;}
	.st2{display:inline;fill:#FFFFFF;}
	.st3{display:none;fill:#FFFFFF;stroke:#000000;stroke-width:4;stroke-linecap:round;stroke-linejoin:round;stroke-miterlimit:10;}
	.st4{display:none;fill:none;stroke:#FFFFFF;stroke-width:4;stroke-linecap:round;stroke-linejoin:round;stroke-miterlimit:10;}
	.st5{display:none;stroke:#000000;stroke-width:4;stroke-linecap:round;stroke-linejoin:round;stroke-miterlimit:10;}
	.st6{display:none;fill:#FFFFFF;enable-background:new    ;}
	.st7{font-family:'Gilland-Bold';}
	.st8{font-size:18px;}
	.st9{display:none;fill:none;stroke:#000000;stroke-width:4;stroke-linecap:round;stroke-linejoin:round;stroke-miterlimit:10;}
	.st10{display:none;fill:#FFFFFF;}
	.st11{fill:#FFFFFF;}
	.st12{fill:none;}
	.st13{font-family:'AppleSymbols';}
	.st14{font-family:'SVBasicManual';}
	.st15{stroke:#000000;stroke-width:4;stroke-linecap:round;stroke-linejoin:round;stroke-miterlimit:10;}
	.st16{writing-mode:tb;}
	.st17{font-size:18px;glyph-orientation-vertical:1;}
	.st18{font-family:'Gilland-Regular';}
	.st19{font-size:18px;glyph-orientation-vertical:0;}
</style>
<g class="st0">
	<path class="st1" d="M241.96,227.5h-180c-11.05,0-20-8.95-20-20v-70h220v70C261.96,218.55,253.01,227.5,241.96,227.5z"/>
</g>
<g class="st0">
	<path class="st2" d="M241.96,7.5h-180c-11.05,0-20,8.95-20,20v180c0,11.05,8.95,20,20,20h180c11.05,0,20-8.95,20-20v-180
		C261.96,16.45,253.01,7.5,241.96,7.5z M251.96,197.5c0,11.05-8.95,20-20,20h-160c-11.05,0-20-8.95-20-20v-160
		c0-11.05,8.95-20,20-20h160c11.05,0,20,8.95,20,20V197.5z"/>
</g>
<g class="st0">
	<path class="st1" d="M241.96,11.5c8.82,0,16,7.18,16,16v180c0,8.82-7.18,16-16,16h-180c-8.82,0-16-7.18-16-16v-180
		c0-8.82,7.18-16,16-16H241.96 M241.96,7.5h-180c-11.05,0-20,8.95-20,20v180c0,11.05,8.95,20,20,20h180c11.05,0,20-8.95,20-20v-180
		C261.96,16.45,253.01,7.5,241.96,7.5L241.96,7.5z"/>
</g>
<path class="st3" d="M151.96,65h66.4c3.85,0,6.25,4.17,4.33,7.5l-33.2,57.5l-33.2,57.5c-1.92,3.33-6.74,3.33-8.66,0l-33.2-57.5
	l-33.2-57.5c-1.92-3.33,0.48-7.5,4.33-7.5H151.96z"/>
<path class="st0" d="M201.96,157.5c0,4.6-22.39,8.33-50,8.33s-50-3.73-50-8.33v50h100V157.5z"/>
<path class="st4" d="M181.96,176.34c-9.26,0.75-19.39,1.16-30,1.16s-20.74-0.41-30-1.16"/>
<path class="st4" d="M201.96,149.01c18.29,2.93,30,7.44,30,12.49c0,2.81-3.63,5.46-10,7.75"/>
<path class="st4" d="M81.96,169.25c-6.37-2.3-10-4.94-10-7.75c0-5.05,11.71-9.56,30-12.49"/>
<ellipse class="st4" cx="151.96" cy="157.5" rx="50" ry="10"/>
<g class="st0">
	<polygon class="st1" points="131.96,77.5 141.96,127.5 161.96,127.5 171.96,77.5 	"/>
	<circle class="st1" cx="151.96" cy="147.5" r="10"/>
</g>
<path class="st4" d="M151.96,147.5"/>
<rect x="16.96" y="27.5" class="st5" width="25" height="180"/>
<text transform="matrix(1 0 0 1 25.6215 47.5)" class="st6 st7 st8">1</text>
<g class="st0">
	<path class="st2" d="M241.96,7.5h-180c-11.05,0-20,8.95-20,20v180c0,11.05,8.95,20,20,20h180c11.05,0,20-8.95,20-20v-180
		C261.96,16.45,253.01,7.5,241.96,7.5z M251.96,197.5c0,11.05-8.95,20-20,20h-160c-11.05,0-20-8.95-20-20v-160
		c0-11.05,8.95-20,20-20h160c11.05,0,20,8.95,20,20V197.5z"/>
</g>
<g class="st0">
	<path class="st1" d="M241.96,11.5c8.82,0,16,7.18,16,16v180c0,8.82-7.18,16-16,16h-180c-8.82,0-16-7.18-16-16v-180
		c0-8.82,7.18-16,16-16H241.96 M241.96,7.5h-180c-11.05,0-20,8.95-20,20v180c0,11.05,8.95,20,20,20h180c11.05,0,20-8.95,20-20v-180
		C261.96,16.45,253.01,7.5,241.96,7.5L241.96,7.5z"/>
</g>
<rect x="131.96" y="47.5" class="st5" width="40" height="40"/>
<rect x="131.96" y="147.5" class="st9" width="40" height="40"/>
<path class="st9" d="M171.96,187.5c38.66,0,70-31.34,70-70s-31.34-70-70-70v40c16.57,0,30,13.43,30,30s-13.43,30-30,30V187.5z"/>
<rect x="101.96" y="47.5" class="st5" width="20" height="40"/>
<rect x="81.96" y="47.5" class="st5" width="10" height="40"/>
<rect x="101.96" y="147.5" class="st5" width="20" height="40"/>
<rect x="81.96" y="147.5" class="st5" width="10" height="40"/>
<rect x="71.97" y="47.5" class="st5" width="0.01" height="40"/>
<rect x="71.97" y="147.5" class="st5" width="0.01" height="40"/>
<rect x="16.96" y="27.5" class="st5" width="25" height="180"/>
<text transform="matrix(1 0 0 1 24.2446 47.5)" class="st6 st7 st8">2</text>
<g class="st0">
	<g class="st1">
		<path d="M241.96,7.5h-180c-11.05,0-20,8.95-20,20v180c0,11.05,8.95,20,20,20h180c11.05,0,20-8.95,20-20v-180
			C261.96,16.45,253.01,7.5,241.96,7.5z M251.96,197.5c0,11.05-8.95,20-20,20h-160c-11.05,0-20-8.95-20-20v-160
			c0-11.05,8.95-20,20-20h160c11.05,0,20,8.95,20,20V197.5z"/>
	</g>
	<g class="st1">
		<path d="M241.96,11.5c8.82,0,16,7.18,16,16v180c0,8.82-7.18,16-16,16h-180c-8.82,0-16-7.18-16-16v-180c0-8.82,7.18-16,16-16
			H241.96 M241.96,7.5h-180c-11.05,0-20,8.95-20,20v180c0,11.05,8.95,20,20,20h180c11.05,0,20-8.95,20-20v-180
			C261.96,16.45,253.01,7.5,241.96,7.5L241.96,7.5z"/>
	</g>
</g>
<rect x="61.96" y="27.5" class="st3" width="85" height="180"/>
<rect x="156.96" y="27.5" class="st3" width="85" height="180"/>
<rect x="71.96" y="37.5" class="st0" width="75" height="10"/>
<rect x="71.96" y="57.5" class="st0" width="75" height="10"/>
<rect x="71.96" y="77.5" class="st0" width="75" height="10"/>
<rect x="71.96" y="97.5" class="st0" width="75" height="10"/>
<rect x="71.96" y="117.5" class="st0" width="75" height="10"/>
<path class="st0" d="M121.96,172.5h-30c-5.5,0-10-4.5-10-10l0,0c0-5.5,4.5-10,10-10h30c5.5,0,10,4.5,10,10l0,0
	C131.96,168,127.46,172.5,121.96,172.5z"/>
<path class="st0" d="M211.96,47.5h-10c-5.5,0-10,4.5-10,10v20c0,5.5,4.5,10,10,10h10c5.5,0,10-4.5,10-10v-20
	C221.96,52,217.46,47.5,211.96,47.5z"/>
<path class="st0" d="M211.96,137.5h-10c-5.5,0-10,4.5-10,10v20c0,5.5,4.5,10,10,10h10c5.5,0,10-4.5,10-10v-20
	C221.96,142,217.46,137.5,211.96,137.5z"/>
<rect x="201.96" y="77.5" class="st0" width="10" height="70"/>
<line class="st9" x1="211.96" y1="157.5" x2="211.96" y2="207.5"/>
<rect x="16.96" y="27.5" class="st5" width="25" height="180"/>
<text transform="matrix(1 0 0 1 24.4516 47.5)" class="st6 st7 st8">3</text>
<rect x="51.96" y="17.5" class="st0" width="200" height="200"/>
<g class="st0">
	<path class="st2" d="M241.96,7.5h-180c-11.05,0-20,8.95-20,20v180c0,11.05,8.95,20,20,20h180c11.05,0,20-8.95,20-20v-180
		C261.96,16.45,253.01,7.5,241.96,7.5z M251.96,197.5c0,11.05-8.95,20-20,20h-160c-11.05,0-20-8.95-20-20v-160
		c0-11.05,8.95-20,20-20h160c11.05,0,20,8.95,20,20V197.5z"/>
</g>
<g class="st0">
	<path class="st1" d="M241.96,11.5c8.82,0,16,7.18,16,16v180c0,8.82-7.18,16-16,16h-180c-8.82,0-16-7.18-16-16v-180
		c0-8.82,7.18-16,16-16H241.96 M241.96,7.5h-180c-11.05,0-20,8.95-20,20v180c0,11.05,8.95,20,20,20h180c11.05,0,20-8.95,20-20v-180
		C261.96,16.45,253.01,7.5,241.96,7.5L241.96,7.5z"/>
</g>
<polygon class="st10" points="241.96,207.5 241.96,27.5 61.96,27.5 "/>
<path class="st3" d="M81.96,112.5v-45c0-11.03,8.97-20,20-20h100c11.03,0,20,8.97,20,20v45h-10"/>
<path class="st3" d="M81.96,127.5v40c0,11.03,8.97,20,20,20h100c11.03,0,20-8.97,20-20v-40h-10"/>
<path class="st3" d="M101.96,177.5c-5.52,0-10-4.48-10-10v-100c0-5.52,4.48-10,10-10h100c5.52,0,10,4.48,10,10v100
	c0,5.52-4.48,10-10,10H101.96z"/>
<g class="st0">
	<polygon class="st1" points="131.96,77.5 141.96,127.5 161.96,127.5 171.96,77.5 	"/>
</g>
<rect x="141.96" y="142.5" class="st0" width="20" height="15"/>
<path class="st9" d="M146.96,142.5v-5c0-2.76,2.24-5,5-5s5,2.24,5,5v5"/>
<rect x="16.96" y="27.5" class="st5" width="25" height="180"/>
<text transform="matrix(1 0 0 1 24.1274 47.5)" class="st6 st7 st8">4</text>
<g class="st0">
	<path class="st2" d="M241.97,7.5h-180c-11.05,0-20,8.95-20,20v180c0,11.05,8.95,20,20,20h180c11.05,0,20-8.95,20-20v-180
		C261.97,16.45,253.02,7.5,241.97,7.5z M251.97,197.5c0,11.05-8.95,20-20,20h-160c-11.05,0-20-8.95-20-20v-160
		c0-11.05,8.95-20,20-20h160c11.05,0,20,8.95,20,20V197.5z"/>
</g>
<g class="st0">
	<path class="st1" d="M241.97,11.5c8.82,0,16,7.18,16,16v180c0,8.82-7.18,16-16,16h-180c-8.82,0-16-7.18-16-16v-180
		c0-8.82,7.18-16,16-16H241.97 M241.97,7.5h-180c-11.05,0-20,8.95-20,20v180c0,11.05,8.95,20,20,20h180c11.05,0,20-8.95,20-20v-180
		C261.97,16.45,253.02,7.5,241.97,7.5L241.97,7.5z"/>
</g>
<polygon class="st0" points="131.97,77.5 171.97,77.5 161.97,127.5 141.97,127.5 "/>
<circle class="st0" cx="151.97" cy="147.5" r="10"/>
<g class="st0">
	<rect x="63.97" y="29.5" class="st2" width="71" height="176"/>
	<path class="st1" d="M132.97,31.5v172h-67v-172H132.97 M136.97,27.5h-75v180h75V27.5L136.97,27.5z"/>
</g>
<g class="st0">
	<rect x="168.97" y="29.5" class="st2" width="71" height="176"/>
	<path class="st1" d="M237.97,31.5v172h-67v-172H237.97 M241.97,27.5h-75v180h75V27.5L241.97,27.5z"/>
</g>
<rect x="16.96" y="27.5" class="st5" width="25" height="180"/>
<text transform="matrix(1 0 0 1 24.3463 47.5)" class="st6 st7 st8">5</text>
<g class="st0">
	<path class="st1" d="M241.97,227.5h-180c-11.05,0-20-8.95-20-20v-50h220v50C261.97,218.55,253.02,227.5,241.97,227.5z"/>
</g>
<g class="st0">
	<path class="st2" d="M241.97,7.5h-180c-11.05,0-20,8.95-20,20v180c0,11.05,8.95,20,20,20h180c11.05,0,20-8.95,20-20v-180
		C261.97,16.45,253.02,7.5,241.97,7.5z M251.97,197.5c0,11.05-8.95,20-20,20h-160c-11.05,0-20-8.95-20-20v-160
		c0-11.05,8.95-20,20-20h160c11.05,0,20,8.95,20,20V197.5z"/>
</g>
<g class="st0">
	<path class="st1" d="M241.97,11.5c8.82,0,16,7.18,16,16v180c0,8.82-7.18,16-16,16h-180c-8.82,0-16-7.18-16-16v-180
		c0-8.82,7.18-16,16-16H241.97 M241.97,7.5h-180c-11.05,0-20,8.95-20,20v180c0,11.05,8.95,20,20,20h180c11.05,0,20-8.95,20-20v-180
		C261.97,16.45,253.02,7.5,241.97,7.5L241.97,7.5z"/>
</g>
<polygon class="st0" points="149.47,146.67 131.97,142.5 131.97,150.41 "/>
<polygon class="st0" points="124.63,85.85 162.21,72.17 169.92,122.57 151.12,129.41 "/>
<circle class="st0" cx="176.97" cy="147.5" r="10"/>
<rect x="16.96" y="27.5" class="st5" width="25" height="180"/>
<text transform="matrix(1 0 0 1 24.5172 47.5)" class="st6 st7 st8">6</text>
<polygon points="151.83,127.88 131.83,17.88 171.83,17.88 "/>
<polygon points="151.83,127.88 221.83,17.88 191.83,17.88 "/>
<polygon points="151.83,127.88 81.83,17.88 111.83,17.88 "/>
<path d="M157.91,134.04v3.83l7.83,3.91C164.9,137.89,161.82,134.83,157.91,134.04z"/>
<path d="M161.71,145.69l-7.83-3.91v-3.83c-0.65-0.13-1.32-0.2-2.01-0.2c-2.27,0-4.36,0.75-6.04,2.01l4.03,6.04l-7.06-2.35
	c-0.64,1.32-0.99,2.8-0.99,4.37c0,5.56,4.51,10.07,10.07,10.07c5.56,0,10.07-4.51,10.07-10.07
	C161.94,147.09,161.86,146.38,161.71,145.69z"/>
<path d="M137.78,135.74c-1.28,0.96-2.33,2.23-3.03,3.69l7.06,2.35L137.78,135.74z"/>
<g>
	<path d="M141.83,129.88c-0.95,0-1.77-0.67-1.96-1.61l-10-50c-0.12-0.59,0.03-1.2,0.41-1.66s0.95-0.73,1.55-0.73h40
		c0.6,0,1.17,0.27,1.55,0.73s0.53,1.07,0.41,1.66l-10,50c-0.19,0.94-1.01,1.61-1.96,1.61H141.83z"/>
	<path class="st11" d="M171.83,77.88l-10,50h-20l-10-50H171.83 M171.83,73.88h-40c-1.2,0-2.33,0.54-3.09,1.46
		c-0.76,0.93-1.06,2.15-0.83,3.32l10,50c0.37,1.87,2.02,3.22,3.92,3.22h20c1.91,0,3.55-1.35,3.92-3.22l10-50
		c0.24-1.18-0.07-2.39-0.83-3.32C174.16,74.42,173.02,73.88,171.83,73.88L171.83,73.88z M171.83,81.88L171.83,81.88L171.83,81.88
		L171.83,81.88z"/>
</g>
<polygon points="141.83,127.88 61.83,17.88 51.83,17.88 51.83,47.88 "/>
<polygon points="161.83,127.88 241.83,17.88 251.83,17.88 251.83,47.88 "/>
<polygon points="131.83,127.88 51.83,67.88 51.83,97.88 "/>
<polygon points="171.83,127.88 251.83,67.88 251.83,97.88 "/>
<polygon points="131.83,137.88 51.83,117.88 51.83,137.88 "/>
<polygon points="171.83,137.88 251.83,117.88 251.83,137.88 "/>
<rect x="41.83" y="232.88" class="st12" width="250.45" height="35"/>
<text transform="matrix(1 0 0 1 41.8256 244.5596)"><tspan x="0" y="0" class="st13 st8">▲ </tspan><tspan x="20.83" y="0" class="st14 st8">Explosion risk</tspan><tspan x="0" y="16.2" class="st14 st8">deconstruction/volatility</tspan></text>
<g>
	<path class="st11" d="M241.83,7.88h-180c-11.05,0-20,8.95-20,20v180c0,11.05,8.95,20,20,20h180c11.05,0,20-8.95,20-20v-180
		C261.83,16.84,252.87,7.88,241.83,7.88z M251.83,197.88c0,11.05-8.95,20-20,20h-160c-11.05,0-20-8.95-20-20v-160
		c0-11.05,8.95-20,20-20h160c11.05,0,20,8.95,20,20V197.88z"/>
</g>
<g>
	<path d="M241.83,11.88c8.82,0,16,7.18,16,16v180c0,8.82-7.18,16-16,16h-180c-8.82,0-16-7.18-16-16v-180c0-8.82,7.18-16,16-16
		H241.83 M241.83,7.88h-180c-11.05,0-20,8.95-20,20v180c0,11.05,8.95,20,20,20h180c11.05,0,20-8.95,20-20v-180
		C261.83,16.84,252.87,7.88,241.83,7.88L241.83,7.88z"/>
</g>
<line class="st12" x1="54.33" y1="-29.62" x2="54.33" y2="277.88"/>
<rect x="16.83" y="27.88" class="st15" width="25" height="180"/>
<text transform="matrix(1 0 0 1 29.3255 32.8848)" class="st16"><tspan x="0" y="0" class="st11 st7 st17">        </tspan><tspan x="0" y="42.19" class="st11 st18 st19">NO</tspan></text>
<text transform="matrix(1 0 0 1 24.7357 47.8848)" class="st11 st7 st8">7</text>
</svg>
